<?xml version="1.0" encoding="utf-8" standalone="no"?>
<!DOCTYPE svg PUBLIC "-//W3C//DTD SVG 1.1//EN"
  "http://www.w3.org/Graphics/SVG/1.1/DTD/svg11.dtd">
<svg xmlns:xlink="http://www.w3.org/1999/xlink" width="353.324314pt" height="233.596832pt" viewBox="0 0 353.324314 233.596832" xmlns="http://www.w3.org/2000/svg" version="1.1">
 <metadata>
  <rdf:RDF xmlns:dc="http://purl.org/dc/elements/1.1/" xmlns:cc="http://creativecommons.org/ns#" xmlns:rdf="http://www.w3.org/1999/02/22-rdf-syntax-ns#">
   <cc:Work>
    <dc:type rdf:resource="http://purl.org/dc/dcmitype/StillImage"/>
    <dc:date>2025-07-18T11:12:16.155090</dc:date>
    <dc:format>image/svg+xml</dc:format>
    <dc:creator>
     <cc:Agent>
      <dc:title>Matplotlib v3.9.4, https://matplotlib.org/</dc:title>
     </cc:Agent>
    </dc:creator>
   </cc:Work>
  </rdf:RDF>
 </metadata>
 <defs>
  <style type="text/css">*{stroke-linejoin: round; stroke-linecap: butt}</style>
 </defs>
 <g id="figure_1">
  <g id="patch_1">
   <path d="M 0 233.596832 
L 353.324314 233.596832 
L 353.324314 -0 
L 0 -0 
z
" style="fill: #ffffff"/>
  </g>
  <g id="axes_1">
   <g id="patch_2">
    <path d="M 53.843438 184.638082 
L 327.263438 184.638082 
L 327.263438 46.038082 
L 53.843438 46.038082 
z
" style="fill: #ffffff"/>
   </g>
   <g id="matplotlib.axis_1">
    <g id="xtick_1">
     <g id="line2d_1">
      <defs>
       <path id="m9c591cd618" d="M 0 0 
L 0 5 
" style="stroke: #000000"/>
      </defs>
      <g>
       <use xlink:href="#m9c591cd618" x="68.126572" y="184.638082" style="stroke: #000000"/>
      </g>
     </g>
     <g id="text_1">
      <text style="font: 12px 'DejaVu Sans', 'Bitstream Vera Sans', 'Computer Modern Sans Serif', 'Lucida Grande', 'Verdana', 'Geneva', 'Lucid', 'Arial', 'Helvetica', 'Avant Garde', sans-serif" transform="translate(71.437822 224.251832) rotate(-90)">A222</text>
     </g>
    </g>
    <g id="xtick_2">
     <g id="line2d_2">
      <g>
       <use xlink:href="#m9c591cd618" x="108.935527" y="184.638082" style="stroke: #000000"/>
      </g>
     </g>
     <g id="text_2">
      <text style="font: 12px 'DejaVu Sans', 'Bitstream Vera Sans', 'Computer Modern Sans Serif', 'Lucida Grande', 'Verdana', 'Geneva', 'Lucid', 'Arial', 'Helvetica', 'Avant Garde', sans-serif" transform="translate(112.246777 224.251832) rotate(-90)">V570</text>
     </g>
    </g>
    <g id="xtick_3">
     <g id="line2d_3">
      <g>
       <use xlink:href="#m9c591cd618" x="149.744482" y="184.638082" style="stroke: #000000"/>
      </g>
     </g>
     <g id="text_3">
      <text style="font: 12px 'DejaVu Sans', 'Bitstream Vera Sans', 'Computer Modern Sans Serif', 'Lucida Grande', 'Verdana', 'Geneva', 'Lucid', 'Arial', 'Helvetica', 'Avant Garde', sans-serif" transform="translate(153.055732 223.372457) rotate(-90)">T572</text>
     </g>
    </g>
    <g id="xtick_4">
     <g id="line2d_4">
      <g>
       <use xlink:href="#m9c591cd618" x="190.553438" y="184.638082" style="stroke: #000000"/>
      </g>
     </g>
     <g id="text_4">
      <text style="font: 12px 'DejaVu Sans', 'Bitstream Vera Sans', 'Computer Modern Sans Serif', 'Lucida Grande', 'Verdana', 'Geneva', 'Lucid', 'Arial', 'Helvetica', 'Avant Garde', sans-serif" transform="translate(193.864688 225.341207) rotate(-90)">G614</text>
     </g>
    </g>
    <g id="xtick_5">
     <g id="line2d_5">
      <g>
       <use xlink:href="#m9c591cd618" x="231.362393" y="184.638082" style="stroke: #000000"/>
      </g>
     </g>
     <g id="text_5">
      <text style="font: 12px 'DejaVu Sans', 'Bitstream Vera Sans', 'Computer Modern Sans Serif', 'Lucida Grande', 'Verdana', 'Geneva', 'Lucid', 'Arial', 'Helvetica', 'Avant Garde', sans-serif" transform="translate(234.673643 223.661207) rotate(-90)">S621</text>
     </g>
    </g>
    <g id="xtick_6">
     <g id="line2d_6">
      <g>
       <use xlink:href="#m9c591cd618" x="272.171348" y="184.638082" style="stroke: #000000"/>
      </g>
     </g>
     <g id="text_6">
      <text style="font: 12px 'DejaVu Sans', 'Bitstream Vera Sans', 'Computer Modern Sans Serif', 'Lucida Grande', 'Verdana', 'Geneva', 'Lucid', 'Arial', 'Helvetica', 'Avant Garde', sans-serif" transform="translate(275.482598 226.396832) rotate(-90)">M740</text>
     </g>
    </g>
    <g id="xtick_7">
     <g id="line2d_7">
      <g>
       <use xlink:href="#m9c591cd618" x="312.980303" y="184.638082" style="stroke: #000000"/>
      </g>
     </g>
     <g id="text_7">
      <text style="font: 12px 'DejaVu Sans', 'Bitstream Vera Sans', 'Computer Modern Sans Serif', 'Lucida Grande', 'Verdana', 'Geneva', 'Lucid', 'Arial', 'Helvetica', 'Avant Garde', sans-serif" transform="translate(316.291553 224.251832) rotate(-90)">A852</text>
     </g>
    </g>
   </g>
   <g id="matplotlib.axis_2">
    <g id="ytick_1">
     <g id="line2d_8">
      <defs>
       <path id="m2f0877ecd2" d="M 0 0 
L -5 0 
" style="stroke: #000000"/>
      </defs>
      <g>
       <use xlink:href="#m2f0877ecd2" x="53.843438" y="144.658537" style="stroke: #000000"/>
      </g>
     </g>
     <g id="text_8">
      <text style="font: 12px 'DejaVu Sans', 'Bitstream Vera Sans', 'Computer Modern Sans Serif', 'Lucida Grande', 'Verdana', 'Geneva', 'Lucid', 'Arial', 'Helvetica', 'Avant Garde', sans-serif; text-anchor: end" x="45.343438" y="149.2176" transform="rotate(-0 45.343438 149.2176)">−2</text>
     </g>
    </g>
    <g id="ytick_2">
     <g id="line2d_9">
      <g>
       <use xlink:href="#m2f0877ecd2" x="53.843438" y="101.650587" style="stroke: #000000"/>
      </g>
     </g>
     <g id="text_9">
      <text style="font: 12px 'DejaVu Sans', 'Bitstream Vera Sans', 'Computer Modern Sans Serif', 'Lucida Grande', 'Verdana', 'Geneva', 'Lucid', 'Arial', 'Helvetica', 'Avant Garde', sans-serif; text-anchor: end" x="45.343438" y="106.20965" transform="rotate(-0 45.343438 106.20965)">0</text>
     </g>
    </g>
    <g id="ytick_3">
     <g id="line2d_10">
      <g>
       <use xlink:href="#m2f0877ecd2" x="53.843438" y="58.642637" style="stroke: #000000"/>
      </g>
     </g>
     <g id="text_10">
      <text style="font: 12px 'DejaVu Sans', 'Bitstream Vera Sans', 'Computer Modern Sans Serif', 'Lucida Grande', 'Verdana', 'Geneva', 'Lucid', 'Arial', 'Helvetica', 'Avant Garde', sans-serif; text-anchor: end" x="45.343438" y="63.2017" transform="rotate(-0 45.343438 63.2017)">2</text>
     </g>
    </g>
    <g id="text_11">
     <text style="font: 17px 'DejaVu Sans', 'Bitstream Vera Sans', 'Computer Modern Sans Serif', 'Lucida Grande', 'Verdana', 'Geneva', 'Lucid', 'Arial', 'Helvetica', 'Avant Garde', sans-serif; text-anchor: middle" x="20.117344" y="115.338082" transform="rotate(-90 20.117344 115.338082)">escape</text>
    </g>
   </g>
   <g id="line2d_11">
    <path d="M 88.531049 184.638082 
L 88.531049 46.038082 
" clip-path="url(#p7696f110e9)" style="fill: none; stroke-dasharray: 2,5; stroke-dashoffset: 0; stroke: #000000"/>
   </g>
   <g id="line2d_12">
    <path d="M 129.340005 184.638082 
L 129.340005 46.038082 
" clip-path="url(#p7696f110e9)" style="fill: none; stroke-dasharray: 2,5; stroke-dashoffset: 0; stroke: #000000"/>
   </g>
   <g id="line2d_13">
    <path d="M 170.14896 184.638082 
L 170.14896 46.038082 
" clip-path="url(#p7696f110e9)" style="fill: none; stroke-dasharray: 2,5; stroke-dashoffset: 0; stroke: #000000"/>
   </g>
   <g id="line2d_14">
    <path d="M 210.957915 184.638082 
L 210.957915 46.038082 
" clip-path="url(#p7696f110e9)" style="fill: none; stroke-dasharray: 2,5; stroke-dashoffset: 0; stroke: #000000"/>
   </g>
   <g id="line2d_15">
    <path d="M 251.76687 184.638082 
L 251.76687 46.038082 
" clip-path="url(#p7696f110e9)" style="fill: none; stroke-dasharray: 2,5; stroke-dashoffset: 0; stroke: #000000"/>
   </g>
   <g id="line2d_16">
    <path d="M 292.575826 184.638082 
L 292.575826 46.038082 
" clip-path="url(#p7696f110e9)" style="fill: none; stroke-dasharray: 2,5; stroke-dashoffset: 0; stroke: #000000"/>
   </g>
   <g id="patch_3">
    <path d="M 53.843438 184.638082 
L 53.843438 46.038082 
" style="fill: none; stroke: #000000; stroke-width: 0.8; stroke-linejoin: miter; stroke-linecap: square"/>
   </g>
   <g id="patch_4">
    <path d="M 53.843438 184.638082 
L 327.263438 184.638082 
" style="fill: none; stroke: #000000; stroke-width: 0.8; stroke-linejoin: miter; stroke-linecap: square"/>
   </g>
   <g id="text_12">
    <g id="patch_5">
     <path d="M 57.924333 140.600667 
L 101.270583 140.600667 
L 101.270583 70.918167 
L 57.924333 70.918167 
L 57.924333 140.600667 
z
" style="fill: none"/>
    </g>
    <path d="M 77.026046 116.768257 
L 66.120205 116.768257 
L 66.120205 119.071156 
L 76.047599 119.071156 
L 76.047599 120.939503 
L 66.120205 120.939503 
L 66.120205 125.607065 
L 61.052067 125.607065 
L 61.052067 114.899909 
L 77.026046 114.899909 
L 77.026046 116.768257 
z
" style="fill: #2e9f54"/>
   </g>
   <g id="text_13">
    <g id="patch_6">
     <path d="M 57.924333 127.562807 
L 101.270583 127.562807 
L 101.270583 57.880307 
L 57.924333 57.880307 
L 57.924333 127.562807 
z
" style="fill: none"/>
    </g>
    <path d="M 58.523495 109.535862 
L 62.701136 109.535862 
L 64.432658 111.772863 
L 66.532472 110.326943 
L 70.501231 110.326943 
L 72.919865 111.772863 
L 74.294089 109.535862 
L 78.504711 109.535862 
L 75.723282 112.583407 
L 71.254306 112.583407 
L 68.505858 110.984293 
L 65.927813 112.583407 
L 61.513806 112.583407 
L 58.523495 109.535862 
z
" style="fill: #71c07e"/>
   </g>
   <g id="text_14">
    <g id="patch_7">
     <path d="M 57.924333 122.767421 
L 101.270583 122.767421 
L 101.270583 53.084921 
L 57.924333 53.084921 
L 57.924333 122.767421 
z
" style="fill: none"/>
    </g>
    <path d="M 58.061755 105.222967 
L 63.52567 105.222967 
L 68.505858 106.253786 
L 73.502536 105.222967 
L 78.966451 105.222967 
L 71.05092 106.777653 
L 71.05092 107.788913 
L 65.982782 107.788913 
L 65.982782 106.777653 
L 58.061755 105.222967 
z
" style="fill: #accdab"/>
   </g>
   <g id="text_15">
    <g id="patch_8">
     <path d="M 57.924333 118.49028 
L 101.270583 118.49028 
L 101.270583 48.80778 
L 57.924333 48.80778 
L 57.924333 118.49028 
z
" style="fill: none"/>
    </g>
    <path d="M 68.505858 103.414489 
L 73.024306 102.903147 
L 78.125425 102.903147 
L 72.029368 103.515395 
L 65.004335 103.515395 
L 58.90278 102.903147 
L 64.0039 102.903147 
L 68.505858 103.414489 
z
" style="fill: #afc7b0"/>
   </g>
   <g id="text_16">
    <g id="patch_9">
     <path d="M 57.924333 117.115316 
L 101.270583 117.115316 
L 101.270583 47.432816 
L 57.924333 47.432816 
L 57.924333 117.115316 
z
" style="fill: none"/>
    </g>
    <path d="M 65.7739 102.036511 
L 65.7739 102.07342 
L 67.851727 102.07342 
Q 70.341821 102.07342 71.347753 102.069302 
Q 72.353685 102.065157 72.353685 102.054952 
Q 72.353685 102.044747 71.347753 102.040629 
Q 70.341821 102.036511 67.851727 102.036511 
L 65.7739 102.036511 
z
M 60.705762 102.015609 
L 67.664833 102.015609 
Q 72.974834 102.015609 75.300021 102.024881 
Q 77.625208 102.034154 77.625208 102.054952 
Q 77.625208 102.075751 75.300021 102.085024 
Q 72.974834 102.094296 67.664833 102.094296 
L 65.7739 102.094296 
L 65.7739 102.141333 
L 60.705762 102.141333 
L 60.705762 102.015609 
z
" style="fill: #b0c6b2"/>
   </g>
   <g id="text_17">
    <g id="patch_10">
     <path d="M 57.924333 116.832969 
L 101.270583 116.832969 
L 101.270583 47.150469 
L 57.924333 47.150469 
L 57.924333 116.832969 
z
" style="fill: none"/>
    </g>
    <path d="M 60.881663 101.782357 
L 60.881663 101.766147 
L 76.15204 101.766147 
L 76.15204 101.782357 
L 71.05092 101.782357 
L 71.05092 101.842836 
L 76.15204 101.842836 
L 76.15204 101.859047 
L 60.881663 101.859047 
L 60.881663 101.842836 
L 65.982782 101.842836 
L 65.982782 101.782357 
L 60.881663 101.782357 
z
" style="fill: #b3c0b7"/>
   </g>
   <g id="text_18">
    <g id="patch_11">
     <path d="M 57.924333 116.624337 
L 101.270583 116.624337 
L 101.270583 46.941837 
L 57.924333 46.941837 
L 57.924333 116.624337 
z
" style="fill: none"/>
    </g>
    <path d="M 68.505858 101.650587 
L 66.120205 101.650587 
L 70.913498 101.650587 
L 68.505858 101.650587 
z
M 65.416602 101.650587 
L 71.617101 101.650587 
L 78.537693 101.650587 
L 73.469555 101.650587 
L 71.891946 101.650587 
L 65.103279 101.650587 
L 63.558651 101.650587 
L 58.490513 101.650587 
L 65.416602 101.650587 
z
" style="fill: #b3c0b7"/>
   </g>
   <g id="text_19">
    <g id="patch_12">
     <path d="M 57.924333 115.801036 
L 101.270583 115.801036 
L 101.270583 46.118536 
L 57.924333 46.118536 
L 57.924333 115.801036 
z
" style="fill: none"/>
    </g>
    <path d="M 66.686385 100.526582 
Q 62.855049 100.489378 61.497315 100.448539 
Q 60.139582 100.407699 60.139582 100.338607 
Q 60.139582 100.249934 62.371322 100.199304 
Q 64.608558 100.148534 68.505858 100.148534 
Q 70.275858 100.148534 72.045859 100.158884 
Q 73.815859 100.169094 75.547381 100.189094 
L 75.547381 100.31497 
Q 73.914803 100.285739 72.232753 100.270494 
Q 70.550703 100.255109 68.901634 100.255109 
Q 67.065671 100.255109 66.081727 100.27399 
Q 65.103279 100.292732 65.103279 100.327698 
Q 65.103279 100.354831 65.817876 100.372593 
Q 66.532472 100.390216 68.797193 100.411615 
L 70.979461 100.432594 
Q 74.074213 100.461406 75.530891 100.509099 
Q 76.993065 100.556792 76.993065 100.629241 
Q 76.993065 100.728124 74.695362 100.776796 
Q 72.403157 100.825468 67.769274 100.825468 
Q 65.861851 100.825468 63.943434 100.813999 
Q 62.030514 100.802391 60.244023 100.779593 
L 60.244023 100.646304 
Q 62.272378 100.683088 64.168807 100.70099 
Q 66.065236 100.718893 67.923187 100.718893 
Q 69.792131 100.718893 70.820051 100.697354 
Q 71.853467 100.675675 71.853467 100.636654 
Q 71.853467 100.607422 71.166355 100.585324 
Q 70.479243 100.563226 69.176479 100.550638 
L 66.686385 100.526582 
z
" style="fill: #b8b6bf"/>
   </g>
   <g id="text_20">
    <g id="patch_13">
     <path d="M 57.924333 113.735278 
L 101.270583 113.735278 
L 101.270583 44.052778 
L 57.924333 44.052778 
L 57.924333 113.735278 
z
" style="fill: none"/>
    </g>
    <path d="M 76.492847 98.706362 
Q 75.289027 98.732555 73.964275 98.745535 
Q 72.64502 98.758515 71.188343 98.758515 
Q 65.999273 98.758515 63.267316 98.614574 
Q 60.535359 98.470401 60.535359 98.198049 
Q 60.535359 97.925002 63.267316 97.780829 
Q 65.999273 97.636657 71.188343 97.636657 
Q 72.64502 97.636657 73.986263 97.649637 
Q 75.327505 97.662617 76.492847 97.688809 
L 76.492847 97.926393 
Q 75.190083 97.875631 73.958778 97.85222 
Q 72.732971 97.828578 71.424709 97.828578 
Q 68.64328 97.828578 67.225081 97.921757 
Q 65.806882 98.014704 65.806882 98.198049 
Q 65.806882 98.380467 67.225081 98.473646 
Q 68.64328 98.566594 71.424709 98.566594 
Q 72.732971 98.566594 73.958778 98.543183 
Q 75.190083 98.519541 76.492847 98.468779 
L 76.492847 98.706362 
z
" style="fill: #bfaaca"/>
   </g>
   <g id="text_21">
    <g id="patch_14">
     <path d="M 57.924333 110.974214 
L 101.270583 110.974214 
L 101.270583 41.291714 
L 57.924333 41.291714 
L 57.924333 110.974214 
z
" style="fill: none"/>
    </g>
    <path d="M 72.903374 95.628572 
L 72.903374 95.275711 
L 69.434833 95.275711 
L 69.434833 94.968444 
L 77.333872 94.968444 
L 77.333872 95.815707 
Q 75.877195 95.906103 74.112691 95.952887 
Q 72.353685 95.999274 70.341821 95.999274 
Q 65.361633 95.999274 62.646167 95.749496 
Q 59.936197 95.499718 59.936197 95.040206 
Q 59.936197 94.57316 62.673651 94.326554 
Q 65.416602 94.079947 70.583684 94.079947 
Q 72.128312 94.079947 73.623468 94.111665 
Q 75.118623 94.143383 76.426885 94.202854 
L 76.426885 94.607653 
Q 75.360487 94.508535 73.975269 94.458579 
Q 72.595548 94.408227 70.946479 94.408227 
Q 68.060609 94.408227 66.631416 94.565231 
Q 65.20772 94.721838 65.20772 95.040206 
Q 65.20772 95.348662 66.581944 95.510026 
Q 67.956168 95.670995 70.583684 95.670995 
Q 71.375237 95.670995 71.957908 95.660686 
Q 72.540579 95.649981 72.903374 95.628572 
z
" style="fill: #bfa0cc"/>
   </g>
   <g id="text_22">
    <g id="patch_15">
     <path d="M 57.924333 107.378319 
L 101.270583 107.378319 
L 101.270583 37.695819 
L 57.924333 37.695819 
L 57.924333 107.378319 
z
" style="fill: none"/>
    </g>
    <path d="M 65.345142 90.647086 
L 65.345142 92.019831 
L 66.719366 92.019831 
Q 69.709678 92.019831 70.979461 91.863298 
Q 72.249244 91.706325 72.249244 91.33126 
Q 72.249244 90.958834 70.979461 90.80318 
Q 69.709678 90.647086 66.719366 90.647086 
L 65.345142 90.647086 
z
M 60.277004 90.266306 
L 65.707938 90.266306 
Q 71.99089 90.266306 74.755828 90.516056 
Q 77.526264 90.765366 77.526264 91.33126 
Q 77.526264 91.898914 74.755828 92.149983 
Q 71.99089 92.400612 65.707938 92.400612 
L 60.277004 92.400612 
L 60.277004 90.266306 
z
" style="fill: #ba98c8"/>
   </g>
   <g id="text_23">
    <g id="patch_16">
     <path d="M 57.924333 103.515947 
L 101.270583 103.515947 
L 101.270583 33.833447 
L 57.924333 33.833447 
L 57.924333 103.515947 
z
" style="fill: none"/>
    </g>
    <path d="M 61.788651 88.536098 
L 61.788651 85.246756 
L 66.856789 85.246756 
L 66.856789 87.962124 
L 77.696668 87.962124 
L 77.696668 88.536098 
L 61.788651 88.536098 
z
" style="fill: #b692c5"/>
   </g>
   <g id="text_24">
    <g id="patch_17">
     <path d="M 57.924333 98.44488 
L 101.270583 98.44488 
L 101.270583 28.76238 
L 57.924333 28.76238 
L 57.924333 98.44488 
z
" style="fill: none"/>
    </g>
    <path d="M 60.277004 79.815321 
L 65.345142 79.815321 
L 65.345142 81.206077 
L 71.683063 81.206077 
L 71.683063 79.815321 
L 76.751202 79.815321 
L 76.751202 83.464364 
L 71.683063 83.464364 
L 71.683063 81.840562 
L 65.345142 81.840562 
L 65.345142 83.464364 
L 60.277004 83.464364 
L 60.277004 79.815321 
z
" style="fill: #9257a7"/>
   </g>
   <g id="text_25">
    <g id="patch_18">
     <path d="M 57.924333 92.945539 
L 101.270583 92.945539 
L 101.270583 23.263039 
L 57.924333 23.263039 
L 57.924333 92.945539 
z
" style="fill: none"/>
    </g>
    <path d="M 71.05092 77.962582 
L 65.982782 77.962582 
L 65.982782 73.853964 
L 59.468961 73.853964 
L 59.468961 72.996637 
L 77.559245 72.996637 
L 77.559245 73.853964 
L 71.05092 73.853964 
L 71.05092 77.962582 
z
" style="fill: #bb9ac9"/>
   </g>
   <g id="text_26">
    <g id="patch_19">
     <path d="M 57.924333 86.005518 
L 101.270583 86.005518 
L 101.270583 16.323018 
L 57.924333 16.323018 
L 57.924333 86.005518 
z
" style="fill: none"/>
    </g>
    <path d="M 76.784183 71.019104 
L 60.810203 71.019104 
L 60.810203 64.188715 
L 76.784183 64.188715 
L 76.784183 65.380585 
L 65.878341 65.380585 
L 65.878341 66.849668 
L 75.756263 66.849668 
L 75.756263 68.041538 
L 65.878341 68.041538 
L 65.878341 69.827233 
L 76.784183 69.827233 
L 76.784183 71.019104 
z
" style="fill: #a06eb3"/>
   </g>
   <g id="text_27">
    <g id="patch_20">
     <path d="M 57.924333 76.8825 
L 101.270583 76.8825 
L 101.270583 7.2 
L 57.924333 7.2 
L 57.924333 76.8825 
z
" style="fill: none"/>
    </g>
    <path d="M 59.969178 49.085607 
L 65.416602 49.085607 
L 72.562567 58.391153 
L 72.562567 49.085607 
L 77.026046 49.085607 
L 77.026046 61.885018 
L 71.617101 61.885018 
L 64.432658 52.579472 
L 64.432658 61.885018 
L 59.969178 61.885018 
L 59.969178 49.085607 
z
" style="fill: #7b3294"/>
   </g>
   <g id="text_28">
    <g id="patch_21">
     <path d="M 98.733288 195.660047 
L 142.079538 195.660047 
L 142.079538 125.977547 
L 98.733288 125.977547 
L 98.733288 195.660047 
z
" style="fill: none"/>
    </g>
    <path d="M 110.001925 179.434412 
Q 109.760061 179.45103 109.595155 179.456569 
Q 109.435745 179.462108 109.281831 179.462108 
Q 104.867824 179.462108 102.592109 178.485343 
Q 100.316394 177.50673 100.316394 175.597513 
Q 100.316394 173.68091 102.592109 172.700452 
Q 104.867824 171.719993 109.314813 171.719993 
Q 113.783789 171.719993 116.059504 172.700452 
Q 118.335219 173.68091 118.335219 175.597513 
Q 118.335219 176.912177 117.252331 177.798468 
Q 116.169442 178.684758 114.108106 179.065124 
L 117.301803 179.977265 
L 113.833261 180.726918 
L 110.001925 179.434412 
z
M 109.314813 173.045736 
Q 107.374409 173.045736 106.478415 173.649521 
Q 105.587917 174.253306 105.587917 175.597513 
Q 105.587917 176.936181 106.478415 177.539966 
Q 107.374409 178.141905 109.314813 178.141905 
Q 111.271708 178.141905 112.162205 177.539966 
Q 113.058199 176.936181 113.058199 175.597513 
Q 113.058199 174.253306 112.162205 173.649521 
Q 111.271708 173.045736 109.314813 173.045736 
z
" style="fill: #1d9649"/>
   </g>
   <g id="text_29">
    <g id="patch_22">
     <path d="M 98.733288 184.499484 
L 142.079538 184.499484 
L 142.079538 114.816984 
L 98.733288 114.816984 
L 98.733288 184.499484 
z
" style="fill: none"/>
    </g>
    <path d="M 99.33245 161.447422 
L 103.510091 161.447422 
L 105.241613 167.366202 
L 107.341427 163.540507 
L 111.310186 163.540507 
L 113.72882 167.366202 
L 115.103044 161.447422 
L 119.313667 161.447422 
L 116.532237 169.510783 
L 112.063261 169.510783 
L 109.314813 165.279761 
L 106.736769 169.510783 
L 102.322761 169.510783 
L 99.33245 161.447422 
z
" style="fill: #098c3d"/>
   </g>
   <g id="text_30">
    <g id="patch_23">
     <path d="M 98.733288 174.3066 
L 142.079538 174.3066 
L 142.079538 104.6241 
L 98.733288 104.6241 
L 98.733288 174.3066 
z
" style="fill: none"/>
    </g>
    <path d="M 100.211953 151.604895 
L 106.258539 151.604895 
L 109.314813 154.988159 
L 112.354596 151.604895 
L 118.434163 151.604895 
L 118.434163 159.318547 
L 114.075125 159.318547 
L 114.075125 153.139998 
L 111.359658 156.512138 
L 107.324937 156.512138 
L 104.576489 153.139998 
L 104.576489 159.318547 
L 100.211953 159.318547 
L 100.211953 151.604895 
z
" style="fill: #44aa62"/>
   </g>
   <g id="text_31">
    <g id="patch_24">
     <path d="M 98.733288 164.490035 
L 142.079538 164.490035 
L 142.079538 94.807535 
L 98.733288 94.807535 
L 98.733288 164.490035 
z
" style="fill: none"/>
    </g>
    <path d="M 101.08596 143.161729 
L 106.154098 143.161729 
L 106.154098 145.579152 
L 112.492019 145.579152 
L 112.492019 143.161729 
L 117.560157 143.161729 
L 117.560157 149.504525 
L 112.492019 149.504525 
L 112.492019 146.68202 
L 106.154098 146.68202 
L 106.154098 149.504525 
L 101.08596 149.504525 
L 101.08596 143.161729 
z
" style="fill: #44aa62"/>
   </g>
   <g id="text_32">
    <g id="patch_25">
     <path d="M 98.733288 156.148643 
L 142.079538 156.148643 
L 142.079538 86.466143 
L 98.733288 86.466143 
L 98.733288 156.148643 
z
" style="fill: none"/>
    </g>
    <path d="M 102.597606 141.164255 
L 102.597606 135.426954 
L 107.665744 135.426954 
L 107.665744 140.163124 
L 118.505623 140.163124 
L 118.505623 141.164255 
L 102.597606 141.164255 
z
" style="fill: #48ac64"/>
   </g>
   <g id="text_33">
    <g id="patch_26">
     <path d="M 98.733288 148.458822 
L 142.079538 148.458822 
L 142.079538 78.776322 
L 98.733288 78.776322 
L 98.733288 148.458822 
z
" style="fill: none"/>
    </g>
    <path d="M 117.835002 129.101999 
L 106.92916 129.101999 
L 106.92916 130.241424 
L 116.856554 130.241424 
L 116.856554 131.165841 
L 106.92916 131.165841 
L 106.92916 133.475249 
L 101.861022 133.475249 
L 101.861022 128.177581 
L 117.835002 128.177581 
L 117.835002 129.101999 
z
" style="fill: #46ab63"/>
   </g>
   <g id="text_34">
    <g id="patch_27">
     <path d="M 98.733288 141.242088 
L 142.079538 141.242088 
L 142.079538 71.559588 
L 98.733288 71.559588 
L 98.733288 141.242088 
z
" style="fill: none"/>
    </g>
    <path d="M 106.154098 122.549399 
L 106.154098 125.454209 
L 107.528322 125.454209 
Q 110.518633 125.454209 111.788416 125.122975 
Q 113.058199 124.790811 113.058199 123.997152 
Q 113.058199 123.209076 111.788416 122.879703 
Q 110.518633 122.549399 107.528322 122.549399 
L 106.154098 122.549399 
z
M 101.08596 121.743645 
L 106.516893 121.743645 
Q 112.799845 121.743645 115.564784 122.27213 
Q 118.335219 122.799685 118.335219 123.997152 
Q 118.335219 125.19834 115.564784 125.729617 
Q 112.799845 126.259964 106.516893 126.259964 
L 101.08596 126.259964 
L 101.08596 121.743645 
z
" style="fill: #59b46f"/>
   </g>
   <g id="text_35">
    <g id="patch_28">
     <path d="M 98.733288 134.866159 
L 142.079538 134.866159 
L 142.079538 65.183659 
L 98.733288 65.183659 
L 98.733288 134.866159 
z
" style="fill: none"/>
    </g>
    <path d="M 112.59646 117.797865 
Q 113.349534 117.823364 113.910218 117.920805 
Q 114.470901 118.017337 115.273448 118.29327 
L 119.912828 119.884213 
L 114.34997 119.884213 
L 111.255217 118.768641 
Q 111.117795 118.719464 110.897919 118.637504 
Q 109.540186 118.136635 107.698725 118.136635 
L 106.088135 118.136635 
L 106.088135 119.884213 
L 101.019997 119.884213 
L 101.019997 115.463814 
L 108.336365 115.463814 
Q 113.283572 115.463814 115.438355 115.766157 
Q 117.593138 116.067589 117.593138 116.750593 
Q 117.593138 117.205928 116.306864 117.475487 
Q 115.020591 117.744135 112.59646 117.797865 
z
M 106.088135 116.198726 
L 106.088135 117.402633 
L 108.473788 117.402633 
Q 110.551614 117.402633 111.453105 117.263301 
Q 112.354596 117.123057 112.354596 116.798858 
Q 112.354596 116.477391 111.458602 116.338058 
Q 110.568105 116.198726 108.473788 116.198726 
L 106.088135 116.198726 
z
" style="fill: #955daa"/>
   </g>
   <g id="text_36">
    <g id="patch_29">
     <path d="M 98.733288 128.59345 
L 142.079538 128.59345 
L 142.079538 58.91095 
L 98.733288 58.91095 
L 98.733288 128.59345 
z
" style="fill: none"/>
    </g>
    <path d="M 98.870711 109.703626 
L 104.334625 109.703626 
L 109.314813 111.273921 
L 114.311491 109.703626 
L 119.775406 109.703626 
L 111.859876 112.071953 
L 111.859876 113.612452 
L 106.791738 113.612452 
L 106.791738 112.071953 
L 98.870711 109.703626 
z
" style="fill: #5db672"/>
   </g>
   <g id="text_37">
    <g id="patch_30">
     <path d="M 98.733288 122.871242 
L 142.079538 122.871242 
L 142.079538 53.188742 
L 98.733288 53.188742 
L 98.733288 122.871242 
z
" style="fill: none"/>
    </g>
    <path d="M 100.745152 105.879351 
L 105.81329 105.879351 
L 105.81329 106.675734 
L 113.745311 105.879351 
L 119.48407 105.879351 
L 111.39264 106.673244 
L 119.775406 107.893757 
L 114.141087 107.893757 
L 108.061521 106.986984 
L 105.81329 107.211498 
L 105.81329 107.893757 
L 100.745152 107.893757 
L 100.745152 105.879351 
z
" style="fill: #b590c4"/>
   </g>
   <g id="text_38">
    <g id="patch_31">
     <path d="M 98.733288 119.187611 
L 142.079538 119.187611 
L 142.079538 49.505111 
L 98.733288 49.505111 
L 98.733288 119.187611 
z
" style="fill: none"/>
    </g>
    <path d="M 113.71233 103.993297 
L 113.71233 103.784021 
L 110.243788 103.784021 
L 110.243788 103.601785 
L 118.142828 103.601785 
L 118.142828 104.104285 
Q 116.68615 104.157897 114.921647 104.185644 
Q 113.16264 104.213156 111.150776 104.213156 
Q 106.170588 104.213156 103.455122 104.065016 
Q 100.745152 103.916876 100.745152 103.644346 
Q 100.745152 103.367348 103.482606 103.22109 
Q 106.225557 103.074831 111.39264 103.074831 
Q 112.937267 103.074831 114.432423 103.093642 
Q 115.927579 103.112454 117.23584 103.147725 
L 117.23584 103.387806 
Q 116.169442 103.32902 114.784224 103.299392 
Q 113.404503 103.269529 111.755435 103.269529 
Q 108.869564 103.269529 107.440371 103.362645 
Q 106.016675 103.455527 106.016675 103.644346 
Q 106.016675 103.827287 107.390899 103.92299 
Q 108.765123 104.018458 111.39264 104.018458 
Q 112.184193 104.018458 112.766864 104.012344 
Q 113.349534 104.005995 113.71233 103.993297 
z
" style="fill: #b5bdb9"/>
   </g>
   <g id="text_39">
    <g id="patch_32">
     <path d="M 98.733288 116.624337 
L 142.079538 116.624337 
L 142.079538 46.941837 
L 98.733288 46.941837 
L 98.733288 116.624337 
z
" style="fill: none"/>
    </g>
    <path d="M 109.314813 101.650587 
L 113.833261 101.650587 
L 118.934381 101.650587 
L 112.838323 101.650587 
L 105.81329 101.650587 
L 99.711736 101.650587 
L 104.812855 101.650587 
L 109.314813 101.650587 
z
" style="fill: #b3c0b7"/>
   </g>
   <g id="text_40">
    <g id="patch_33">
     <path d="M 98.733288 116.618617 
L 142.079538 116.618617 
L 142.079538 46.936117 
L 98.733288 46.936117 
L 98.733288 116.618617 
z
" style="fill: none"/>
    </g>
    <path d="M 107.49534 101.642778 
Q 103.664004 101.642519 102.306271 101.642236 
Q 100.948537 101.641952 100.948537 101.641472 
Q 100.948537 101.640856 103.180277 101.640504 
Q 105.417514 101.640151 109.314813 101.640151 
Q 111.084813 101.640151 112.854814 101.640223 
Q 114.624814 101.640294 116.356337 101.640433 
L 116.356337 101.641308 
Q 114.723758 101.641104 113.041708 101.640999 
Q 111.359658 101.640892 109.710589 101.640892 
Q 107.874626 101.640892 106.890682 101.641023 
Q 105.912234 101.641153 105.912234 101.641396 
Q 105.912234 101.641585 106.626831 101.641708 
Q 107.341427 101.64183 109.606148 101.641979 
L 111.788416 101.642125 
Q 114.883168 101.642325 116.339846 101.642656 
Q 117.80202 101.642988 117.80202 101.643491 
Q 117.80202 101.644178 115.504318 101.644516 
Q 113.212112 101.644854 108.578229 101.644854 
Q 106.670806 101.644854 104.752389 101.644775 
Q 102.839469 101.644694 101.052978 101.644536 
L 101.052978 101.64361 
Q 103.081333 101.643865 104.977762 101.64399 
Q 106.874191 101.644114 108.732142 101.644114 
Q 110.601087 101.644114 111.629006 101.643964 
Q 112.662422 101.643814 112.662422 101.643543 
Q 112.662422 101.643339 111.97531 101.643186 
Q 111.288199 101.643032 109.985434 101.642945 
L 107.49534 101.642778 
z
" style="fill: #b9b6c0"/>
   </g>
   <g id="text_41">
    <g id="patch_34">
     <path d="M 98.733288 116.370702 
L 142.079538 116.370702 
L 142.079538 46.688202 
L 98.733288 46.688202 
L 98.733288 116.370702 
z
" style="fill: none"/>
    </g>
    <path d="M 109.314813 101.232172 
L 106.92916 101.3145 
L 111.722453 101.3145 
L 109.314813 101.232172 
z
M 106.225557 101.195797 
L 112.426056 101.195797 
L 119.346648 101.396952 
L 114.27851 101.396952 
L 112.700901 101.347159 
L 105.912234 101.347159 
L 104.367607 101.396952 
L 99.299469 101.396952 
L 106.225557 101.195797 
z
" style="fill: #c0a8cb"/>
   </g>
   <g id="text_42">
    <g id="patch_35">
     <path d="M 98.733288 114.516809 
L 142.079538 114.516809 
L 142.079538 44.834309 
L 98.733288 44.834309 
L 98.733288 114.516809 
z
" style="fill: none"/>
    </g>
    <path d="M 111.859876 99.537419 
L 106.791738 99.537419 
L 106.791738 97.020966 
L 100.277916 97.020966 
L 100.277916 96.49587 
L 118.3682 96.49587 
L 118.3682 97.020966 
L 111.859876 97.020966 
L 111.859876 99.537419 
z
" style="fill: #b794c6"/>
   </g>
   <g id="text_43">
    <g id="patch_36">
     <path d="M 98.733288 109.61244 
L 142.079538 109.61244 
L 142.079538 39.92994 
L 98.733288 39.92994 
L 98.733288 109.61244 
z
" style="fill: none"/>
    </g>
    <path d="M 101.690618 89.903457 
L 101.690618 88.904766 
L 116.960995 88.904766 
L 116.960995 89.903457 
L 111.859876 89.903457 
L 111.859876 93.629387 
L 116.960995 93.629387 
L 116.960995 94.628078 
L 101.690618 94.628078 
L 101.690618 93.629387 
L 106.791738 93.629387 
L 106.791738 89.903457 
L 101.690618 89.903457 
z
" style="fill: #c1a6cd"/>
   </g>
   <g id="text_44">
    <g id="patch_37">
     <path d="M 139.542243 147.570062 
L 182.888493 147.570062 
L 182.888493 77.887562 
L 139.542243 77.887562 
L 139.542243 147.570062 
z
" style="fill: none"/>
    </g>
    <path d="M 140.141405 126.403921 
L 144.319046 126.403921 
L 146.050568 130.940933 
L 148.150382 128.008366 
L 152.119141 128.008366 
L 154.537776 130.940933 
L 155.911999 126.403921 
L 160.122622 126.403921 
L 157.341192 132.584852 
L 152.872216 132.584852 
L 150.123768 129.341582 
L 147.545724 132.584852 
L 143.131716 132.584852 
L 140.141405 126.403921 
z
" style="fill: #52b16a"/>
   </g>
   <g id="text_45">
    <g id="patch_38">
     <path d="M 139.542243 139.402853 
L 182.888493 139.402853 
L 182.888493 69.720353 
L 139.542243 69.720353 
L 139.542243 139.402853 
z
" style="fill: none"/>
    </g>
    <path d="M 139.679666 118.819305 
L 145.14358 118.819305 
L 150.123768 121.068761 
L 155.120446 118.819305 
L 160.584361 118.819305 
L 152.668831 122.211946 
L 152.668831 124.418721 
L 147.600693 124.418721 
L 147.600693 122.211946 
L 139.679666 118.819305 
z
" style="fill: #46ab63"/>
   </g>
   <g id="text_46">
    <g id="patch_39">
     <path d="M 139.542243 131.861409 
L 182.888493 131.861409 
L 182.888493 62.178909 
L 139.542243 62.178909 
L 139.542243 131.861409 
z
" style="fill: none"/>
    </g>
    <path d="M 158.643957 114.356326 
L 147.738115 114.356326 
L 147.738115 115.014372 
L 157.665509 115.014372 
L 157.665509 115.548246 
L 147.738115 115.548246 
L 147.738115 116.881986 
L 142.669977 116.881986 
L 142.669977 113.822452 
L 158.643957 113.822452 
L 158.643957 114.356326 
z
" style="fill: #79c483"/>
   </g>
   <g id="text_47">
    <g id="patch_40">
     <path d="M 139.542243 127.05312 
L 182.888493 127.05312 
L 182.888493 57.37062 
L 139.542243 57.37062 
L 139.542243 127.05312 
z
" style="fill: none"/>
    </g>
    <path d="M 141.587089 109.650811 
L 147.034513 109.650811 
L 154.180477 111.413177 
L 154.180477 109.650811 
L 158.643957 109.650811 
L 158.643957 112.074875 
L 153.235011 112.074875 
L 146.050568 110.31251 
L 146.050568 112.074875 
L 141.587089 112.074875 
L 141.587089 109.650811 
z
" style="fill: #48ac64"/>
   </g>
   <g id="text_48">
    <g id="patch_41">
     <path d="M 139.542243 122.928658 
L 182.888493 122.928658 
L 182.888493 53.246158 
L 139.542243 53.246158 
L 139.542243 122.928658 
z
" style="fill: none"/>
    </g>
    <path d="M 158.402093 107.950735 
L 142.428114 107.950735 
L 142.428114 105.700526 
L 158.402093 105.700526 
L 158.402093 106.093177 
L 147.496252 106.093177 
L 147.496252 106.577153 
L 157.374174 106.577153 
L 157.374174 106.969804 
L 147.496252 106.969804 
L 147.496252 107.558084 
L 158.402093 107.558084 
L 158.402093 107.950735 
z
" style="fill: #88cc8d"/>
   </g>
   <g id="text_49">
    <g id="patch_42">
     <path d="M 139.542243 118.99128 
L 182.888493 118.99128 
L 182.888493 49.30878 
L 139.542243 49.30878 
L 139.542243 118.99128 
z
" style="fill: none"/>
    </g>
    <path d="M 150.123768 103.865729 
L 154.642217 103.105034 
L 159.743336 103.105034 
L 153.647278 104.015841 
L 146.622245 104.015841 
L 140.520691 103.105034 
L 145.62181 103.105034 
L 150.123768 103.865729 
z
" style="fill: #aecaae"/>
   </g>
   <g id="text_50">
    <g id="patch_43">
     <path d="M 139.542243 116.945822 
L 182.888493 116.945822 
L 182.888493 47.263322 
L 139.542243 47.263322 
L 139.542243 116.945822 
z
" style="fill: none"/>
    </g>
    <path d="M 146.963053 101.854194 
L 146.963053 101.946267 
L 148.337277 101.946267 
Q 151.327588 101.946267 152.597371 101.935768 
Q 153.867154 101.925239 153.867154 101.900083 
Q 153.867154 101.875104 152.597371 101.864664 
Q 151.327588 101.854194 148.337277 101.854194 
L 146.963053 101.854194 
z
M 141.894915 101.828655 
L 147.325848 101.828655 
Q 153.6088 101.828655 156.373739 101.845406 
Q 159.144174 101.862128 159.144174 101.900083 
Q 159.144174 101.938156 156.373739 101.954996 
Q 153.6088 101.971806 147.325848 101.971806 
L 141.894915 101.971806 
L 141.894915 101.828655 
z
" style="fill: #b2c2b5"/>
   </g>
   <g id="text_51">
    <g id="patch_44">
     <path d="M 139.542243 116.624337 
L 182.888493 116.624337 
L 182.888493 46.941837 
L 139.542243 46.941837 
L 139.542243 116.624337 
z
" style="fill: none"/>
    </g>
    <path d="M 152.668831 101.650587 
L 147.600693 101.650587 
L 147.600693 101.650587 
L 141.086871 101.650587 
L 141.086871 101.650587 
L 159.177156 101.650587 
L 159.177156 101.650587 
L 152.668831 101.650587 
L 152.668831 101.650587 
z
" style="fill: #b3c0b7"/>
   </g>
   <g id="text_52">
    <g id="patch_45">
     <path d="M 139.542243 116.28085 
L 182.888493 116.28085 
L 182.888493 46.59835 
L 139.542243 46.59835 
L 139.542243 116.28085 
z
" style="fill: none"/>
    </g>
    <path d="M 154.521285 101.252366 
L 154.521285 101.200433 
L 151.052744 101.200433 
L 151.052744 101.155211 
L 158.951783 101.155211 
L 158.951783 101.279908 
Q 157.495106 101.293212 155.730602 101.300098 
Q 153.971595 101.306925 151.959731 101.306925 
Q 146.979544 101.306925 144.264077 101.270163 
Q 141.554107 101.233402 141.554107 101.165772 
Q 141.554107 101.097034 144.291562 101.060739 
Q 147.034513 101.024445 152.201595 101.024445 
Q 153.746222 101.024445 155.241378 101.029113 
Q 156.736534 101.033781 158.044795 101.042534 
L 158.044795 101.102111 
Q 156.978397 101.087523 155.59318 101.08017 
Q 154.213459 101.07276 152.56439 101.07276 
Q 149.67852 101.07276 148.249327 101.095867 
Q 146.825631 101.118916 146.825631 101.165772 
Q 146.825631 101.21117 148.199855 101.234919 
Q 149.574079 101.25861 152.201595 101.25861 
Q 152.993148 101.25861 153.575819 101.257093 
Q 154.15849 101.255517 154.521285 101.252366 
z
" style="fill: #beabc8"/>
   </g>
   <g id="text_53">
    <g id="patch_46">
     <path d="M 139.542243 115.117455 
L 182.888493 115.117455 
L 182.888493 45.434955 
L 139.542243 45.434955 
L 139.542243 115.117455 
z
" style="fill: none"/>
    </g>
    <path d="M 148.304296 99.825654 
Q 144.472959 99.786304 143.115226 99.743109 
Q 141.757493 99.699913 141.757493 99.626835 
Q 141.757493 99.533047 143.989232 99.479496 
Q 146.226469 99.425797 150.123768 99.425797 
Q 151.893769 99.425797 153.663769 99.436744 
Q 155.43377 99.447543 157.165292 99.468697 
L 157.165292 99.601835 
Q 155.532714 99.570917 153.850664 99.554793 
Q 152.168613 99.538521 150.519545 99.538521 
Q 148.683581 99.538521 147.699637 99.558491 
Q 146.72119 99.578314 146.72119 99.615297 
Q 146.72119 99.643995 147.435786 99.662782 
Q 148.150382 99.681422 150.415104 99.704055 
L 152.597371 99.726245 
Q 155.692124 99.756718 157.148801 99.807163 
Q 158.610975 99.857607 158.610975 99.934235 
Q 158.610975 100.038822 156.313273 100.090302 
Q 154.021067 100.141782 149.387184 100.141782 
Q 147.479761 100.141782 145.561344 100.129651 
Q 143.648425 100.117373 141.861934 100.09326 
L 141.861934 99.952283 
Q 143.890288 99.991188 145.786717 100.010123 
Q 147.683146 100.029059 149.541097 100.029059 
Q 151.410042 100.029059 152.437961 100.006277 
Q 153.471378 99.983348 153.471378 99.942075 
Q 153.471378 99.911158 152.784266 99.887785 
Q 152.097154 99.864412 150.794389 99.851098 
L 148.304296 99.825654 
z
" style="fill: #b9b4c1"/>
   </g>
   <g id="text_54">
    <g id="patch_47">
     <path d="M 139.542243 113.422658 
L 182.888493 113.422658 
L 182.888493 43.740158 
L 139.542243 43.740158 
L 139.542243 113.422658 
z
" style="fill: none"/>
    </g>
    <path d="M 153.405415 98.076544 
Q 154.15849 98.081077 154.719173 98.0984 
Q 155.279856 98.115561 156.082403 98.164616 
L 160.721783 98.447451 
L 155.158925 98.447451 
L 152.064172 98.249127 
Q 151.92675 98.240384 151.706874 98.225813 
Q 150.349141 98.13677 148.507681 98.13677 
L 146.89709 98.13677 
L 146.89709 98.447451 
L 141.828952 98.447451 
L 141.828952 97.661602 
L 149.145321 97.661602 
Q 154.092527 97.661602 156.24731 97.715352 
Q 158.402093 97.76894 158.402093 97.890363 
Q 158.402093 97.971311 157.11582 98.019233 
Q 155.829546 98.066992 153.405415 98.076544 
z
M 146.89709 97.792253 
L 146.89709 98.006281 
L 149.282743 98.006281 
Q 151.36057 98.006281 152.262061 97.981511 
Q 153.163552 97.956578 153.163552 97.898943 
Q 153.163552 97.841793 152.267557 97.817023 
Q 151.37706 97.792253 149.282743 97.792253 
L 146.89709 97.792253 
z
" style="fill: #bab2c2"/>
   </g>
   <g id="text_55">
    <g id="patch_48">
     <path d="M 139.542243 111.280083 
L 182.888493 111.280083 
L 182.888493 41.597583 
L 139.542243 41.597583 
L 139.542243 111.280083 
z
" style="fill: none"/>
    </g>
    <path d="M 150.81088 96.153059 
Q 150.569017 96.155094 150.40411 96.155772 
Q 150.2447 96.15645 150.090787 96.15645 
Q 145.676779 96.15645 143.401064 96.03686 
Q 141.125349 95.917044 141.125349 95.68329 
Q 141.125349 95.448631 143.401064 95.328589 
Q 145.676779 95.208546 150.123768 95.208546 
Q 154.592744 95.208546 156.868459 95.328589 
Q 159.144174 95.448631 159.144174 95.68329 
Q 159.144174 95.84425 158.061286 95.952763 
Q 156.978397 96.061275 154.917061 96.107846 
L 158.110758 96.219523 
L 154.642217 96.311307 
L 150.81088 96.153059 
z
M 150.123768 95.370863 
Q 148.183364 95.370863 147.28737 95.444788 
Q 146.396873 95.518712 146.396873 95.68329 
Q 146.396873 95.847189 147.28737 95.921113 
Q 148.183364 95.994811 150.123768 95.994811 
Q 152.080663 95.994811 152.97116 95.921113 
Q 153.867154 95.847189 153.867154 95.68329 
Q 153.867154 95.518712 152.97116 95.444788 
Q 152.080663 95.370863 150.123768 95.370863 
z
" style="fill: #c0a2cd"/>
   </g>
   <g id="text_56">
    <g id="patch_49">
     <path d="M 139.542243 108.558199 
L 182.888493 108.558199 
L 182.888493 38.875699 
L 139.542243 38.875699 
L 139.542243 108.558199 
z
" style="fill: none"/>
    </g>
    <path d="M 141.020908 91.900649 
L 147.067494 91.900649 
L 150.123768 92.637809 
L 153.163552 91.900649 
L 159.243118 91.900649 
L 159.243118 93.581333 
L 154.88408 93.581333 
L 154.88408 92.235123 
L 152.168613 92.96986 
L 148.133892 92.96986 
L 145.385444 92.235123 
L 145.385444 93.581333 
L 141.020908 93.581333 
L 141.020908 91.900649 
z
" style="fill: #c1a5ce"/>
   </g>
   <g id="text_57">
    <g id="patch_50">
     <path d="M 139.542243 105.21803 
L 182.888493 105.21803 
L 182.888493 35.53553 
L 139.542243 35.53553 
L 139.542243 105.21803 
z
" style="fill: none"/>
    </g>
    <path d="M 142.499573 88.552843 
L 142.499573 88.196108 
L 157.76995 88.196108 
L 157.76995 88.552843 
L 152.668831 88.552843 
L 152.668831 89.883754 
L 157.76995 89.883754 
L 157.76995 90.240489 
L 142.499573 90.240489 
L 142.499573 89.883754 
L 147.600693 89.883754 
L 147.600693 88.552843 
L 142.499573 88.552843 
z
" style="fill: #bdaec6"/>
   </g>
   <g id="text_58">
    <g id="patch_51">
     <path d="M 139.542243 101.485542 
L 182.888493 101.485542 
L 182.888493 31.803042 
L 139.542243 31.803042 
L 139.542243 101.485542 
z
" style="fill: none"/>
    </g>
    <path d="M 150.123768 84.513776 
L 147.738115 85.512033 
L 152.531409 85.512033 
L 150.123768 84.513776 
z
M 147.034513 84.072721 
L 153.235011 84.072721 
L 160.155603 86.511792 
L 155.087465 86.511792 
L 153.509856 85.908032 
L 146.72119 85.908032 
L 145.176562 86.511792 
L 140.108424 86.511792 
L 147.034513 84.072721 
z
" style="fill: #bbb1c4"/>
   </g>
   <g id="text_59">
    <g id="patch_52">
     <path d="M 139.542243 97.354112 
L 182.888493 97.354112 
L 182.888493 27.671612 
L 139.542243 27.671612 
L 139.542243 97.354112 
z
" style="fill: none"/>
    </g>
    <path d="M 141.894915 79.933785 
L 146.963053 79.933785 
L 146.963053 80.864521 
L 153.300974 80.864521 
L 153.300974 79.933785 
L 158.369112 79.933785 
L 158.369112 82.375834 
L 153.300974 82.375834 
L 153.300974 81.289137 
L 146.963053 81.289137 
L 146.963053 82.375834 
L 141.894915 82.375834 
L 141.894915 79.933785 
z
" style="fill: #bbb1c3"/>
   </g>
   <g id="text_60">
    <g id="patch_53">
     <path d="M 139.542243 93.177782 
L 182.888493 93.177782 
L 182.888493 23.495282 
L 139.542243 23.495282 
L 139.542243 93.177782 
z
" style="fill: none"/>
    </g>
    <path d="M 143.406561 78.198104 
L 143.406561 75.000684 
L 148.474699 75.000684 
L 148.474699 77.640169 
L 159.314578 77.640169 
L 159.314578 78.198104 
L 143.406561 78.198104 
z
" style="fill: #c1a6cd"/>
   </g>
   <g id="text_61">
    <g id="patch_54">
     <path d="M 139.542243 88.007108 
L 182.888493 88.007108 
L 182.888493 18.324608 
L 139.542243 18.324608 
L 139.542243 88.007108 
z
" style="fill: none"/>
    </g>
    <path d="M 141.554107 64.848939 
L 146.622245 64.848939 
L 146.622245 68.078612 
L 154.554266 64.848939 
L 160.293026 64.848939 
L 152.201595 68.068514 
L 160.584361 73.018211 
L 154.950043 73.018211 
L 148.870476 69.340861 
L 146.622245 70.251363 
L 146.622245 73.018211 
L 141.554107 73.018211 
L 141.554107 64.848939 
z
" style="fill: #7c3495"/>
   </g>
   <g id="text_62">
    <g id="patch_55">
     <path d="M 180.351199 119.118798 
L 223.697449 119.118798 
L 223.697449 49.436298 
L 180.351199 49.436298 
L 180.351199 119.118798 
z
" style="fill: none"/>
    </g>
    <path d="M 189.113251 103.653064 
Q 185.281914 103.592195 183.924181 103.525377 
Q 182.566448 103.458559 182.566448 103.345517 
Q 182.566448 103.200439 184.798187 103.117602 
Q 187.035424 103.034537 190.932723 103.034537 
Q 192.702724 103.034537 194.472724 103.05147 
Q 196.242725 103.068175 197.974247 103.100898 
L 197.974247 103.306844 
Q 196.341669 103.259019 194.659619 103.234077 
Q 192.977569 103.208905 191.3285 103.208905 
Q 189.492537 103.208905 188.508592 103.239797 
Q 187.530145 103.270461 187.530145 103.327668 
Q 187.530145 103.372061 188.244741 103.401122 
Q 188.959338 103.429955 191.224059 103.464966 
L 193.406326 103.49929 
Q 196.501079 103.546429 197.957756 103.62446 
Q 199.419931 103.702491 199.419931 103.821025 
Q 199.419931 103.982808 197.122228 104.062441 
Q 194.830023 104.142074 190.196139 104.142074 
Q 188.288716 104.142074 186.3703 104.123309 
Q 184.45738 104.104317 182.670889 104.067017 
L 182.670889 103.848942 
Q 184.699243 103.909125 186.595672 103.938415 
Q 188.492102 103.967705 190.350052 103.967705 
Q 192.218997 103.967705 193.246916 103.932465 
Q 194.280333 103.896997 194.280333 103.833153 
Q 194.280333 103.785328 193.593221 103.749173 
Q 192.906109 103.713017 191.603345 103.692423 
L 189.113251 103.653064 
z
" style="fill: #aad2a7"/>
   </g>
   <g id="text_63">
    <g id="patch_56">
     <path d="M 180.351199 116.624337 
L 223.697449 116.624337 
L 223.697449 46.941837 
L 180.351199 46.941837 
L 180.351199 116.624337 
z
" style="fill: none"/>
    </g>
    <path d="M 195.33024 101.650587 
L 195.33024 101.650587 
L 191.861699 101.650587 
L 191.861699 101.650587 
L 199.760738 101.650587 
L 199.760738 101.650587 
Q 198.304061 101.650587 196.539557 101.650587 
Q 194.78055 101.650587 192.768687 101.650587 
Q 187.788499 101.650587 185.073032 101.650587 
Q 182.363063 101.650587 182.363063 101.650587 
Q 182.363063 101.650587 185.100517 101.650587 
Q 187.843468 101.650587 193.01055 101.650587 
Q 194.555178 101.650587 196.050333 101.650587 
Q 197.545489 101.650587 198.85375 101.650587 
L 198.85375 101.650587 
Q 197.787353 101.650587 196.402135 101.650587 
Q 195.022414 101.650587 193.373345 101.650587 
Q 190.487475 101.650587 189.058282 101.650587 
Q 187.634586 101.650587 187.634586 101.650587 
Q 187.634586 101.650587 189.00881 101.650587 
Q 190.383034 101.650587 193.01055 101.650587 
Q 193.802103 101.650587 194.384774 101.650587 
Q 194.967445 101.650587 195.33024 101.650587 
z
" style="fill: #b3c0b7"/>
   </g>
   <g id="text_64">
    <g id="patch_57">
     <path d="M 180.351199 116.336937 
L 223.697449 116.336937 
L 223.697449 46.654437 
L 180.351199 46.654437 
L 180.351199 116.336937 
z
" style="fill: none"/>
    </g>
    <path d="M 190.932723 101.168332 
L 188.54707 101.265686 
L 193.340364 101.265686 
L 190.932723 101.168332 
z
M 187.843468 101.125318 
L 194.043966 101.125318 
L 200.964558 101.363187 
L 195.89642 101.363187 
L 194.318811 101.304305 
L 187.530145 101.304305 
L 185.985517 101.363187 
L 180.917379 101.363187 
L 187.843468 101.125318 
z
" style="fill: #b8b7be"/>
   </g>
   <g id="text_65">
    <g id="patch_58">
     <path d="M 180.351199 115.640285 
L 223.697449 115.640285 
L 223.697449 45.957785 
L 180.351199 45.957785 
L 180.351199 115.640285 
z
" style="fill: none"/>
    </g>
    <path d="M 181.829864 100.293268 
L 187.876449 100.293268 
L 190.932723 100.456683 
L 193.972507 100.293268 
L 200.052074 100.293268 
L 200.052074 100.665844 
L 195.693035 100.665844 
L 195.693035 100.367415 
L 192.977569 100.530292 
L 188.942847 100.530292 
L 186.194399 100.367415 
L 186.194399 100.665844 
L 181.829864 100.665844 
L 181.829864 100.293268 
z
" style="fill: #b7b8bd"/>
   </g>
   <g id="text_66">
    <g id="patch_59">
     <path d="M 180.351199 114.301456 
L 223.697449 114.301456 
L 223.697449 44.618956 
L 180.351199 44.618956 
L 180.351199 114.301456 
z
" style="fill: none"/>
    </g>
    <path d="M 182.396044 98.539633 
L 187.843468 98.539633 
L 194.989432 99.111525 
L 194.989432 98.539633 
L 199.452912 98.539633 
L 199.452912 99.326248 
L 194.043966 99.326248 
L 186.859523 98.754356 
L 186.859523 99.326248 
L 182.396044 99.326248 
L 182.396044 98.539633 
z
" style="fill: #b3c0b7"/>
   </g>
   <g id="text_67">
    <g id="patch_60">
     <path d="M 180.351199 112.21499 
L 223.697449 112.21499 
L 223.697449 42.53249 
L 180.351199 42.53249 
L 180.351199 112.21499 
z
" style="fill: none"/>
    </g>
    <path d="M 191.619835 97.09452 
Q 191.377972 97.096467 191.213065 97.097116 
Q 191.053655 97.097766 190.899742 97.097766 
Q 186.485735 97.097766 184.21002 96.983289 
Q 181.934305 96.868596 181.934305 96.644836 
Q 181.934305 96.420211 184.21002 96.305301 
Q 186.485735 96.190392 190.932723 96.190392 
Q 195.4017 96.190392 197.677415 96.305301 
Q 199.95313 96.420211 199.95313 96.644836 
Q 199.95313 96.798914 198.870241 96.902787 
Q 197.787353 97.00666 195.726017 97.051239 
L 198.919713 97.158142 
L 195.451172 97.246001 
L 191.619835 97.09452 
z
M 190.932723 96.345768 
Q 188.992319 96.345768 188.096325 96.416532 
Q 187.205828 96.487295 187.205828 96.644836 
Q 187.205828 96.801728 188.096325 96.872491 
Q 188.992319 96.943038 190.932723 96.943038 
Q 192.889618 96.943038 193.780115 96.872491 
Q 194.676109 96.801728 194.676109 96.644836 
Q 194.676109 96.487295 193.780115 96.416532 
Q 192.889618 96.345768 190.932723 96.345768 
z
" style="fill: #bcafc6"/>
   </g>
   <g id="text_68">
    <g id="patch_61">
     <path d="M 180.351199 109.432336 
L 223.697449 109.432336 
L 223.697449 39.749836 
L 180.351199 39.749836 
L 180.351199 109.432336 
z
" style="fill: none"/>
    </g>
    <path d="M 182.70387 90.232196 
L 187.772008 90.232196 
L 187.772008 91.840015 
L 194.109929 91.840015 
L 194.109929 90.232196 
L 199.178067 90.232196 
L 199.178067 94.450764 
L 194.109929 94.450764 
L 194.109929 92.573527 
L 187.772008 92.573527 
L 187.772008 94.450764 
L 182.70387 94.450764 
L 182.70387 90.232196 
z
" style="fill: #bd9ecb"/>
   </g>
   <g id="text_69">
    <g id="patch_62">
     <path d="M 180.351199 103.23231 
L 223.697449 103.23231 
L 223.697449 33.54981 
L 180.351199 33.54981 
L 180.351199 103.23231 
z
" style="fill: none"/>
    </g>
    <path d="M 187.772008 82.020335 
L 187.772008 86.892924 
L 189.146232 86.892924 
Q 192.136544 86.892924 193.406326 86.337305 
Q 194.676109 85.780126 194.676109 84.448826 
Q 194.676109 83.12689 193.406326 82.574393 
Q 192.136544 82.020335 189.146232 82.020335 
L 187.772008 82.020335 
z
M 182.70387 80.668746 
L 188.134803 80.668746 
Q 194.417755 80.668746 197.182694 81.555238 
Q 199.95313 82.44017 199.95313 84.448826 
Q 199.95313 86.463724 197.182694 87.354899 
Q 194.417755 88.244513 188.134803 88.244513 
L 182.70387 88.244513 
L 182.70387 80.668746 
z
" style="fill: #9d69b0"/>
   </g>
   <g id="text_70">
    <g id="patch_63">
     <path d="M 221.160154 131.383139 
L 264.506404 131.383139 
L 264.506404 61.700639 
L 221.160154 61.700639 
L 221.160154 131.383139 
z
" style="fill: none"/>
    </g>
    <path d="M 229.009721 109.611535 
L 229.009721 111.999835 
L 231.087548 111.999835 
Q 233.577642 111.999835 234.583574 111.733351 
Q 235.589506 111.465191 235.589506 110.804847 
Q 235.589506 110.144503 234.583574 109.878019 
Q 233.577642 109.611535 231.087548 109.611535 
L 229.009721 109.611535 
z
M 223.941583 108.259004 
L 230.900653 108.259004 
Q 236.210655 108.259004 238.535842 108.859012 
Q 240.861029 109.459019 240.861029 110.804847 
Q 240.861029 112.150674 238.535842 112.750682 
Q 236.210655 113.35069 230.900653 113.35069 
L 229.009721 113.35069 
L 229.009721 116.394305 
L 223.941583 116.394305 
L 223.941583 108.259004 
z
" style="fill: #c2a5cf"/>
   </g>
   <g id="text_71">
    <g id="patch_64">
     <path d="M 221.160154 121.11284 
L 264.506404 121.11284 
L 264.506404 51.43034 
L 221.160154 51.43034 
L 221.160154 121.11284 
z
" style="fill: none"/>
    </g>
    <path d="M 234.286741 106.137664 
L 229.218603 106.137664 
L 229.218603 105.501191 
L 222.704782 105.501191 
L 222.704782 105.368381 
L 240.795066 105.368381 
L 240.795066 105.501191 
L 234.286741 105.501191 
L 234.286741 106.137664 
z
" style="fill: #afc9af"/>
   </g>
   <g id="text_72">
    <g id="patch_65">
     <path d="M 221.160154 119.385211 
L 264.506404 119.385211 
L 264.506404 49.702711 
L 221.160154 49.702711 
L 221.160154 119.385211 
z
" style="fill: none"/>
    </g>
    <path d="M 224.117484 104.042839 
L 224.117484 103.965094 
L 239.387861 103.965094 
L 239.387861 104.042839 
L 234.286741 104.042839 
L 234.286741 104.33289 
L 239.387861 104.33289 
L 239.387861 104.410635 
L 224.117484 104.410635 
L 224.117484 104.33289 
L 229.218603 104.33289 
L 229.218603 104.042839 
L 224.117484 104.042839 
z
" style="fill: #a6d9a1"/>
   </g>
   <g id="text_73">
    <g id="patch_66">
     <path d="M 221.160154 118.384631 
L 264.506404 118.384631 
L 264.506404 48.702131 
L 221.160154 48.702131 
L 221.160154 118.384631 
z
" style="fill: none"/>
    </g>
    <path d="M 235.023325 103.221864 
Q 235.7764 103.224165 236.337084 103.232958 
Q 236.897767 103.241669 237.700314 103.26657 
L 242.339694 103.410141 
L 236.776835 103.410141 
L 233.682083 103.309469 
Q 233.54466 103.305031 233.324785 103.297635 
Q 231.967051 103.252435 230.125591 103.252435 
L 228.515001 103.252435 
L 228.515001 103.410141 
L 223.446863 103.410141 
L 223.446863 103.011233 
L 230.763231 103.011233 
Q 235.710437 103.011233 237.865221 103.038517 
Q 240.020004 103.065719 240.020004 103.127355 
Q 240.020004 103.168446 238.73373 103.192771 
Q 237.447456 103.217015 235.023325 103.221864 
z
M 228.515001 103.077553 
L 228.515001 103.186197 
L 230.900653 103.186197 
Q 232.97848 103.186197 233.879971 103.173623 
Q 234.781462 103.160967 234.781462 103.131711 
Q 234.781462 103.102701 233.885468 103.090127 
Q 232.994971 103.077553 230.900653 103.077553 
L 228.515001 103.077553 
z
" style="fill: #adccac"/>
   </g>
   <g id="text_74">
    <g id="patch_67">
     <path d="M 221.160154 117.488775 
L 264.506404 117.488775 
L 264.506404 47.806275 
L 221.160154 47.806275 
L 221.160154 117.488775 
z
" style="fill: none"/>
    </g>
    <path d="M 225.024472 102.514571 
L 225.024472 102.26925 
L 230.09261 102.26925 
L 230.09261 102.471763 
L 240.932489 102.471763 
L 240.932489 102.514571 
L 225.024472 102.514571 
z
" style="fill: #b1c5b2"/>
   </g>
   <g id="text_75">
    <g id="patch_68">
     <path d="M 221.160154 116.937844 
L 264.506404 116.937844 
L 264.506404 47.255344 
L 221.160154 47.255344 
L 221.160154 116.937844 
z
" style="fill: none"/>
    </g>
    <path d="M 236.139195 101.940372 
L 236.139195 101.917864 
L 232.670654 101.917864 
L 232.670654 101.898265 
L 240.569693 101.898265 
L 240.569693 101.952309 
Q 239.113016 101.958075 237.348512 101.961059 
Q 235.589506 101.964018 233.577642 101.964018 
Q 228.597454 101.964018 225.881988 101.948085 
Q 223.172018 101.932153 223.172018 101.902842 
Q 223.172018 101.873051 225.909472 101.857321 
Q 228.652423 101.841591 233.819505 101.841591 
Q 235.364133 101.841591 236.859289 101.843614 
Q 238.354444 101.845637 239.662706 101.84943 
L 239.662706 101.875251 
Q 238.596308 101.868929 237.21109 101.865742 
Q 235.831369 101.86253 234.1823 101.86253 
Q 231.29643 101.86253 229.867237 101.872545 
Q 228.443541 101.882535 228.443541 101.902842 
Q 228.443541 101.922517 229.817765 101.93281 
Q 231.191989 101.943078 233.819505 101.943078 
Q 234.611058 101.943078 235.193729 101.94242 
Q 235.7764 101.941738 236.139195 101.940372 
z
" style="fill: #b6babc"/>
   </g>
   <g id="text_76">
    <g id="patch_69">
     <path d="M 221.160154 116.662163 
L 264.506404 116.662163 
L 264.506404 46.979663 
L 221.160154 46.979663 
L 221.160154 116.662163 
z
" style="fill: none"/>
    </g>
    <path d="M 239.728668 101.687587 
Q 238.524848 101.687979 237.200096 101.688173 
Q 235.880841 101.688368 234.424164 101.688368 
Q 229.235094 101.688368 226.503137 101.686213 
Q 223.771179 101.684054 223.771179 101.679977 
Q 223.771179 101.67589 226.503137 101.673731 
Q 229.235094 101.671573 234.424164 101.671573 
Q 235.880841 101.671573 237.222084 101.671767 
Q 238.563326 101.671962 239.728668 101.672354 
L 239.728668 101.675911 
Q 238.425904 101.675151 237.194599 101.6748 
Q 235.968791 101.674446 234.66053 101.674446 
Q 231.879101 101.674446 230.460902 101.675841 
Q 229.042703 101.677233 229.042703 101.679977 
Q 229.042703 101.682708 230.460902 101.684103 
Q 231.879101 101.685494 234.66053 101.685494 
Q 235.968791 101.685494 237.194599 101.685144 
Q 238.425904 101.68479 239.728668 101.68403 
L 239.728668 101.687587 
z
" style="fill: #adccac"/>
   </g>
   <g id="text_77">
    <g id="patch_70">
     <path d="M 221.160154 116.624337 
L 264.506404 116.624337 
L 264.506404 46.941837 
L 221.160154 46.941837 
L 221.160154 116.624337 
z
" style="fill: none"/>
    </g>
    <path d="M 229.922206 101.650587 
Q 226.09087 101.650587 224.733136 101.650587 
Q 223.375403 101.650587 223.375403 101.650587 
Q 223.375403 101.650587 225.607143 101.650587 
Q 227.844379 101.650587 231.741679 101.650587 
Q 233.511679 101.650587 235.28168 101.650587 
Q 237.05168 101.650587 238.783202 101.650587 
L 238.783202 101.650587 
Q 237.150624 101.650587 235.468574 101.650587 
Q 233.786524 101.650587 232.137455 101.650587 
Q 230.301492 101.650587 229.317547 101.650587 
Q 228.3391 101.650587 228.3391 101.650587 
Q 228.3391 101.650587 229.053696 101.650587 
Q 229.768293 101.650587 232.033014 101.650587 
L 234.215282 101.650587 
Q 237.310034 101.650587 238.766712 101.650587 
Q 240.228886 101.650587 240.228886 101.650587 
Q 240.228886 101.650587 237.931183 101.650587 
Q 235.638978 101.650587 231.005094 101.650587 
Q 229.097672 101.650587 227.179255 101.650587 
Q 225.266335 101.650587 223.479844 101.650587 
L 223.479844 101.650587 
Q 225.508199 101.650587 227.404628 101.650587 
Q 229.301057 101.650587 231.159008 101.650587 
Q 233.027952 101.650587 234.055872 101.650587 
Q 235.089288 101.650587 235.089288 101.650587 
Q 235.089288 101.650587 234.402176 101.650587 
Q 233.715064 101.650587 232.4123 101.650587 
L 229.922206 101.650587 
z
" style="fill: #b3c0b7"/>
   </g>
   <g id="text_78">
    <g id="patch_71">
     <path d="M 221.160154 116.284798 
L 264.506404 116.284798 
L 264.506404 46.602298 
L 221.160154 46.602298 
L 221.160154 116.284798 
z
" style="fill: none"/>
    </g>
    <path d="M 221.297576 101.030546 
L 226.761491 101.030546 
L 231.741679 101.143024 
L 236.738357 101.030546 
L 242.202271 101.030546 
L 234.286741 101.200185 
L 234.286741 101.310529 
L 229.218603 101.310529 
L 229.218603 101.200185 
L 221.297576 101.030546 
z
" style="fill: #b2c2b5"/>
   </g>
   <g id="text_79">
    <g id="patch_72">
     <path d="M 221.160154 115.61178 
L 264.506404 115.61178 
L 264.506404 45.92928 
L 221.160154 45.92928 
L 221.160154 115.61178 
z
" style="fill: none"/>
    </g>
    <path d="M 231.741679 100.377829 
L 229.356026 100.507832 
L 234.149319 100.507832 
L 231.741679 100.377829 
z
M 228.652423 100.320391 
L 234.852922 100.320391 
L 241.773514 100.63803 
L 236.705376 100.63803 
L 235.127766 100.559402 
L 228.3391 100.559402 
L 226.794472 100.63803 
L 221.726334 100.63803 
L 228.652423 100.320391 
z
" style="fill: #b2c3b4"/>
   </g>
   <g id="text_80">
    <g id="patch_73">
     <path d="M 221.160154 113.998229 
L 264.506404 113.998229 
L 264.506404 44.315729 
L 221.160154 44.315729 
L 221.160154 113.998229 
z
" style="fill: none"/>
    </g>
    <path d="M 223.512825 97.961563 
L 228.580963 97.961563 
L 228.580963 98.365921 
L 234.918884 98.365921 
L 234.918884 97.961563 
L 239.987022 97.961563 
L 239.987022 99.022512 
L 234.918884 99.022512 
L 234.918884 98.550396 
L 228.580963 98.550396 
L 228.580963 99.022512 
L 223.512825 99.022512 
L 223.512825 97.961563 
z
" style="fill: #b5bdb9"/>
   </g>
   <g id="text_81">
    <g id="patch_74">
     <path d="M 221.160154 111.199446 
L 264.506404 111.199446 
L 264.506404 41.516946 
L 221.160154 41.516946 
L 221.160154 111.199446 
z
" style="fill: none"/>
    </g>
    <path d="M 240.261867 92.634573 
L 229.356026 92.634573 
L 229.356026 93.568122 
L 239.28342 93.568122 
L 239.28342 94.325513 
L 229.356026 94.325513 
L 229.356026 96.217649 
L 224.287888 96.217649 
L 224.287888 91.877183 
L 240.261867 91.877183 
L 240.261867 92.634573 
z
" style="fill: #b9b6c0"/>
   </g>
   <g id="text_82">
    <g id="patch_75">
     <path d="M 261.969109 120.625152 
L 305.315359 120.625152 
L 305.315359 50.942652 
L 261.969109 50.942652 
L 261.969109 120.625152 
z
" style="fill: none"/>
    </g>
    <path d="M 281.070822 104.260873 
L 270.164981 104.260873 
L 270.164981 104.622355 
L 280.092375 104.622355 
L 280.092375 104.915626 
L 270.164981 104.915626 
L 270.164981 105.648286 
L 265.096843 105.648286 
L 265.096843 103.967601 
L 281.070822 103.967601 
L 281.070822 104.260873 
z
" style="fill: #a9d4a6"/>
   </g>
   <g id="text_83">
    <g id="patch_76">
     <path d="M 261.969109 117.300637 
L 305.315359 117.300637 
L 305.315359 47.618137 
L 261.969109 47.618137 
L 261.969109 117.300637 
z
" style="fill: none"/>
    </g>
    <path d="M 265.833427 102.326329 
L 265.833427 102.025184 
L 270.901565 102.025184 
L 270.901565 102.273781 
L 281.741444 102.273781 
L 281.741444 102.326329 
L 265.833427 102.326329 
z
" style="fill: #96d396"/>
   </g>
   <g id="text_84">
    <g id="patch_77">
     <path d="M 261.969109 116.624337 
L 305.315359 116.624337 
L 305.315359 46.941837 
L 261.969109 46.941837 
L 261.969109 116.624337 
z
" style="fill: none"/>
    </g>
    <path d="M 263.447774 101.650587 
L 269.49436 101.650587 
L 272.550634 101.650587 
L 275.590417 101.650587 
L 281.669984 101.650587 
L 281.669984 101.650587 
L 277.310946 101.650587 
L 277.310946 101.650587 
L 274.595479 101.650587 
L 270.560757 101.650587 
L 267.812309 101.650587 
L 267.812309 101.650587 
L 263.447774 101.650587 
L 263.447774 101.650587 
z
" style="fill: #b3c0b7"/>
   </g>
   <g id="text_85">
    <g id="patch_78">
     <path d="M 261.969109 115.035196 
L 305.315359 115.035196 
L 305.315359 45.352696 
L 261.969109 45.352696 
L 261.969109 115.035196 
z
" style="fill: none"/>
    </g>
    <path d="M 272.550634 99.778002 
L 277.069082 98.357625 
L 282.170202 98.357625 
L 276.074144 100.058293 
L 269.049111 100.058293 
L 262.947557 98.357625 
L 268.048676 98.357625 
L 272.550634 99.778002 
z
" style="fill: #bdaec6"/>
   </g>
   <g id="text_86">
    <g id="patch_79">
     <path d="M 261.969109 111.675157 
L 305.315359 111.675157 
L 305.315359 41.992657 
L 261.969109 41.992657 
L 261.969109 111.675157 
z
" style="fill: none"/>
    </g>
    <path d="M 264.926439 95.024851 
L 264.926439 94.671254 
L 280.196816 94.671254 
L 280.196816 95.024851 
L 275.095697 95.024851 
L 275.095697 96.344054 
L 280.196816 96.344054 
L 280.196816 96.69765 
L 264.926439 96.69765 
L 264.926439 96.344054 
L 270.027559 96.344054 
L 270.027559 95.024851 
L 264.926439 95.024851 
z
" style="fill: #b6babc"/>
   </g>
   <g id="text_87">
    <g id="patch_80">
     <path d="M 261.969109 107.939229 
L 305.315359 107.939229 
L 305.315359 38.256729 
L 261.969109 38.256729 
L 261.969109 107.939229 
z
" style="fill: none"/>
    </g>
    <path d="M 275.095697 92.960025 
L 270.027559 92.960025 
L 270.027559 90.526239 
L 263.513737 90.526239 
L 263.513737 90.018392 
L 281.604021 90.018392 
L 281.604021 90.526239 
L 275.095697 90.526239 
L 275.095697 92.960025 
z
" style="fill: #a87bb9"/>
   </g>
   <g id="text_88">
    <g id="patch_81">
     <path d="M 261.969109 103.112103 
L 305.315359 103.112103 
L 305.315359 33.429603 
L 261.969109 33.429603 
L 261.969109 103.112103 
z
" style="fill: none"/>
    </g>
    <path d="M 263.980973 81.799812 
L 269.049111 81.799812 
L 269.049111 84.301079 
L 276.981132 81.799812 
L 282.719891 81.799812 
L 274.62846 84.293258 
L 283.011227 88.126622 
L 277.376908 88.126622 
L 271.297341 85.278645 
L 269.049111 85.983796 
L 269.049111 88.126622 
L 263.980973 88.126622 
L 263.980973 81.799812 
z
" style="fill: #a271b4"/>
   </g>
   <g id="text_89">
    <g id="patch_82">
     <path d="M 302.778064 172.491664 
L 346.124314 172.491664 
L 346.124314 102.809164 
L 302.778064 102.809164 
L 302.778064 172.491664 
z
" style="fill: none"/>
    </g>
    <path d="M 303.377226 148.794946 
L 307.554867 148.794946 
L 309.286389 155.186049 
L 311.386203 151.055061 
L 315.354962 151.055061 
L 317.773596 155.186049 
L 319.14782 148.794946 
L 323.358443 148.794946 
L 320.577013 157.501771 
L 316.108037 157.501771 
L 313.359589 152.933109 
L 310.781545 157.501771 
L 306.367537 157.501771 
L 303.377226 148.794946 
z
" style="fill: #6dbe7c"/>
   </g>
   <g id="text_90">
    <g id="patch_83">
     <path d="M 302.778064 161.606352 
L 346.124314 161.606352 
L 346.124314 91.923852 
L 302.778064 91.923852 
L 302.778064 161.606352 
z
" style="fill: none"/>
    </g>
    <path d="M 305.130736 140.534307 
L 310.198874 140.534307 
L 310.198874 142.854242 
L 316.536795 142.854242 
L 316.536795 140.534307 
L 321.604933 140.534307 
L 321.604933 146.621316 
L 316.536795 146.621316 
L 316.536795 143.912634 
L 310.198874 143.912634 
L 310.198874 146.621316 
L 305.130736 146.621316 
L 305.130736 140.534307 
z
" style="fill: #65ba77"/>
   </g>
   <g id="text_91">
    <g id="patch_84">
     <path d="M 302.778064 153.540211 
L 346.124314 153.540211 
L 346.124314 83.857711 
L 302.778064 83.857711 
L 302.778064 153.540211 
z
" style="fill: none"/>
    </g>
    <path d="M 310.198874 133.715407 
L 310.198874 137.504496 
L 311.573098 137.504496 
Q 314.563409 137.504496 315.833192 137.072429 
Q 317.102975 136.639147 317.102975 135.603883 
Q 317.102975 134.575902 315.833192 134.146261 
Q 314.563409 133.715407 311.573098 133.715407 
L 310.198874 133.715407 
z
M 305.130736 132.664365 
L 310.561669 132.664365 
Q 316.844621 132.664365 319.60956 133.353732 
Q 322.379995 134.041885 322.379995 135.603883 
Q 322.379995 137.170736 319.60956 137.863744 
Q 316.844621 138.555538 310.561669 138.555538 
L 305.130736 138.555538 
L 305.130736 132.664365 
z
" style="fill: #65ba77"/>
   </g>
   <g id="text_92">
    <g id="patch_85">
     <path d="M 302.778064 145.684809 
L 346.124314 145.684809 
L 346.124314 76.002309 
L 302.778064 76.002309 
L 302.778064 145.684809 
z
" style="fill: none"/>
    </g>
    <path d="M 314.046701 129.962435 
Q 313.804838 129.972373 313.639931 129.975685 
Q 313.480521 129.978998 313.326608 129.978998 
Q 308.9126 129.978998 306.636885 129.394895 
Q 304.36117 128.809687 304.36117 127.667981 
Q 304.36117 126.521858 306.636885 125.935546 
Q 308.9126 125.349235 313.359589 125.349235 
Q 317.828565 125.349235 320.10428 125.935546 
Q 322.379995 126.521858 322.379995 127.667981 
Q 322.379995 128.454146 321.297107 128.984145 
Q 320.214218 129.514144 318.152882 129.741602 
L 321.346579 130.28706 
L 317.878037 130.735351 
L 314.046701 129.962435 
z
M 313.359589 126.142025 
Q 311.419185 126.142025 310.523191 126.503087 
Q 309.632694 126.864149 309.632694 127.667981 
Q 309.632694 128.4685 310.523191 128.829562 
Q 311.419185 129.18952 313.359589 129.18952 
Q 315.316484 129.18952 316.206981 128.829562 
Q 317.102975 128.4685 317.102975 127.667981 
Q 317.102975 126.864149 316.206981 126.503087 
Q 315.316484 126.142025 313.359589 126.142025 
z
" style="fill: #2e9f54"/>
   </g>
   <g id="text_93">
    <g id="patch_86">
     <path d="M 302.778064 138.401413 
L 346.124314 138.401413 
L 346.124314 68.718913 
L 302.778064 68.718913 
L 302.778064 138.401413 
z
" style="fill: none"/>
    </g>
    <path d="M 321.637914 123.417773 
L 305.663935 123.417773 
L 305.663935 118.084136 
L 321.637914 118.084136 
L 321.637914 119.01483 
L 310.732073 119.01483 
L 310.732073 120.161991 
L 320.609995 120.161991 
L 320.609995 121.092685 
L 310.732073 121.092685 
L 310.732073 122.487079 
L 321.637914 122.487079 
L 321.637914 123.417773 
z
" style="fill: #71c07e"/>
   </g>
   <g id="text_94">
    <g id="patch_87">
     <path d="M 302.778064 131.145972 
L 346.124314 131.145972 
L 346.124314 61.463472 
L 302.778064 61.463472 
L 302.778064 131.145972 
z
" style="fill: none"/>
    </g>
    <path d="M 316.641236 114.535968 
Q 317.394311 114.555888 317.954994 114.632009 
Q 318.515677 114.707419 319.318224 114.922978 
L 323.957604 116.165819 
L 318.394746 116.165819 
L 315.299993 115.294336 
Q 315.162571 115.25592 314.942695 115.191892 
Q 313.584962 114.800614 311.743502 114.800614 
L 310.132911 114.800614 
L 310.132911 116.165819 
L 305.064773 116.165819 
L 305.064773 112.712613 
L 312.381142 112.712613 
Q 317.328348 112.712613 319.483131 112.948802 
Q 321.637914 113.184281 321.637914 113.717841 
Q 321.637914 114.073549 320.351641 114.284127 
Q 319.065367 114.493995 316.641236 114.535968 
z
M 310.132911 113.286724 
L 310.132911 114.227214 
L 312.518564 114.227214 
Q 314.596391 114.227214 315.497881 114.118368 
Q 316.399372 114.00881 316.399372 113.755546 
Q 316.399372 113.504417 315.503378 113.395571 
Q 314.612881 113.286724 312.518564 113.286724 
L 310.132911 113.286724 
z
" style="fill: #8cce8f"/>
   </g>
   <g id="text_95">
    <g id="patch_88">
     <path d="M 302.778064 125.914054 
L 346.124314 125.914054 
L 346.124314 56.231554 
L 302.778064 56.231554 
L 302.778064 125.914054 
z
" style="fill: none"/>
    </g>
    <path d="M 311.540116 109.649748 
Q 307.70878 109.490079 306.351047 109.314804 
Q 304.993313 109.139528 304.993313 108.843 
Q 304.993313 108.462436 307.225053 108.245143 
Q 309.46229 108.027249 313.359589 108.027249 
Q 315.129589 108.027249 316.89959 108.071668 
Q 318.66959 108.115487 320.401113 108.201324 
L 320.401113 108.741557 
Q 318.768535 108.616102 317.086484 108.550674 
Q 315.404434 108.484646 313.755365 108.484646 
Q 311.919402 108.484646 310.935458 108.565681 
Q 309.95701 108.646115 309.95701 108.79618 
Q 309.95701 108.91263 310.671607 108.988863 
Q 311.386203 109.064496 313.650924 109.156335 
L 315.833192 109.246374 
Q 318.927945 109.370027 320.384622 109.574716 
Q 321.846796 109.779404 321.846796 110.090338 
Q 321.846796 110.514721 319.549094 110.723611 
Q 317.256888 110.932501 312.623005 110.932501 
Q 310.715582 110.932501 308.797165 110.88328 
Q 306.884246 110.833458 305.097754 110.735616 
L 305.097754 110.16357 
Q 307.126109 110.321438 309.022538 110.398271 
Q 310.918967 110.475104 312.776918 110.475104 
Q 314.645863 110.475104 315.673782 110.382664 
Q 316.707199 110.289624 316.707199 110.122152 
Q 316.707199 109.996698 316.020087 109.901857 
Q 315.332975 109.807016 314.03021 109.752993 
L 311.540116 109.649748 
z
" style="fill: #acceaa"/>
   </g>
   <g id="text_96">
    <g id="patch_89">
     <path d="M 302.778064 121.262745 
L 346.124314 121.262745 
L 346.124314 51.580245 
L 302.778064 51.580245 
L 302.778064 121.262745 
z
" style="fill: none"/>
    </g>
    <path d="M 304.256729 103.381948 
L 310.303315 103.381948 
L 313.359589 104.65464 
L 316.399372 103.381948 
L 322.478939 103.381948 
L 322.478939 106.283615 
L 318.119901 106.283615 
L 318.119901 103.959412 
L 315.404434 105.22792 
L 311.369713 105.22792 
L 308.621265 103.959412 
L 308.621265 106.283615 
L 304.256729 106.283615 
L 304.256729 103.381948 
z
" style="fill: #a8d6a3"/>
   </g>
   <g id="text_97">
    <g id="patch_90">
     <path d="M 302.778064 116.624337 
L 346.124314 116.624337 
L 346.124314 46.941837 
L 302.778064 46.941837 
L 302.778064 116.624337 
z
" style="fill: none"/>
    </g>
    <path d="M 313.359589 101.650587 
L 310.973936 101.650587 
L 315.767229 101.650587 
L 313.359589 101.650587 
z
M 310.270333 101.650587 
L 316.470832 101.650587 
L 323.391424 101.650587 
L 318.323286 101.650587 
L 316.745677 101.650587 
L 309.95701 101.650587 
L 308.412383 101.650587 
L 303.344245 101.650587 
L 310.270333 101.650587 
z
" style="fill: #b3c0b7"/>
   </g>
   <g id="text_98">
    <g id="patch_91">
     <path d="M 302.778064 115.870593 
L 346.124314 115.870593 
L 346.124314 46.188093 
L 302.778064 46.188093 
L 302.778064 115.870593 
z
" style="fill: none"/>
    </g>
    <path d="M 315.904652 100.89569 
L 310.836514 100.89569 
L 310.836514 100.381457 
L 304.322692 100.381457 
L 304.322692 100.274155 
L 322.412977 100.274155 
L 322.412977 100.381457 
L 315.904652 100.381457 
L 315.904652 100.89569 
z
" style="fill: #bcafc6"/>
   </g>
   <g id="text_99">
    <g id="patch_92">
     <path d="M 302.778064 113.807187 
L 346.124314 113.807187 
L 346.124314 44.124687 
L 302.778064 44.124687 
L 302.778064 113.807187 
z
" style="fill: none"/>
    </g>
    <path d="M 304.789928 97.659242 
L 309.858066 97.659242 
L 309.858066 98.122594 
L 317.790087 97.659242 
L 323.528846 97.659242 
L 315.437416 98.121145 
L 323.820182 98.831264 
L 318.185864 98.831264 
L 312.106297 98.303685 
L 309.858066 98.434312 
L 309.858066 98.831264 
L 304.789928 98.831264 
L 304.789928 97.659242 
z
" style="fill: #b2c3b4"/>
   </g>
   <g id="text_100">
    <g id="patch_93">
     <path d="M 302.778064 111.009007 
L 346.124314 111.009007 
L 346.124314 41.326507 
L 302.778064 41.326507 
L 302.778064 111.009007 
z
" style="fill: none"/>
    </g>
    <path d="M 306.642382 96.032178 
L 306.642382 94.371477 
L 311.71052 94.371477 
L 311.71052 95.742394 
L 322.550399 95.742394 
L 322.550399 96.032178 
L 306.642382 96.032178 
z
" style="fill: #c1a5ce"/>
   </g>
   <g id="text_101">
    <g id="patch_94">
     <path d="M 302.778064 107.380771 
L 346.124314 107.380771 
L 346.124314 37.698271 
L 302.778064 37.698271 
L 302.778064 107.380771 
z
" style="fill: none"/>
    </g>
    <path d="M 313.359589 90.870954 
L 317.878037 83.173533 
L 322.979157 83.173533 
L 316.883099 92.389932 
L 309.858066 92.389932 
L 303.756512 83.173533 
L 308.857631 83.173533 
L 313.359589 90.870954 
z
" style="fill: #9156a6"/>
   </g>
   <g id="text_102">
    <g id="patch_95">
     <path d="M 302.778064 95.886208 
L 346.124314 95.886208 
L 346.124314 26.203708 
L 302.778064 26.203708 
L 302.778064 95.886208 
z
" style="fill: none"/>
    </g>
    <path d="M 305.735394 72.116624 
L 305.735394 70.261527 
L 321.005771 70.261527 
L 321.005771 72.116624 
L 315.904652 72.116624 
L 315.904652 79.037649 
L 321.005771 79.037649 
L 321.005771 80.892746 
L 305.735394 80.892746 
L 305.735394 79.037649 
L 310.836514 79.037649 
L 310.836514 72.116624 
L 305.735394 72.116624 
z
" style="fill: #89499f"/>
   </g>
   <g id="line2d_17">
    <path d="M 53.843438 101.650587 
L 327.263438 101.650587 
" clip-path="url(#p7696f110e9)" style="fill: none; stroke: #000000; stroke-linecap: square"/>
   </g>
  </g>
 </g>
 <defs>
  <clipPath id="p7696f110e9">
   <rect x="53.843438" y="46.038082" width="273.42" height="138.6"/>
  </clipPath>
 </defs>
</svg>
