<?xml version="1.0" encoding="utf-8" standalone="no"?>
<!DOCTYPE svg PUBLIC "-//W3C//DTD SVG 1.1//EN"
  "http://www.w3.org/Graphics/SVG/1.1/DTD/svg11.dtd">
<svg xmlns:xlink="http://www.w3.org/1999/xlink" width="333.709688pt" height="228.627277pt" viewBox="0 0 333.709688 228.627277" xmlns="http://www.w3.org/2000/svg" version="1.1">
 <metadata>
  <rdf:RDF xmlns:dc="http://purl.org/dc/elements/1.1/" xmlns:cc="http://creativecommons.org/ns#" xmlns:rdf="http://www.w3.org/1999/02/22-rdf-syntax-ns#">
   <cc:Work>
    <dc:type rdf:resource="http://purl.org/dc/dcmitype/StillImage"/>
    <dc:date>2025-07-18T11:12:14.570947</dc:date>
    <dc:format>image/svg+xml</dc:format>
    <dc:creator>
     <cc:Agent>
      <dc:title>Matplotlib v3.9.4, https://matplotlib.org/</dc:title>
     </cc:Agent>
    </dc:creator>
   </cc:Work>
  </rdf:RDF>
 </metadata>
 <defs>
  <style type="text/css">*{stroke-linejoin: round; stroke-linecap: butt}</style>
 </defs>
 <g id="figure_1">
  <g id="patch_1">
   <path d="M 0 228.627277 
L 333.709688 228.627277 
L 333.709688 0 
L 0 0 
z
" style="fill: #ffffff"/>
  </g>
  <g id="axes_1">
   <g id="patch_2">
    <path d="M 53.843438 181.684152 
L 307.733437 181.684152 
L 307.733437 43.084152 
L 53.843438 43.084152 
z
" style="fill: #ffffff"/>
   </g>
   <g id="matplotlib.axis_1">
    <g id="xtick_1">
     <g id="line2d_1">
      <defs>
       <path id="m6dafa10a30" d="M 0 0 
L 0 5 
" style="stroke: #000000"/>
      </defs>
      <g>
       <use xlink:href="#m6dafa10a30" x="68.175938" y="181.684152" style="stroke: #000000"/>
      </g>
     </g>
     <g id="text_1">
      <text style="font: 12px 'DejaVu Sans', 'Bitstream Vera Sans', 'Computer Modern Sans Serif', 'Lucida Grande', 'Verdana', 'Geneva', 'Lucid', 'Arial', 'Helvetica', 'Avant Garde', sans-serif" transform="translate(71.487188 221.297902) rotate(-90)">V332</text>
     </g>
    </g>
    <g id="xtick_2">
     <g id="line2d_2">
      <g>
       <use xlink:href="#m6dafa10a30" x="109.125938" y="181.684152" style="stroke: #000000"/>
      </g>
     </g>
     <g id="text_2">
      <text style="font: 12px 'DejaVu Sans', 'Bitstream Vera Sans', 'Computer Modern Sans Serif', 'Lucida Grande', 'Verdana', 'Geneva', 'Lucid', 'Arial', 'Helvetica', 'Avant Garde', sans-serif" transform="translate(112.437188 221.427277) rotate(-90)">R357</text>
     </g>
    </g>
    <g id="xtick_3">
     <g id="line2d_3">
      <g>
       <use xlink:href="#m6dafa10a30" x="150.075938" y="181.684152" style="stroke: #000000"/>
      </g>
     </g>
     <g id="text_3">
      <text style="font: 12px 'DejaVu Sans', 'Bitstream Vera Sans', 'Computer Modern Sans Serif', 'Lucida Grande', 'Verdana', 'Geneva', 'Lucid', 'Arial', 'Helvetica', 'Avant Garde', sans-serif" transform="translate(153.387188 219.991027) rotate(-90)">F375</text>
     </g>
    </g>
    <g id="xtick_4">
     <g id="line2d_4">
      <g>
       <use xlink:href="#m6dafa10a30" x="191.025937" y="181.684152" style="stroke: #000000"/>
      </g>
     </g>
     <g id="text_4">
      <text style="font: 12px 'DejaVu Sans', 'Bitstream Vera Sans', 'Computer Modern Sans Serif', 'Lucida Grande', 'Verdana', 'Geneva', 'Lucid', 'Arial', 'Helvetica', 'Avant Garde', sans-serif" transform="translate(194.337187 220.707277) rotate(-90)">S408</text>
     </g>
    </g>
    <g id="xtick_5">
     <g id="line2d_5">
      <g>
       <use xlink:href="#m6dafa10a30" x="231.975938" y="181.684152" style="stroke: #000000"/>
      </g>
     </g>
     <g id="text_5">
      <text style="font: 12px 'DejaVu Sans', 'Bitstream Vera Sans', 'Computer Modern Sans Serif', 'Lucida Grande', 'Verdana', 'Geneva', 'Lucid', 'Arial', 'Helvetica', 'Avant Garde', sans-serif" transform="translate(235.287188 219.775402) rotate(-90)">L517</text>
     </g>
    </g>
    <g id="xtick_6">
     <g id="line2d_6">
      <g>
       <use xlink:href="#m6dafa10a30" x="252.450938" y="181.684152" style="stroke: #000000"/>
      </g>
     </g>
     <g id="text_6">
      <text style="font: 12px 'DejaVu Sans', 'Bitstream Vera Sans', 'Computer Modern Sans Serif', 'Lucida Grande', 'Verdana', 'Geneva', 'Lucid', 'Arial', 'Helvetica', 'Avant Garde', sans-serif" transform="translate(255.762188 219.775402) rotate(-90)">L518</text>
     </g>
    </g>
    <g id="xtick_7">
     <g id="line2d_7">
      <g>
       <use xlink:href="#m6dafa10a30" x="293.400937" y="181.684152" style="stroke: #000000"/>
      </g>
     </g>
     <g id="text_7">
      <text style="font: 12px 'DejaVu Sans', 'Bitstream Vera Sans', 'Computer Modern Sans Serif', 'Lucida Grande', 'Verdana', 'Geneva', 'Lucid', 'Arial', 'Helvetica', 'Avant Garde', sans-serif" transform="translate(296.712187 220.418527) rotate(-90)">T523</text>
     </g>
    </g>
   </g>
   <g id="matplotlib.axis_2">
    <g id="ytick_1">
     <g id="line2d_8">
      <defs>
       <path id="m240c94678d" d="M 0 0 
L -5 0 
" style="stroke: #000000"/>
      </defs>
      <g>
       <use xlink:href="#m240c94678d" x="53.843438" y="177.645273" style="stroke: #000000"/>
      </g>
     </g>
     <g id="text_8">
      <text style="font: 12px 'DejaVu Sans', 'Bitstream Vera Sans', 'Computer Modern Sans Serif', 'Lucida Grande', 'Verdana', 'Geneva', 'Lucid', 'Arial', 'Helvetica', 'Avant Garde', sans-serif; text-anchor: end" x="45.343438" y="182.204336" transform="rotate(-0 45.343438 182.204336)">−2</text>
     </g>
    </g>
    <g id="ytick_2">
     <g id="line2d_9">
      <g>
       <use xlink:href="#m240c94678d" x="53.843438" y="135.330868" style="stroke: #000000"/>
      </g>
     </g>
     <g id="text_9">
      <text style="font: 12px 'DejaVu Sans', 'Bitstream Vera Sans', 'Computer Modern Sans Serif', 'Lucida Grande', 'Verdana', 'Geneva', 'Lucid', 'Arial', 'Helvetica', 'Avant Garde', sans-serif; text-anchor: end" x="45.343438" y="139.88993" transform="rotate(-0 45.343438 139.88993)">0</text>
     </g>
    </g>
    <g id="ytick_3">
     <g id="line2d_10">
      <g>
       <use xlink:href="#m240c94678d" x="53.843438" y="93.016462" style="stroke: #000000"/>
      </g>
     </g>
     <g id="text_10">
      <text style="font: 12px 'DejaVu Sans', 'Bitstream Vera Sans', 'Computer Modern Sans Serif', 'Lucida Grande', 'Verdana', 'Geneva', 'Lucid', 'Arial', 'Helvetica', 'Avant Garde', sans-serif; text-anchor: end" x="45.343438" y="97.575525" transform="rotate(-0 45.343438 97.575525)">2</text>
     </g>
    </g>
    <g id="ytick_4">
     <g id="line2d_11">
      <g>
       <use xlink:href="#m240c94678d" x="53.843438" y="50.702057" style="stroke: #000000"/>
      </g>
     </g>
     <g id="text_11">
      <text style="font: 12px 'DejaVu Sans', 'Bitstream Vera Sans', 'Computer Modern Sans Serif', 'Lucida Grande', 'Verdana', 'Geneva', 'Lucid', 'Arial', 'Helvetica', 'Avant Garde', sans-serif; text-anchor: end" x="45.343438" y="55.261119" transform="rotate(-0 45.343438 55.261119)">4</text>
     </g>
    </g>
    <g id="text_12">
     <text style="font: 17px 'DejaVu Sans', 'Bitstream Vera Sans', 'Computer Modern Sans Serif', 'Lucida Grande', 'Verdana', 'Geneva', 'Lucid', 'Arial', 'Helvetica', 'Avant Garde', sans-serif; text-anchor: middle" x="20.117344" y="112.384152" transform="rotate(-90 20.117344 112.384152)">escape</text>
    </g>
   </g>
   <g id="line2d_12">
    <path d="M 88.650938 181.684152 
L 88.650938 43.084152 
" clip-path="url(#peefb9f685a)" style="fill: none; stroke-dasharray: 2,5; stroke-dashoffset: 0; stroke: #000000"/>
   </g>
   <g id="line2d_13">
    <path d="M 129.600938 181.684152 
L 129.600938 43.084152 
" clip-path="url(#peefb9f685a)" style="fill: none; stroke-dasharray: 2,5; stroke-dashoffset: 0; stroke: #000000"/>
   </g>
   <g id="line2d_14">
    <path d="M 170.550938 181.684152 
L 170.550938 43.084152 
" clip-path="url(#peefb9f685a)" style="fill: none; stroke-dasharray: 2,5; stroke-dashoffset: 0; stroke: #000000"/>
   </g>
   <g id="line2d_15">
    <path d="M 211.500938 181.684152 
L 211.500938 43.084152 
" clip-path="url(#peefb9f685a)" style="fill: none; stroke-dasharray: 2,5; stroke-dashoffset: 0; stroke: #000000"/>
   </g>
   <g id="line2d_16">
    <path d="M 272.925938 181.684152 
L 272.925938 43.084152 
" clip-path="url(#peefb9f685a)" style="fill: none; stroke-dasharray: 2,5; stroke-dashoffset: 0; stroke: #000000"/>
   </g>
   <g id="patch_3">
    <path d="M 53.843438 181.684152 
L 53.843438 43.084152 
" style="fill: none; stroke: #000000; stroke-width: 0.8; stroke-linejoin: miter; stroke-linecap: square"/>
   </g>
   <g id="patch_4">
    <path d="M 53.843438 181.684152 
L 307.733438 181.684152 
" style="fill: none; stroke: #000000; stroke-width: 0.8; stroke-linejoin: miter; stroke-linecap: square"/>
   </g>
   <g id="text_13">
    <g id="patch_5">
     <path d="M 57.938438 170.581448 
L 101.284688 170.581448 
L 101.284688 100.898948 
L 57.938438 100.898948 
L 57.938438 170.581448 
z
" style="fill: none"/>
    </g>
    <path d="M 72.96925 154.588904 
L 72.96925 153.622244 
L 69.48872 153.622244 
L 69.48872 152.78049 
L 77.415061 152.78049 
L 77.415061 155.10156 
Q 75.953349 155.349198 74.182746 155.477362 
Q 72.41766 155.60444 70.398843 155.60444 
Q 65.401443 155.60444 62.676591 154.920175 
Q 59.957255 154.23591 59.957255 152.97708 
Q 59.957255 151.697614 62.70417 151.022038 
Q 65.456602 150.346463 70.641542 150.346463 
Q 72.191509 150.346463 73.691832 150.433353 
Q 75.192155 150.520244 76.504938 150.683164 
L 76.504938 151.792108 
Q 75.434855 151.520574 74.044849 151.383721 
Q 72.66036 151.245782 71.005591 151.245782 
Q 68.109747 151.245782 66.675614 151.675891 
Q 65.246998 152.104914 65.246998 152.97708 
Q 65.246998 153.822093 66.625971 154.26415 
Q 68.004945 154.70512 70.641542 154.70512 
Q 71.435831 154.70512 72.020516 154.676881 
Q 72.605201 154.647555 72.96925 154.588904 
z
" style="fill: #88cc8d"/>
   </g>
   <g id="text_14">
    <g id="patch_6">
     <path d="M 57.938438 163.392231 
L 101.284688 163.392231 
L 101.284688 93.709731 
L 57.938438 93.709731 
L 57.938438 163.392231 
z
" style="fill: none"/>
    </g>
    <path d="M 68.556534 144.70609 
L 66.162636 146.56089 
L 70.972496 146.56089 
L 68.556534 144.70609 
z
M 65.456602 143.886592 
L 71.67853 143.886592 
L 78.623041 148.418481 
L 73.537387 148.418481 
L 71.954325 147.296671 
L 65.142196 147.296671 
L 63.592229 148.418481 
L 58.506575 148.418481 
L 65.456602 143.886592 
z
" style="fill: #94d294"/>
   </g>
   <g id="text_15">
    <g id="patch_7">
     <path d="M 57.938438 157.017566 
L 101.284688 157.017566 
L 101.284688 87.335066 
L 57.938438 87.335066 
L 57.938438 157.017566 
z
" style="fill: none"/>
    </g>
    <path d="M 69.246021 141.645203 
Q 69.003322 141.650494 68.837845 141.652258 
Q 68.677884 141.654022 68.523439 141.654022 
Q 64.094176 141.654022 61.810595 141.34301 
Q 59.527015 141.03141 59.527015 140.423497 
Q 59.527015 139.813231 61.810595 139.501044 
Q 64.094176 139.188856 68.556534 139.188856 
Q 73.040956 139.188856 75.324537 139.501044 
Q 77.608117 139.813231 77.608117 140.423497 
Q 77.608117 140.842099 76.521486 141.124302 
Q 75.434855 141.406506 73.366394 141.527618 
L 76.571129 141.818053 
L 73.090599 142.05675 
L 69.246021 141.645203 
z
M 68.556534 139.610985 
Q 66.609423 139.610985 65.710333 139.803237 
Q 64.816758 139.995488 64.816758 140.423497 
Q 64.816758 140.849742 65.710333 141.041993 
Q 66.609423 141.233656 68.556534 141.233656 
Q 70.520193 141.233656 71.413768 141.041993 
Q 72.312858 140.849742 72.312858 140.423497 
Q 72.312858 139.995488 71.413768 139.803237 
Q 70.520193 139.610985 68.556534 139.610985 
z
" style="fill: #a6daa0"/>
   </g>
   <g id="text_16">
    <g id="patch_8">
     <path d="M 57.938438 152.430684 
L 101.284688 152.430684 
L 101.284688 82.748184 
L 57.938438 82.748184 
L 57.938438 152.430684 
z
" style="fill: none"/>
    </g>
    <path d="M 76.571129 137.412894 
Q 75.363148 137.433804 74.033817 137.444166 
Q 72.710003 137.454528 71.248291 137.454528 
Q 66.041286 137.454528 63.299887 137.339618 
Q 60.558487 137.224522 60.558487 137.007098 
Q 60.558487 136.789119 63.299887 136.674023 
Q 66.041286 136.558927 71.248291 136.558927 
Q 72.710003 136.558927 74.055881 136.569289 
Q 75.401759 136.579652 76.571129 136.600561 
L 76.571129 136.790229 
Q 75.263862 136.749705 74.028301 136.731016 
Q 72.798257 136.712141 71.485474 136.712141 
Q 68.694432 136.712141 67.271331 136.786528 
Q 65.84823 136.86073 65.84823 137.007098 
Q 65.84823 137.152726 67.271331 137.227112 
Q 68.694432 137.301314 71.485474 137.301314 
Q 72.798257 137.301314 74.028301 137.282625 
Q 75.263862 137.263751 76.571129 137.223226 
L 76.571129 137.412894 
z
" style="fill: #bab3c2"/>
   </g>
   <g id="text_17">
    <g id="patch_9">
     <path d="M 57.938438 150.413556 
L 101.284688 150.413556 
L 101.284688 80.731056 
L 57.938438 80.731056 
L 57.938438 150.413556 
z
" style="fill: none"/>
    </g>
    <path d="M 59.99035 135.391208 
L 65.456602 135.391208 
L 72.627264 135.426475 
L 72.627264 135.391208 
L 77.106171 135.391208 
L 77.106171 135.439716 
L 71.67853 135.439716 
L 64.469256 135.404449 
L 64.469256 135.439716 
L 59.99035 135.439716 
L 59.99035 135.391208 
z
" style="fill: #afc7b0"/>
   </g>
   <g id="text_18">
    <g id="patch_10">
     <path d="M 57.938438 150.304618 
L 101.284688 150.304618 
L 101.284688 80.622118 
L 57.938438 80.622118 
L 57.938438 150.304618 
z
" style="fill: none"/>
    </g>
    <path d="M 68.556534 135.330868 
L 73.090599 135.330868 
L 78.209349 135.330868 
L 72.092223 135.330868 
L 65.042909 135.330868 
L 58.920267 135.330868 
L 64.039017 135.330868 
L 68.556534 135.330868 
z
" style="fill: #b3c0b7"/>
   </g>
   <g id="text_19">
    <g id="patch_11">
     <path d="M 57.938438 149.83117 
L 101.284688 149.83117 
L 101.284688 80.14867 
L 57.938438 80.14867 
L 57.938438 149.83117 
z
" style="fill: none"/>
    </g>
    <path d="M 71.110393 134.856697 
L 66.024739 134.856697 
L 66.024739 134.533693 
L 59.488404 134.533693 
L 59.488404 134.466293 
L 77.641212 134.466293 
L 77.641212 134.533693 
L 71.110393 134.533693 
L 71.110393 134.856697 
z
" style="fill: #beacc8"/>
   </g>
   <g id="text_20">
    <g id="patch_12">
     <path d="M 57.938438 147.780879 
L 101.284688 147.780879 
L 101.284688 78.098379 
L 57.938438 78.098379 
L 57.938438 147.780879 
z
" style="fill: none"/>
    </g>
    <path d="M 60.905989 130.288238 
L 60.905989 129.756988 
L 76.229143 129.756988 
L 76.229143 130.288238 
L 71.110393 130.288238 
L 71.110393 132.270234 
L 76.229143 132.270234 
L 76.229143 132.801484 
L 60.905989 132.801484 
L 60.905989 132.270234 
L 66.024739 132.270234 
L 66.024739 130.288238 
L 60.905989 130.288238 
z
" style="fill: #bb9ac9"/>
   </g>
   <g id="text_21">
    <g id="patch_13">
     <path d="M 57.938438 142.969985 
L 101.284688 142.969985 
L 101.284688 73.287485 
L 57.938438 73.287485 
L 57.938438 142.969985 
z
" style="fill: none"/>
    </g>
    <path d="M 60.29924 124.508808 
L 65.384895 124.508808 
L 65.384895 125.835508 
L 71.744721 125.835508 
L 71.744721 124.508808 
L 76.830376 124.508808 
L 76.830376 127.989781 
L 71.744721 127.989781 
L 71.744721 126.44077 
L 65.384895 126.44077 
L 65.384895 127.989781 
L 60.29924 127.989781 
L 60.29924 124.508808 
z
" style="fill: #b48fc3"/>
   </g>
   <g id="text_22">
    <g id="patch_14">
     <path d="M 57.938438 137.623221 
L 101.284688 137.623221 
L 101.284688 67.940721 
L 57.938438 67.940721 
L 57.938438 137.623221 
z
" style="fill: none"/>
    </g>
    <path d="M 71.849523 120.064722 
Q 72.605201 120.096188 73.167822 120.216435 
Q 73.730443 120.335559 74.535764 120.676071 
L 79.191179 122.639357 
L 73.609093 122.639357 
L 70.503645 121.262697 
Q 70.365748 121.202012 70.145112 121.100869 
Q 68.782686 120.482777 66.934861 120.482777 
L 65.318704 120.482777 
L 65.318704 122.639357 
L 60.23305 122.639357 
L 60.23305 117.184412 
L 67.574705 117.184412 
Q 72.53901 117.184412 74.701241 117.557515 
Q 76.863471 117.929494 76.863471 118.772347 
Q 76.863471 119.334249 75.572752 119.666895 
Q 74.282033 119.998418 71.849523 120.064722 
z
M 65.318704 118.091322 
L 65.318704 119.576991 
L 67.712602 119.576991 
Q 69.79761 119.576991 70.702217 119.405049 
Q 71.606824 119.231983 71.606824 118.831909 
Q 71.606824 118.435206 70.707733 118.263264 
Q 69.814158 118.091322 67.712602 118.091322 
L 65.318704 118.091322 
z
" style="fill: #7b3294"/>
   </g>
   <g id="text_23">
    <g id="patch_15">
     <path d="M 57.938438 130.174363 
L 101.284688 130.174363 
L 101.284688 60.491863 
L 57.938438 60.491863 
L 57.938438 130.174363 
z
" style="fill: none"/>
    </g>
    <path d="M 59.422213 108.272026 
L 65.489697 108.272026 
L 68.556534 111.305331 
L 71.606824 108.272026 
L 77.707403 108.272026 
L 77.707403 115.18779 
L 73.333299 115.18779 
L 73.333299 109.64834 
L 70.608447 112.671672 
L 66.55978 112.671672 
L 63.801833 109.64834 
L 63.801833 115.18779 
L 59.422213 115.18779 
L 59.422213 108.272026 
z
" style="fill: #9962ac"/>
   </g>
   <g id="text_24">
    <g id="patch_16">
     <path d="M 57.938438 121.03589 
L 101.284688 121.03589 
L 101.284688 51.35339 
L 57.938438 51.35339 
L 57.938438 121.03589 
z
" style="fill: none"/>
    </g>
    <path d="M 58.076335 94.932069 
L 63.559134 94.932069 
L 68.556534 99.395083 
L 73.570482 94.932069 
L 79.053281 94.932069 
L 71.110393 101.66321 
L 71.110393 106.041541 
L 66.024739 106.041541 
L 66.024739 101.66321 
L 58.076335 94.932069 
z
" style="fill: #7f3897"/>
   </g>
   <g id="text_25">
    <g id="patch_17">
     <path d="M 57.938438 107.529047 
L 101.284688 107.529047 
L 101.284688 37.846547 
L 57.938438 37.846547 
L 57.938438 107.529047 
z
" style="fill: none"/>
    </g>
    <path d="M 61.816111 92.533145 
L 61.816111 80.586111 
L 66.901766 80.586111 
L 66.901766 90.448444 
L 77.77911 90.448444 
L 77.77911 92.533145 
L 61.816111 92.533145 
z
" style="fill: #7b3294"/>
   </g>
   <g id="text_26">
    <g id="patch_18">
     <path d="M 57.938438 93.084347 
L 101.284688 93.084347 
L 101.284688 23.401847 
L 57.938438 23.401847 
L 57.938438 93.084347 
z
" style="fill: none"/>
    </g>
    <path d="M 58.53967 64.451363 
L 62.73175 64.451363 
L 64.469256 74.459147 
L 66.576328 67.990461 
L 70.558804 67.990461 
L 72.985797 74.459147 
L 74.364771 64.451363 
L 78.589946 64.451363 
L 75.798904 78.085318 
L 71.314481 78.085318 
L 68.556534 70.931283 
L 65.96958 78.085318 
L 61.540317 78.085318 
L 58.53967 64.451363 
z
" style="fill: #7b3294"/>
   </g>
   <g id="text_27">
    <g id="patch_19">
     <path d="M 57.938438 76.8825 
L 101.284688 76.8825 
L 101.284688 7.2 
L 57.938438 7.2 
L 57.938438 76.8825 
z
" style="fill: none"/>
    </g>
    <path d="M 77.106171 50.350414 
L 66.162636 50.350414 
L 66.162636 53.355121 
L 76.124341 53.355121 
L 76.124341 55.792848 
L 66.162636 55.792848 
L 66.162636 61.882847 
L 61.076981 61.882847 
L 61.076981 47.912688 
L 77.106171 47.912688 
L 77.106171 50.350414 
z
" style="fill: #7b3294"/>
   </g>
   <g id="text_28">
    <g id="patch_20">
     <path d="M 98.888438 151.057603 
L 142.234688 151.057603 
L 142.234688 81.375103 
L 98.888438 81.375103 
L 98.888438 151.057603 
z
" style="fill: none"/>
    </g>
    <path d="M 100.907255 135.74794 
L 105.992909 135.74794 
L 105.992909 135.880495 
L 113.952345 135.74794 
L 119.710939 135.74794 
L 111.591542 135.880081 
L 120.003281 136.083231 
L 114.349489 136.083231 
L 108.24891 135.932302 
L 105.992909 135.969671 
L 105.992909 136.083231 
L 100.907255 136.083231 
L 100.907255 135.74794 
z
" style="fill: #b4bfb7"/>
   </g>
   <g id="text_29">
    <g id="patch_21">
     <path d="M 98.888438 150.304618 
L 142.234688 150.304618 
L 142.234688 80.622118 
L 98.888438 80.622118 
L 98.888438 150.304618 
z
" style="fill: none"/>
    </g>
    <path d="M 112.799523 135.330868 
Q 113.555201 135.330868 114.117822 135.330868 
Q 114.680443 135.330868 115.485764 135.330868 
L 120.141179 135.330868 
L 114.559093 135.330868 
L 111.453645 135.330868 
Q 111.315748 135.330868 111.095112 135.330868 
Q 109.732686 135.330868 107.884861 135.330868 
L 106.268704 135.330868 
L 106.268704 135.330868 
L 101.18305 135.330868 
L 101.18305 135.330868 
L 108.524705 135.330868 
Q 113.48901 135.330868 115.651241 135.330868 
Q 117.813471 135.330868 117.813471 135.330868 
Q 117.813471 135.330868 116.522752 135.330868 
Q 115.232033 135.330868 112.799523 135.330868 
z
M 106.268704 135.330868 
L 106.268704 135.330868 
L 108.662602 135.330868 
Q 110.74761 135.330868 111.652217 135.330868 
Q 112.556824 135.330868 112.556824 135.330868 
Q 112.556824 135.330868 111.657733 135.330868 
Q 110.764158 135.330868 108.662602 135.330868 
L 106.268704 135.330868 
z
" style="fill: #b3c0b7"/>
   </g>
   <g id="text_30">
    <g id="patch_22">
     <path d="M 98.888438 148.694193 
L 142.234688 148.694193 
L 142.234688 79.011693 
L 98.888438 79.011693 
L 98.888438 148.694193 
z
" style="fill: none"/>
    </g>
    <path d="M 100.372213 131.521235 
L 106.439697 131.521235 
L 109.506534 132.484039 
L 112.556824 131.521235 
L 118.657403 131.521235 
L 118.657403 133.716373 
L 114.283299 133.716373 
L 114.283299 131.958092 
L 111.558447 132.91773 
L 107.50978 132.91773 
L 104.751833 131.958092 
L 104.751833 133.716373 
L 100.372213 133.716373 
L 100.372213 131.521235 
z
" style="fill: #9359a8"/>
   </g>
   <g id="text_31">
    <g id="patch_23">
     <path d="M 98.888438 144.741858 
L 142.234688 144.741858 
L 142.234688 75.059358 
L 98.888438 75.059358 
L 98.888438 144.741858 
z
" style="fill: none"/>
    </g>
    <path d="M 110.196021 129.22065 
Q 109.953322 129.227917 109.787845 129.23034 
Q 109.627884 129.232762 109.473439 129.232762 
Q 105.044176 129.232762 102.760595 128.805615 
Q 100.477015 128.377661 100.477015 127.542747 
Q 100.477015 126.704602 102.760595 126.275841 
Q 105.044176 125.847079 109.506534 125.847079 
Q 113.990956 125.847079 116.274537 126.275841 
Q 118.558117 126.704602 118.558117 127.542747 
Q 118.558117 128.117659 117.471486 128.50524 
Q 116.384855 128.892821 114.316394 129.059158 
L 117.521129 129.458044 
L 114.040599 129.785873 
L 110.196021 129.22065 
z
M 109.506534 126.426836 
Q 107.559423 126.426836 106.660333 126.690875 
Q 105.766758 126.954915 105.766758 127.542747 
Q 105.766758 128.128156 106.660333 128.392195 
Q 107.559423 128.655428 109.506534 128.655428 
Q 111.470193 128.655428 112.363768 128.392195 
Q 113.262858 128.128156 113.262858 127.542747 
Q 113.262858 126.954915 112.363768 126.690875 
Q 111.470193 126.426836 109.506534 126.426836 
z
" style="fill: #8c4ea2"/>
   </g>
   <g id="text_32">
    <g id="patch_24">
     <path d="M 98.888438 139.002502 
L 142.234688 139.002502 
L 142.234688 69.320002 
L 98.888438 69.320002 
L 98.888438 139.002502 
z
" style="fill: none"/>
    </g>
    <path d="M 102.766111 124.021237 
L 102.766111 119.968127 
L 107.851766 119.968127 
L 107.851766 123.313988 
L 118.72911 123.313988 
L 118.72911 124.021237 
L 102.766111 124.021237 
z
" style="fill: #9c68af"/>
   </g>
   <g id="text_33">
    <g id="patch_25">
     <path d="M 98.888438 133.120884 
L 142.234688 133.120884 
L 142.234688 63.438384 
L 98.888438 63.438384 
L 98.888438 133.120884 
z
" style="fill: none"/>
    </g>
    <path d="M 112.060393 118.13944 
L 106.974739 118.13944 
L 106.974739 114.706357 
L 100.438404 114.706357 
L 100.438404 113.989991 
L 118.591212 113.989991 
L 118.591212 114.706357 
L 112.060393 114.706357 
L 112.060393 118.13944 
z
" style="fill: #a170b3"/>
   </g>
   <g id="text_34">
    <g id="patch_26">
     <path d="M 98.888438 127.128741 
L 142.234688 127.128741 
L 142.234688 57.446241 
L 98.888438 57.446241 
L 98.888438 127.128741 
z
" style="fill: none"/>
    </g>
    <path d="M 101.855989 108.510439 
L 101.855989 107.74178 
L 117.179143 107.74178 
L 117.179143 108.510439 
L 112.060393 108.510439 
L 112.060393 111.378164 
L 117.179143 111.378164 
L 117.179143 112.146823 
L 101.855989 112.146823 
L 101.855989 111.378164 
L 106.974739 111.378164 
L 106.974739 108.510439 
L 101.855989 108.510439 
z
" style="fill: #965eaa"/>
   </g>
   <g id="text_35">
    <g id="patch_27">
     <path d="M 98.888438 120.791228 
L 142.234688 120.791228 
L 142.234688 51.108728 
L 98.888438 51.108728 
L 98.888438 120.791228 
z
" style="fill: none"/>
    </g>
    <path d="M 118.056171 100.609689 
L 107.112636 100.609689 
L 107.112636 101.963507 
L 117.074341 101.963507 
L 117.074341 103.061863 
L 107.112636 103.061863 
L 107.112636 105.805807 
L 102.026981 105.805807 
L 102.026981 99.511334 
L 118.056171 99.511334 
L 118.056171 100.609689 
z
" style="fill: #945aa8"/>
   </g>
   <g id="text_36">
    <g id="patch_28">
     <path d="M 98.888438 112.33791 
L 142.234688 112.33791 
L 142.234688 42.65541 
L 98.888438 42.65541 
L 98.888438 112.33791 
z
" style="fill: none"/>
    </g>
    <path d="M 107.680773 92.889278 
Q 103.836195 92.335642 102.473769 91.727891 
Q 101.111343 91.120139 101.111343 90.091957 
Q 101.111343 88.772388 103.350796 88.018943 
Q 105.595765 87.263416 109.506534 87.263416 
Q 111.282652 87.263416 113.05877 87.417435 
Q 114.834888 87.569373 116.572395 87.867005 
L 116.572395 89.740211 
Q 114.934174 89.305211 113.246311 89.078345 
Q 111.558447 88.849397 109.903679 88.849397 
Q 108.06137 88.849397 107.074025 89.130378 
Q 106.092196 89.409278 106.092196 89.929613 
Q 106.092196 90.333393 106.809262 90.597723 
Q 107.526328 90.859972 109.798877 91.178417 
L 111.988687 91.490618 
Q 115.094135 91.919374 116.555847 92.629111 
Q 118.023075 93.338848 118.023075 94.416982 
Q 118.023075 95.88849 115.717431 96.612796 
Q 113.417303 97.337102 108.767404 97.337102 
Q 106.853389 97.337102 104.928342 97.166432 
Q 103.008811 96.993681 101.216145 96.654423 
L 101.216145 94.670906 
Q 103.25151 95.218298 105.154494 95.48471 
Q 107.057477 95.751121 108.921849 95.751121 
Q 110.797254 95.751121 111.828726 95.430595 
Q 112.865714 95.107987 112.865714 94.527293 
Q 112.865714 94.092293 112.176227 93.763441 
Q 111.48674 93.43459 110.179473 93.247269 
L 107.680773 92.889278 
z
" style="fill: #7b3294"/>
   </g>
   <g id="text_37">
    <g id="patch_29">
     <path d="M 98.888438 99.913215 
L 142.234688 99.913215 
L 142.234688 30.230715 
L 98.888438 30.230715 
L 98.888438 99.913215 
z
" style="fill: none"/>
    </g>
    <path d="M 99.48967 73.953187 
L 103.68175 73.953187 
L 105.419256 82.002562 
L 107.526328 76.799724 
L 111.508804 76.799724 
L 113.935797 82.002562 
L 115.314771 73.953187 
L 119.539946 73.953187 
L 116.748904 84.919133 
L 112.264481 84.919133 
L 109.506534 79.165061 
L 106.91958 84.919133 
L 102.490317 84.919133 
L 99.48967 73.953187 
z
" style="fill: #7b3294"/>
   </g>
   <g id="text_38">
    <g id="patch_30">
     <path d="M 139.838437 194.450603 
L 183.184687 194.450603 
L 183.184687 124.768103 
L 139.838437 124.768103 
L 139.838437 194.450603 
z
" style="fill: none"/>
    </g>
    <path d="M 154.86925 178.640808 
L 154.86925 177.847545 
L 151.38872 177.847545 
L 151.38872 177.156783 
L 159.315061 177.156783 
L 159.315061 179.061504 
Q 157.853349 179.264722 156.082746 179.369896 
Q 154.31766 179.474179 152.298843 179.474179 
Q 147.301443 179.474179 144.576591 178.912656 
Q 141.857255 178.351133 141.857255 177.31811 
Q 141.857255 176.268151 144.60417 175.713759 
Q 147.356602 175.159367 152.541542 175.159367 
Q 154.091509 175.159367 155.591832 175.230671 
Q 157.092155 175.301976 158.404938 175.435671 
L 158.404938 176.345695 
Q 157.334855 176.122868 155.944849 176.010564 
Q 154.56036 175.897368 152.905591 175.897368 
Q 150.009747 175.897368 148.575614 176.250325 
Q 147.146998 176.602391 147.146998 177.31811 
Q 147.146998 178.011546 148.525971 178.374307 
Q 149.904945 178.736177 152.541542 178.736177 
Q 153.335831 178.736177 153.920516 178.713003 
Q 154.505201 178.688938 154.86925 178.640808 
z
" style="fill: #73c17f"/>
   </g>
   <g id="text_39">
    <g id="patch_31">
     <path d="M 139.838437 188.279046 
L 183.184687 188.279046 
L 183.184687 118.596546 
L 139.838437 118.596546 
L 139.838437 188.279046 
z
" style="fill: none"/>
    </g>
    <path d="M 148.630773 171.422952 
Q 144.786195 171.190067 143.423769 170.934418 
Q 142.061343 170.678769 142.061343 170.246268 
Q 142.061343 169.691195 144.300796 169.374261 
Q 146.545765 169.056451 150.456534 169.056451 
Q 152.232652 169.056451 154.00877 169.121239 
Q 155.784888 169.185151 157.522395 169.310349 
L 157.522395 170.098307 
Q 155.884174 169.915326 154.196311 169.819895 
Q 152.508447 169.723589 150.853679 169.723589 
Q 149.01137 169.723589 148.024025 169.841783 
Q 147.042196 169.959101 147.042196 170.177978 
Q 147.042196 170.347827 147.759262 170.459017 
Q 148.476328 170.569331 150.748877 170.703284 
L 152.938687 170.83461 
Q 156.044135 171.014965 157.505847 171.313513 
Q 158.973075 171.612062 158.973075 172.065576 
Q 158.973075 172.684561 156.667431 172.989238 
Q 154.367303 173.293915 149.717404 173.293915 
Q 147.803389 173.293915 145.878342 173.222123 
Q 143.958811 173.149456 142.166145 173.006748 
L 142.166145 172.172388 
Q 144.20151 172.402647 146.104494 172.514712 
Q 148.007477 172.626777 149.871849 172.626777 
Q 151.747254 172.626777 152.778726 172.491949 
Q 153.815714 172.356245 153.815714 172.111978 
Q 153.815714 171.928996 153.126227 171.790666 
Q 152.43674 171.652335 151.129473 171.57354 
L 148.630773 171.422952 
z
" style="fill: #afc8b0"/>
   </g>
   <g id="text_40">
    <g id="patch_32">
     <path d="M 139.838437 182.190003 
L 183.184687 182.190003 
L 183.184687 112.507503 
L 139.838437 112.507503 
L 139.838437 182.190003 
z
" style="fill: none"/>
    </g>
    <path d="M 150.456534 164.586952 
L 148.062636 165.900614 
L 152.872496 165.900614 
L 150.456534 164.586952 
z
M 147.356602 164.006542 
L 153.57853 164.006542 
L 160.523041 167.216253 
L 155.437387 167.216253 
L 153.854325 166.421731 
L 147.042196 166.421731 
L 145.492229 167.216253 
L 140.406575 167.216253 
L 147.356602 164.006542 
z
" style="fill: #abd0a9"/>
   </g>
   <g id="text_41">
    <g id="patch_33">
     <path d="M 139.838437 177.232871 
L 183.184687 177.232871 
L 183.184687 107.550371 
L 139.838437 107.550371 
L 139.838437 177.232871 
z
" style="fill: none"/>
    </g>
    <path d="M 141.89035 159.270042 
L 147.356602 159.270042 
L 154.527264 161.439168 
L 154.527264 159.270042 
L 159.006171 159.270042 
L 159.006171 162.253589 
L 153.57853 162.253589 
L 146.369256 160.084463 
L 146.369256 162.253589 
L 141.89035 162.253589 
L 141.89035 159.270042 
z
" style="fill: #aad2a7"/>
   </g>
   <g id="text_42">
    <g id="patch_34">
     <path d="M 139.838437 172.506352 
L 183.184687 172.506352 
L 183.184687 102.823852 
L 139.838437 102.823852 
L 139.838437 172.506352 
z
" style="fill: none"/>
    </g>
    <path d="M 153.749523 156.17665 
Q 154.505201 156.193157 155.067822 156.256238 
Q 155.630443 156.31873 156.435764 156.497362 
L 161.091179 157.527296 
L 155.509093 157.527296 
L 152.403645 156.805104 
Q 152.265748 156.773269 152.045112 156.72021 
Q 150.682686 156.39596 148.834861 156.39596 
L 147.218704 156.39596 
L 147.218704 157.527296 
L 142.13305 157.527296 
L 142.13305 154.665648 
L 149.474705 154.665648 
Q 154.43901 154.665648 156.601241 154.861376 
Q 158.763471 155.056515 158.763471 155.498674 
Q 158.763471 155.793446 157.472752 155.967951 
Q 156.182033 156.141867 153.749523 156.17665 
z
M 147.218704 155.14141 
L 147.218704 155.920787 
L 149.612602 155.920787 
Q 151.69761 155.920787 152.602217 155.830587 
Q 153.506824 155.739797 153.506824 155.52992 
Q 153.506824 155.32181 152.607733 155.23161 
Q 151.714158 155.14141 149.612602 155.14141 
L 147.218704 155.14141 
z
" style="fill: #71c07e"/>
   </g>
   <g id="text_43">
    <g id="patch_35">
     <path d="M 139.838437 167.911007 
L 183.184687 167.911007 
L 183.184687 98.228507 
L 139.838437 98.228507 
L 139.838437 167.911007 
z
" style="fill: none"/>
    </g>
    <path d="M 141.857255 150.233793 
L 146.942909 150.233793 
L 146.942909 151.300613 
L 154.902345 150.233793 
L 160.660939 150.233793 
L 152.541542 151.297278 
L 160.953281 152.932254 
L 155.299489 152.932254 
L 149.19891 151.717557 
L 146.942909 152.018313 
L 146.942909 152.932254 
L 141.857255 152.932254 
L 141.857255 150.233793 
z
" style="fill: #84ca8b"/>
   </g>
   <g id="text_44">
    <g id="patch_36">
     <path d="M 139.838437 163.491268 
L 183.184687 163.491268 
L 183.184687 93.808768 
L 139.838437 93.808768 
L 139.838437 163.491268 
z
" style="fill: none"/>
    </g>
    <path d="M 153.010393 148.512711 
L 147.924739 148.512711 
L 147.924739 146.367956 
L 141.388404 146.367956 
L 141.388404 145.92042 
L 159.541212 145.92042 
L 159.541212 146.367956 
L 153.010393 146.367956 
L 153.010393 148.512711 
z
" style="fill: #b4bfb7"/>
   </g>
   <g id="text_45">
    <g id="patch_37">
     <path d="M 139.838437 159.185777 
L 183.184687 159.185777 
L 183.184687 89.503277 
L 139.838437 89.503277 
L 139.838437 159.185777 
z
" style="fill: none"/>
    </g>
    <path d="M 150.456534 143.95529 
L 154.990599 142.668747 
L 160.109349 142.668747 
L 153.992223 144.209171 
L 146.942909 144.209171 
L 140.820267 142.668747 
L 145.939017 142.668747 
L 150.456534 143.95529 
z
" style="fill: #adcdac"/>
   </g>
   <g id="text_46">
    <g id="patch_38">
     <path d="M 139.838437 156.012196 
L 183.184687 156.012196 
L 183.184687 86.329696 
L 139.838437 86.329696 
L 139.838437 156.012196 
z
" style="fill: none"/>
    </g>
    <path d="M 142.19924 139.682293 
L 147.284895 139.682293 
L 147.284895 140.198206 
L 153.644721 140.198206 
L 153.644721 139.682293 
L 158.730376 139.682293 
L 158.730376 141.035937 
L 153.644721 141.035937 
L 153.644721 140.433574 
L 147.284895 140.433574 
L 147.284895 141.035937 
L 142.19924 141.035937 
L 142.19924 139.682293 
z
" style="fill: #b1c4b3"/>
   </g>
   <g id="text_47">
    <g id="patch_39">
     <path d="M 139.838437 153.039609 
L 183.184687 153.039609 
L 183.184687 83.357109 
L 139.838437 83.357109 
L 139.838437 153.039609 
z
" style="fill: none"/>
    </g>
    <path d="M 158.763471 138.064249 
L 142.734282 138.064249 
L 142.734282 137.195733 
L 158.763471 137.195733 
L 158.763471 137.347285 
L 147.819937 137.347285 
L 147.819937 137.534086 
L 157.731999 137.534086 
L 157.731999 137.685638 
L 147.819937 137.685638 
L 147.819937 137.912697 
L 158.763471 137.912697 
L 158.763471 138.064249 
z
" style="fill: #beacc8"/>
   </g>
   <g id="text_48">
    <g id="patch_40">
     <path d="M 139.838437 151.089127 
L 183.184687 151.089127 
L 183.184687 81.406627 
L 139.838437 81.406627 
L 139.838437 151.089127 
z
" style="fill: none"/>
    </g>
    <path d="M 147.284895 135.827724 
L 147.284895 136.052406 
L 148.663869 136.052406 
Q 151.664515 136.052406 152.938687 136.026785 
Q 154.212858 136.001093 154.212858 135.939705 
Q 154.212858 135.878749 152.938687 135.853273 
Q 151.664515 135.827724 148.663869 135.827724 
L 147.284895 135.827724 
z
M 142.19924 135.765401 
L 147.648944 135.765401 
Q 153.953611 135.765401 156.728106 135.806278 
Q 159.508117 135.847084 159.508117 135.939705 
Q 159.508117 136.032615 156.728106 136.073708 
Q 153.953611 136.114729 147.648944 136.114729 
L 142.19924 136.114729 
L 142.19924 135.765401 
z
" style="fill: #be9fcc"/>
   </g>
   <g id="text_49">
    <g id="patch_41">
     <path d="M 139.838437 150.304618 
L 183.184687 150.304618 
L 183.184687 80.622118 
L 139.838437 80.622118 
L 139.838437 150.304618 
z
" style="fill: none"/>
    </g>
    <path d="M 159.006171 135.330868 
L 148.062636 135.330868 
L 148.062636 135.330868 
L 158.024341 135.330868 
L 158.024341 135.330868 
L 148.062636 135.330868 
L 148.062636 135.330868 
L 142.976981 135.330868 
L 142.976981 135.330868 
L 159.006171 135.330868 
L 159.006171 135.330868 
z
" style="fill: #b3c0b7"/>
   </g>
   <g id="text_50">
    <g id="patch_42">
     <path d="M 139.838437 149.982436 
L 183.184687 149.982436 
L 183.184687 80.299936 
L 139.838437 80.299936 
L 139.838437 149.982436 
z
" style="fill: none"/>
    </g>
    <path d="M 140.43967 134.742523 
L 144.63175 134.742523 
L 146.369256 134.937534 
L 148.476328 134.811486 
L 152.458804 134.811486 
L 154.885797 134.937534 
L 156.264771 134.742523 
L 160.489946 134.742523 
L 157.698904 135.008193 
L 153.214481 135.008193 
L 150.456534 134.86879 
L 147.86958 135.008193 
L 143.440317 135.008193 
L 140.43967 134.742523 
z
" style="fill: #acceaa"/>
   </g>
   <g id="text_51">
    <g id="patch_43">
     <path d="M 139.838437 148.506086 
L 183.184687 148.506086 
L 183.184687 78.823586 
L 139.838437 78.823586 
L 139.838437 148.506086 
z
" style="fill: none"/>
    </g>
    <path d="M 158.471129 133.483742 
Q 157.263148 133.506814 155.933817 133.518248 
Q 154.610003 133.529682 153.148291 133.529682 
Q 147.941286 133.529682 145.199887 133.402887 
Q 142.458487 133.275888 142.458487 133.035978 
Q 142.458487 132.795456 145.199887 132.668457 
Q 147.941286 132.541458 153.148291 132.541458 
Q 154.610003 132.541458 155.955881 132.552892 
Q 157.301759 132.564326 158.471129 132.587398 
L 158.471129 132.796681 
Q 157.163862 132.751966 155.928301 132.731344 
Q 154.698257 132.710518 153.385474 132.710518 
Q 150.594432 132.710518 149.171331 132.792598 
Q 147.74823 132.874473 147.74823 133.035978 
Q 147.74823 133.196667 149.171331 133.278747 
Q 150.594432 133.360622 153.385474 133.360622 
Q 154.698257 133.360622 155.928301 133.34 
Q 157.163862 133.319174 158.471129 133.274459 
L 158.471129 133.483742 
z
" style="fill: #b28cc2"/>
   </g>
   <g id="text_52">
    <g id="patch_44">
     <path d="M 139.838437 145.906774 
L 183.184687 145.906774 
L 183.184687 76.224274 
L 139.838437 76.224274 
L 139.838437 145.906774 
z
" style="fill: none"/>
    </g>
    <path d="M 142.805989 129.788675 
L 142.805989 129.547325 
L 158.129143 129.547325 
L 158.129143 129.788675 
L 153.010393 129.788675 
L 153.010393 130.689109 
L 158.129143 130.689109 
L 158.129143 130.93046 
L 142.805989 130.93046 
L 142.805989 130.689109 
L 147.924739 130.689109 
L 147.924739 129.788675 
L 142.805989 129.788675 
z
" style="fill: #b3c1b6"/>
   </g>
   <g id="text_53">
    <g id="patch_45">
     <path d="M 139.838437 142.773562 
L 183.184687 142.773562 
L 183.184687 73.091062 
L 139.838437 73.091062 
L 139.838437 142.773562 
z
" style="fill: none"/>
    </g>
    <path d="M 141.322213 123.414177 
L 147.389697 123.414177 
L 150.456534 125.334189 
L 153.506824 123.414177 
L 159.607403 123.414177 
L 159.607403 127.791695 
L 155.233299 127.791695 
L 155.233299 124.285352 
L 152.508447 126.199051 
L 148.45978 126.199051 
L 145.701833 124.285352 
L 145.701833 127.791695 
L 141.322213 127.791695 
L 141.322213 123.414177 
z
" style="fill: #bdadc7"/>
   </g>
   <g id="text_54">
    <g id="patch_46">
     <path d="M 139.838437 136.324508 
L 183.184687 136.324508 
L 183.184687 66.642008 
L 139.838437 66.642008 
L 139.838437 136.324508 
z
" style="fill: none"/>
    </g>
    <path d="M 143.716111 121.333057 
L 143.716111 111.786641 
L 148.801766 111.786641 
L 148.801766 119.667253 
L 159.67911 119.667253 
L 159.67911 121.333057 
L 143.716111 121.333057 
z
" style="fill: #bb9ac9"/>
   </g>
   <g id="text_55">
    <g id="patch_47">
     <path d="M 180.788438 170.479915 
L 224.134688 170.479915 
L 224.134688 100.797415 
L 180.788438 100.797415 
L 180.788438 170.479915 
z
" style="fill: none"/>
    </g>
    <path d="M 188.234895 152.664062 
L 188.234895 154.883988 
L 189.613869 154.883988 
Q 192.614515 154.883988 193.888687 154.630851 
Q 195.162858 154.377003 195.162858 153.77047 
Q 195.162858 153.168203 193.888687 152.916488 
Q 192.614515 152.664062 189.613869 152.664062 
L 188.234895 152.664062 
z
M 183.14924 152.048285 
L 188.598944 152.048285 
Q 194.903611 152.048285 197.678106 152.452166 
Q 200.458117 152.855337 200.458117 153.77047 
Q 200.458117 154.688447 197.678106 155.094462 
Q 194.903611 155.499765 188.598944 155.499765 
L 183.14924 155.499765 
L 183.14924 152.048285 
z
" style="fill: #acceab"/>
   </g>
   <g id="text_56">
    <g id="patch_48">
     <path d="M 180.788438 165.249854 
L 224.134688 165.249854 
L 224.134688 95.567354 
L 180.788438 95.567354 
L 180.788438 165.249854 
z
" style="fill: none"/>
    </g>
    <path d="M 188.665135 148.517421 
L 188.665135 149.135302 
L 190.750143 149.135302 
Q 193.248843 149.135302 194.258252 149.066359 
Q 195.26766 148.996983 195.26766 148.826144 
Q 195.26766 148.655306 194.258252 148.586363 
Q 193.248843 148.517421 190.750143 148.517421 
L 188.665135 148.517421 
z
M 183.57948 148.167505 
L 190.562602 148.167505 
Q 195.890956 148.167505 198.22418 148.322734 
Q 200.557403 148.477963 200.557403 148.826144 
Q 200.557403 149.174326 198.22418 149.329555 
Q 195.890956 149.484783 190.562602 149.484783 
L 188.665135 149.484783 
L 188.665135 150.272202 
L 183.57948 150.272202 
L 183.57948 148.167505 
z
" style="fill: #afc8b0"/>
   </g>
   <g id="text_57">
    <g id="patch_49">
     <path d="M 180.788438 161.469062 
L 224.134688 161.469062 
L 224.134688 91.786562 
L 180.788438 91.786562 
L 180.788438 161.469062 
z
" style="fill: none"/>
    </g>
    <path d="M 199.713471 146.491585 
L 183.684282 146.491585 
L 183.684282 144.481261 
L 199.713471 144.481261 
L 199.713471 144.832053 
L 188.769937 144.832053 
L 188.769937 145.264434 
L 198.681999 145.264434 
L 198.681999 145.615226 
L 188.769937 145.615226 
L 188.769937 146.140793 
L 199.713471 146.140793 
L 199.713471 146.491585 
z
" style="fill: #afc7b0"/>
   </g>
   <g id="text_58">
    <g id="patch_50">
     <path d="M 180.788438 157.789825 
L 224.134688 157.789825 
L 224.134688 88.107325 
L 180.788438 88.107325 
L 180.788438 157.789825 
z
" style="fill: none"/>
    </g>
    <path d="M 182.84035 141.779738 
L 188.306602 141.779738 
L 195.477264 142.531791 
L 195.477264 141.779738 
L 199.956171 141.779738 
L 199.956171 142.814157 
L 194.52853 142.814157 
L 187.319256 142.062104 
L 187.319256 142.814157 
L 182.84035 142.814157 
L 182.84035 141.779738 
z
" style="fill: #b1c4b3"/>
   </g>
   <g id="text_59">
    <g id="patch_51">
     <path d="M 180.788438 155.466764 
L 224.134688 155.466764 
L 224.134688 85.784264 
L 180.788438 85.784264 
L 180.788438 155.466764 
z
" style="fill: none"/>
    </g>
    <path d="M 191.406534 139.654125 
L 189.012636 140.073254 
L 193.822496 140.073254 
L 191.406534 139.654125 
z
M 188.306602 139.468943 
L 194.52853 139.468943 
L 201.473041 140.493014 
L 196.387387 140.493014 
L 194.804325 140.239518 
L 187.992196 140.239518 
L 186.442229 140.493014 
L 181.356575 140.493014 
L 188.306602 139.468943 
z
" style="fill: #b2c3b4"/>
   </g>
   <g id="text_60">
    <g id="patch_52">
     <path d="M 180.788438 153.175439 
L 224.134688 153.175439 
L 224.134688 83.492939 
L 180.788438 83.492939 
L 180.788438 153.175439 
z
" style="fill: none"/>
    </g>
    <path d="M 183.755989 137.562384 
L 183.755989 137.427551 
L 199.079143 137.427551 
L 199.079143 137.562384 
L 193.960393 137.562384 
L 193.960393 138.065423 
L 199.079143 138.065423 
L 199.079143 138.200256 
L 183.755989 138.200256 
L 183.755989 138.065423 
L 188.874739 138.065423 
L 188.874739 137.562384 
L 183.755989 137.562384 
z
" style="fill: #b4bfb7"/>
   </g>
   <g id="text_61">
    <g id="patch_53">
     <path d="M 180.788438 151.440125 
L 224.134688 151.440125 
L 224.134688 81.757625 
L 180.788438 81.757625 
L 180.788438 151.440125 
z
" style="fill: none"/>
    </g>
    <path d="M 193.960393 136.465816 
L 188.874739 136.465816 
L 188.874739 136.216548 
L 182.338404 136.216548 
L 182.338404 136.164535 
L 200.491212 136.164535 
L 200.491212 136.216548 
L 193.960393 136.216548 
L 193.960393 136.465816 
z
" style="fill: #b3c1b6"/>
   </g>
   <g id="text_62">
    <g id="patch_54">
     <path d="M 180.788438 150.763518 
L 224.134688 150.763518 
L 224.134688 81.081018 
L 180.788438 81.081018 
L 180.788438 150.763518 
z
" style="fill: none"/>
    </g>
    <path d="M 195.81925 135.75028 
L 195.81925 135.712814 
L 192.33872 135.712814 
L 192.33872 135.680188 
L 200.265061 135.680188 
L 200.265061 135.77015 
Q 198.803349 135.779748 197.032746 135.784716 
Q 195.26766 135.789641 193.248843 135.789641 
Q 188.251443 135.789641 185.526591 135.76312 
Q 182.807255 135.736599 182.807255 135.687808 
Q 182.807255 135.638217 185.55417 135.612033 
Q 188.306602 135.585848 193.491542 135.585848 
Q 195.041509 135.585848 196.541832 135.589216 
Q 198.042155 135.592584 199.354938 135.598899 
L 199.354938 135.64188 
Q 198.284855 135.631356 196.894849 135.626051 
Q 195.51036 135.620705 193.855591 135.620705 
Q 190.959747 135.620705 189.525614 135.637375 
Q 188.096998 135.654004 188.096998 135.687808 
Q 188.096998 135.72056 189.475971 135.737693 
Q 190.854945 135.754785 193.491542 135.754785 
Q 194.285831 135.754785 194.870516 135.75369 
Q 195.455201 135.752554 195.81925 135.75028 
z
" style="fill: #b1c4b3"/>
   </g>
   <g id="text_63">
    <g id="patch_55">
     <path d="M 180.788438 150.304618 
L 224.134688 150.304618 
L 224.134688 80.622118 
L 180.788438 80.622118 
L 180.788438 150.304618 
z
" style="fill: none"/>
    </g>
    <path d="M 189.580773 135.330868 
Q 185.736195 135.330868 184.373769 135.330868 
Q 183.011343 135.330868 183.011343 135.330868 
Q 183.011343 135.330868 185.250796 135.330868 
Q 187.495765 135.330868 191.406534 135.330868 
Q 193.182652 135.330868 194.95877 135.330868 
Q 196.734888 135.330868 198.472395 135.330868 
L 198.472395 135.330868 
Q 196.834174 135.330868 195.146311 135.330868 
Q 193.458447 135.330868 191.803679 135.330868 
Q 189.96137 135.330868 188.974025 135.330868 
Q 187.992196 135.330868 187.992196 135.330868 
Q 187.992196 135.330868 188.709262 135.330868 
Q 189.426328 135.330868 191.698877 135.330868 
L 193.888687 135.330868 
Q 196.994135 135.330868 198.455847 135.330868 
Q 199.923075 135.330868 199.923075 135.330868 
Q 199.923075 135.330868 197.617431 135.330868 
Q 195.317303 135.330868 190.667404 135.330868 
Q 188.753389 135.330868 186.828342 135.330868 
Q 184.908811 135.330868 183.116145 135.330868 
L 183.116145 135.330868 
Q 185.15151 135.330868 187.054494 135.330868 
Q 188.957477 135.330868 190.821849 135.330868 
Q 192.697254 135.330868 193.728726 135.330868 
Q 194.765714 135.330868 194.765714 135.330868 
Q 194.765714 135.330868 194.076227 135.330868 
Q 193.38674 135.330868 192.079473 135.330868 
L 189.580773 135.330868 
z
" style="fill: #b3c0b7"/>
   </g>
   <g id="text_64">
    <g id="patch_56">
     <path d="M 180.788438 149.913887 
L 224.134688 149.913887 
L 224.134688 80.231387 
L 180.788438 80.231387 
L 180.788438 149.913887 
z
" style="fill: none"/>
    </g>
    <path d="M 184.666111 134.939539 
L 184.666111 134.617343 
L 189.751766 134.617343 
L 189.751766 134.883318 
L 200.62911 134.883318 
L 200.62911 134.939539 
L 184.666111 134.939539 
z
" style="fill: #beabc8"/>
   </g>
   <g id="text_65">
    <g id="patch_57">
     <path d="M 180.788438 148.887436 
L 224.134688 148.887436 
L 224.134688 79.204936 
L 180.788438 79.204936 
L 180.788438 148.887436 
z
" style="fill: none"/>
    </g>
    <path d="M 199.956171 133.440483 
L 189.012636 133.440483 
L 189.012636 133.563497 
L 198.974341 133.563497 
L 198.974341 133.663298 
L 189.012636 133.663298 
L 189.012636 133.912626 
L 183.926981 133.912626 
L 183.926981 133.340681 
L 199.956171 133.340681 
L 199.956171 133.440483 
z
" style="fill: #beabc8"/>
   </g>
   <g id="text_66">
    <g id="patch_58">
     <path d="M 180.788438 147.566423 
L 224.134688 147.566423 
L 224.134688 77.883923 
L 180.788438 77.883923 
L 180.788438 147.566423 
z
" style="fill: none"/>
    </g>
    <path d="M 182.272213 131.989465 
L 188.339697 131.989465 
L 191.406534 132.253547 
L 194.456824 131.989465 
L 200.557403 131.989465 
L 200.557403 132.591557 
L 196.183299 132.591557 
L 196.183299 132.109288 
L 193.458447 132.372501 
L 189.40978 132.372501 
L 186.651833 132.109288 
L 186.651833 132.591557 
L 182.272213 132.591557 
L 182.272213 131.989465 
z
" style="fill: #b7b8bd"/>
   </g>
   <g id="text_67">
    <g id="patch_59">
     <path d="M 180.788438 146.152229 
L 224.134688 146.152229 
L 224.134688 76.469729 
L 180.788438 76.469729 
L 180.788438 146.152229 
z
" style="fill: none"/>
    </g>
    <path d="M 194.699523 130.868947 
Q 195.455201 130.872715 196.017822 130.887115 
Q 196.580443 130.90138 197.385764 130.942158 
L 202.041179 131.177268 
L 196.459093 131.177268 
L 193.353645 131.012408 
Q 193.215748 131.005141 192.995112 130.993029 
Q 191.632686 130.91901 189.784861 130.91901 
L 188.168704 130.91901 
L 188.168704 131.177268 
L 183.08305 131.177268 
L 183.08305 130.52402 
L 190.424705 130.52402 
Q 195.38901 130.52402 197.551241 130.5687 
Q 199.713471 130.613246 199.713471 130.714181 
Q 199.713471 130.78147 198.422752 130.821306 
Q 197.132033 130.861007 194.699523 130.868947 
z
M 188.168704 130.632626 
L 188.168704 130.810539 
L 190.562602 130.810539 
Q 192.64761 130.810539 193.552217 130.789949 
Q 194.456824 130.769224 194.456824 130.721313 
Q 194.456824 130.673807 193.557733 130.653216 
Q 192.664158 130.632626 190.562602 130.632626 
L 188.168704 130.632626 
z
" style="fill: #bab4c1"/>
   </g>
   <g id="text_68">
    <g id="patch_60">
     <path d="M 180.788438 144.446408 
L 224.134688 144.446408 
L 224.134688 74.763908 
L 180.788438 74.763908 
L 180.788438 144.446408 
z
" style="fill: none"/>
    </g>
    <path d="M 192.096021 129.353911 
Q 191.853322 129.355488 191.687845 129.356013 
Q 191.527884 129.356538 191.373439 129.356538 
Q 186.944176 129.356538 184.660595 129.263888 
Q 182.377015 129.171062 182.377015 128.989964 
Q 182.377015 128.808165 184.660595 128.715164 
Q 186.944176 128.622163 191.406534 128.622163 
Q 195.890956 128.622163 198.174537 128.715164 
Q 200.458117 128.808165 200.458117 128.989964 
Q 200.458117 129.114666 199.371486 129.198734 
Q 198.284855 129.282803 196.216394 129.318883 
L 199.421129 129.405403 
L 195.940599 129.476512 
L 192.096021 129.353911 
z
M 191.406534 128.747916 
Q 189.459423 128.747916 188.560333 128.805188 
Q 187.666758 128.862459 187.666758 128.989964 
Q 187.666758 129.116943 188.560333 129.174214 
Q 189.459423 129.231311 191.406534 129.231311 
Q 193.370193 129.231311 194.263768 129.174214 
Q 195.162858 129.116943 195.162858 128.989964 
Q 195.162858 128.862459 194.263768 128.805188 
Q 193.370193 128.747916 191.406534 128.747916 
z
" style="fill: #b9b6c0"/>
   </g>
   <g id="text_69">
    <g id="patch_61">
     <path d="M 180.788438 141.890629 
L 224.134688 141.890629 
L 224.134688 72.208129 
L 180.788438 72.208129 
L 180.788438 141.890629 
z
" style="fill: none"/>
    </g>
    <path d="M 180.926335 123.155657 
L 186.409134 123.155657 
L 191.406534 124.663858 
L 196.420482 123.155657 
L 201.903281 123.155657 
L 193.960393 125.430334 
L 193.960393 126.909918 
L 188.874739 126.909918 
L 188.874739 125.430334 
L 180.926335 123.155657 
z
" style="fill: #bdadc7"/>
   </g>
   <g id="text_70">
    <g id="patch_62">
     <path d="M 180.788438 135.934877 
L 224.134688 135.934877 
L 224.134688 66.252377 
L 180.788438 66.252377 
L 180.788438 135.934877 
z
" style="fill: none"/>
    </g>
    <path d="M 181.38967 107.892818 
L 185.58175 107.892818 
L 187.319256 117.467645 
L 189.426328 111.278808 
L 193.408804 111.278808 
L 195.835797 117.467645 
L 197.214771 107.892818 
L 201.439946 107.892818 
L 198.648904 120.936941 
L 194.164481 120.936941 
L 191.406534 114.092404 
L 188.81958 120.936941 
L 184.390317 120.936941 
L 181.38967 107.892818 
z
" style="fill: #9c68af"/>
   </g>
   <g id="text_71">
    <g id="patch_63">
     <path d="M 221.738438 173.334022 
L 265.084688 173.334022 
L 265.084688 103.651522 
L 221.738438 103.651522 
L 221.738438 173.334022 
z
" style="fill: none"/>
    </g>
    <path d="M 234.910393 158.339833 
L 229.824739 158.339833 
L 229.824739 149.219887 
L 223.288404 149.219887 
L 223.288404 147.31687 
L 241.441212 147.31687 
L 241.441212 149.219887 
L 234.910393 149.219887 
L 234.910393 158.339833 
z
" style="fill: #008837"/>
   </g>
   <g id="text_72">
    <g id="patch_64">
     <path d="M 221.738438 159.956322 
L 265.084688 159.956322 
L 265.084688 90.273822 
L 221.738438 90.273822 
L 221.738438 159.956322 
z
" style="fill: none"/>
    </g>
    <path d="M 232.356534 144.380455 
L 236.890599 141.363172 
L 242.009349 141.363172 
L 235.892223 144.975874 
L 228.842909 144.975874 
L 222.720267 141.363172 
L 227.839017 141.363172 
L 232.356534 144.380455 
z
" style="fill: #8cce8f"/>
   </g>
   <g id="text_73">
    <g id="patch_65">
     <path d="M 221.738438 154.552773 
L 265.084688 154.552773 
L 265.084688 84.870273 
L 221.738438 84.870273 
L 221.738438 154.552773 
z
" style="fill: none"/>
    </g>
    <path d="M 240.663471 139.576986 
L 224.634282 139.576986 
L 224.634282 138.478505 
L 240.663471 138.478505 
L 240.663471 138.670185 
L 229.719937 138.670185 
L 229.719937 138.906446 
L 239.631999 138.906446 
L 239.631999 139.098126 
L 229.719937 139.098126 
L 229.719937 139.385306 
L 240.663471 139.385306 
L 240.663471 139.576986 
z
" style="fill: #afc7b0"/>
   </g>
   <g id="text_74">
    <g id="patch_66">
     <path d="M 221.738438 152.085843 
L 265.084688 152.085843 
L 265.084688 82.403343 
L 221.738438 82.403343 
L 221.738438 152.085843 
z
" style="fill: none"/>
    </g>
    <path d="M 223.222213 136.481607 
L 229.289697 136.481607 
L 232.356534 136.757631 
L 235.406824 136.481607 
L 241.507403 136.481607 
L 241.507403 137.110926 
L 237.133299 137.110926 
L 237.133299 136.606849 
L 234.408447 136.881965 
L 230.35978 136.881965 
L 227.601833 136.606849 
L 227.601833 137.110926 
L 223.222213 137.110926 
L 223.222213 136.481607 
z
" style="fill: #afc7b0"/>
   </g>
   <g id="text_75">
    <g id="patch_67">
     <path d="M 221.738438 150.672542 
L 265.084688 150.672542 
L 265.084688 80.990042 
L 221.738438 80.990042 
L 221.738438 150.672542 
z
" style="fill: none"/>
    </g>
    <path d="M 229.184895 135.563887 
L 229.184895 135.669259 
L 230.563869 135.669259 
Q 233.564515 135.669259 234.838687 135.657243 
Q 236.112858 135.645194 236.112858 135.616404 
Q 236.112858 135.587816 234.838687 135.575868 
Q 233.564515 135.563887 230.563869 135.563887 
L 229.184895 135.563887 
z
M 224.09924 135.534658 
L 229.548944 135.534658 
Q 235.853611 135.534658 238.628106 135.553829 
Q 241.408117 135.572966 241.408117 135.616404 
Q 241.408117 135.659977 238.628106 135.679249 
Q 235.853611 135.698488 229.548944 135.698488 
L 224.09924 135.698488 
L 224.09924 135.534658 
z
" style="fill: #b2c3b4"/>
   </g>
   <g id="text_76">
    <g id="patch_68">
     <path d="M 221.738438 150.304618 
L 265.084688 150.304618 
L 265.084688 80.622118 
L 221.738438 80.622118 
L 221.738438 150.304618 
z
" style="fill: none"/>
    </g>
    <path d="M 225.616111 135.330868 
L 225.616111 135.330868 
L 230.701766 135.330868 
L 230.701766 135.330868 
L 241.57911 135.330868 
L 241.57911 135.330868 
L 225.616111 135.330868 
z
" style="fill: #b3c0b7"/>
   </g>
   <g id="text_77">
    <g id="patch_69">
     <path d="M 221.738438 149.991005 
L 265.084688 149.991005 
L 265.084688 80.308505 
L 221.738438 80.308505 
L 221.738438 149.991005 
z
" style="fill: none"/>
    </g>
    <path d="M 224.705989 134.803296 
L 224.705989 134.75817 
L 240.029143 134.75817 
L 240.029143 134.803296 
L 234.910393 134.803296 
L 234.910393 134.97165 
L 240.029143 134.97165 
L 240.029143 135.016775 
L 224.705989 135.016775 
L 224.705989 134.97165 
L 229.824739 134.97165 
L 229.824739 134.803296 
L 224.705989 134.803296 
z
" style="fill: #b9b6c0"/>
   </g>
   <g id="text_78">
    <g id="patch_70">
     <path d="M 221.738438 149.10291 
L 265.084688 149.10291 
L 265.084688 79.42041 
L 221.738438 79.42041 
L 221.738438 149.10291 
z
" style="fill: none"/>
    </g>
    <path d="M 222.33967 133.616183 
L 226.53175 133.616183 
L 228.269256 133.992028 
L 230.376328 133.749095 
L 234.358804 133.749095 
L 236.785797 133.992028 
L 238.164771 133.616183 
L 242.389946 133.616183 
L 239.598904 134.12821 
L 235.114481 134.12821 
L 232.356534 133.859538 
L 229.76958 134.12821 
L 225.340317 134.12821 
L 222.33967 133.616183 
z
" style="fill: #bbb1c3"/>
   </g>
   <g id="text_79">
    <g id="patch_71">
     <path d="M 221.738438 146.859441 
L 265.084688 146.859441 
L 265.084688 77.176941 
L 221.738438 77.176941 
L 221.738438 146.859441 
z
" style="fill: none"/>
    </g>
    <path d="M 240.906171 128.068711 
L 229.962636 128.068711 
L 229.962636 129.060974 
L 239.924341 129.060974 
L 239.924341 129.865999 
L 229.962636 129.865999 
L 229.962636 131.877137 
L 224.876981 131.877137 
L 224.876981 127.263686 
L 240.906171 127.263686 
L 240.906171 128.068711 
z
" style="fill: #955daa"/>
   </g>
   <g id="text_80">
    <g id="patch_72">
     <path d="M 221.738438 140.108177 
L 265.084688 140.108177 
L 265.084688 70.425677 
L 221.738438 70.425677 
L 221.738438 140.108177 
z
" style="fill: none"/>
    </g>
    <path d="M 236.76925 123.027116 
L 236.76925 121.027642 
L 233.28872 121.027642 
L 233.28872 119.286527 
L 241.215061 119.286527 
L 241.215061 124.087511 
Q 239.753349 124.599736 237.982746 124.864835 
Q 236.21766 125.127687 234.198843 125.127687 
Q 229.201443 125.127687 226.476591 123.712329 
Q 223.757255 122.296971 223.757255 119.693162 
Q 223.757255 117.046667 226.50417 115.649281 
Q 229.256602 114.251896 234.441542 114.251896 
Q 235.991509 114.251896 237.491832 114.431624 
Q 238.992155 114.611352 240.304938 114.948342 
L 240.304938 117.242121 
Q 239.234855 116.680471 237.844849 116.397399 
Q 236.46036 116.112081 234.805591 116.112081 
Q 231.909747 116.112081 230.475614 117.001735 
Q 229.046998 117.889142 229.046998 119.693162 
Q 229.046998 121.441017 230.425971 122.355383 
Q 231.804945 123.267502 234.441542 123.267502 
Q 235.235831 123.267502 235.820516 123.209091 
Q 236.405201 123.148433 236.76925 123.027116 
z
" style="fill: #7b3294"/>
   </g>
   <g id="text_81">
    <g id="patch_73">
     <path d="M 242.213437 158.707201 
L 285.559687 158.707201 
L 285.559687 89.024701 
L 242.213437 89.024701 
L 242.213437 158.707201 
z
" style="fill: none"/>
    </g>
    <path d="M 256.124523 142.67841 
Q 256.880201 142.691254 257.442822 142.740336 
Q 258.005443 142.78896 258.810764 142.92795 
L 263.466179 143.729322 
L 257.884093 143.729322 
L 254.778645 143.167398 
Q 254.640748 143.142628 254.420112 143.101344 
Q 253.057686 142.849051 251.209861 142.849051 
L 249.593704 142.849051 
L 249.593704 143.729322 
L 244.50805 143.729322 
L 244.50805 141.502727 
L 251.849705 141.502727 
Q 256.81401 141.502727 258.976241 141.65502 
Q 261.138471 141.806854 261.138471 142.150889 
Q 261.138471 142.380246 259.847752 142.516025 
Q 258.557033 142.651346 256.124523 142.67841 
z
M 249.593704 141.872909 
L 249.593704 142.479328 
L 251.987602 142.479328 
Q 254.07261 142.479328 254.977217 142.409145 
Q 255.881824 142.338503 255.881824 142.175201 
Q 255.881824 142.013275 254.982733 141.943092 
Q 254.089158 141.872909 251.987602 141.872909 
L 249.593704 141.872909 
z
" style="fill: #7bc584"/>
   </g>
   <g id="text_82">
    <g id="patch_74">
     <path d="M 242.213437 154.795234 
L 285.559687 154.795234 
L 285.559687 85.112734 
L 242.213437 85.112734 
L 242.213437 154.795234 
z
" style="fill: none"/>
    </g>
    <path d="M 244.232255 138.584109 
L 249.317909 138.584109 
L 249.317909 139.072393 
L 257.277345 138.584109 
L 263.035939 138.584109 
L 254.916542 139.070866 
L 263.328281 139.819194 
L 257.674489 139.819194 
L 251.57391 139.263228 
L 249.317909 139.400884 
L 249.317909 139.819194 
L 244.232255 139.819194 
L 244.232255 138.584109 
z
" style="fill: #accdab"/>
   </g>
   <g id="text_83">
    <g id="patch_75">
     <path d="M 242.213437 152.021525 
L 285.559687 152.021525 
L 285.559687 82.339025 
L 242.213437 82.339025 
L 242.213437 152.021525 
z
" style="fill: none"/>
    </g>
    <path d="M 255.385393 137.046357 
L 250.299739 137.046357 
L 250.299739 136.413834 
L 243.763404 136.413834 
L 243.763404 136.281848 
L 261.916212 136.281848 
L 261.916212 136.413834 
L 255.385393 136.413834 
L 255.385393 137.046357 
z
" style="fill: #8ecf91"/>
   </g>
   <g id="text_84">
    <g id="patch_76">
     <path d="M 242.213437 150.304618 
L 285.559687 150.304618 
L 285.559687 80.622118 
L 242.213437 80.622118 
L 242.213437 150.304618 
z
" style="fill: none"/>
    </g>
    <path d="M 246.091111 135.330868 
L 246.091111 135.330868 
L 251.176766 135.330868 
L 251.176766 135.330868 
L 262.05411 135.330868 
L 262.05411 135.330868 
L 246.091111 135.330868 
z
" style="fill: #b3c0b7"/>
   </g>
   <g id="text_85">
    <g id="patch_77">
     <path d="M 242.213437 148.709342 
L 285.559687 148.709342 
L 285.559687 79.026842 
L 242.213437 79.026842 
L 242.213437 148.709342 
z
" style="fill: none"/>
    </g>
    <path d="M 251.005773 132.919175 
Q 247.161195 132.818167 245.798769 132.707286 
Q 244.436343 132.596405 244.436343 132.408819 
Q 244.436343 132.168071 246.675796 132.030609 
Q 248.920765 131.892767 252.831534 131.892767 
Q 254.607652 131.892767 256.38377 131.920867 
Q 258.159888 131.948587 259.897395 132.002889 
L 259.897395 132.344645 
Q 258.259174 132.265281 256.571311 132.223891 
Q 254.883447 132.182121 253.228679 132.182121 
Q 251.38637 132.182121 250.399025 132.233384 
Q 249.417196 132.284268 249.417196 132.3792 
Q 249.417196 132.452867 250.134262 132.501093 
Q 250.851328 132.548939 253.123877 132.607037 
L 255.313687 132.663997 
Q 258.419135 132.742221 259.880847 132.871708 
Q 261.348075 133.001196 261.348075 133.197896 
Q 261.348075 133.466364 259.042431 133.59851 
Q 256.742303 133.730655 252.092404 133.730655 
Q 250.178389 133.730655 248.253342 133.699518 
Q 246.333811 133.668 244.541145 133.606104 
L 244.541145 133.244223 
Q 246.57651 133.344091 248.479494 133.392697 
Q 250.382477 133.441302 252.246849 133.441302 
Q 254.122254 133.441302 255.153726 133.382824 
Q 256.190714 133.323966 256.190714 133.218021 
Q 256.190714 133.138658 255.501227 133.078661 
Q 254.81174 133.018664 253.504473 132.984488 
L 251.005773 132.919175 
z
" style="fill: #b8b8be"/>
   </g>
   <g id="text_86">
    <g id="patch_78">
     <path d="M 242.213437 145.209517 
L 285.559687 145.209517 
L 285.559687 75.527017 
L 242.213437 75.527017 
L 242.213437 145.209517 
z
" style="fill: none"/>
    </g>
    <path d="M 252.831534 129.926928 
L 257.365599 128.379297 
L 262.484349 128.379297 
L 256.367223 130.232331 
L 249.317909 130.232331 
L 243.195267 128.379297 
L 248.314017 128.379297 
L 252.831534 129.926928 
z
" style="fill: #b997c8"/>
   </g>
   <g id="text_87">
    <g id="patch_79">
     <path d="M 242.213437 141.681765 
L 285.559687 141.681765 
L 285.559687 71.999265 
L 242.213437 71.999265 
L 242.213437 141.681765 
z
" style="fill: none"/>
    </g>
    <path d="M 245.180989 124.833288 
L 245.180989 124.437896 
L 260.504143 124.437896 
L 260.504143 124.833288 
L 255.385393 124.833288 
L 255.385393 126.308422 
L 260.504143 126.308422 
L 260.504143 126.703814 
L 245.180989 126.703814 
L 245.180989 126.308422 
L 250.299739 126.308422 
L 250.299739 124.833288 
L 245.180989 124.833288 
z
" style="fill: #c1a5ce"/>
   </g>
   <g id="text_88">
    <g id="patch_80">
     <path d="M 242.213437 137.726976 
L 285.559687 137.726976 
L 285.559687 68.044476 
L 242.213437 68.044476 
L 242.213437 137.726976 
z
" style="fill: none"/>
    </g>
    <path d="M 244.26535 120.471289 
L 249.731602 120.471289 
L 256.902264 122.127254 
L 256.902264 120.471289 
L 261.381171 120.471289 
L 261.381171 122.749003 
L 255.95353 122.749003 
L 248.744256 121.093038 
L 248.744256 122.749003 
L 244.26535 122.749003 
L 244.26535 120.471289 
z
" style="fill: #bab4c1"/>
   </g>
   <g id="text_89">
    <g id="patch_81">
     <path d="M 242.213437 133.66437 
L 285.559687 133.66437 
L 285.559687 63.98187 
L 242.213437 63.98187 
L 242.213437 133.66437 
z
" style="fill: none"/>
    </g>
    <path d="M 253.521021 118.062148 
Q 253.278322 118.07049 253.112845 118.073271 
Q 252.952884 118.076052 252.798439 118.076052 
Q 248.369176 118.076052 246.085595 117.585696 
Q 243.802015 117.094412 243.802015 116.135945 
Q 243.802015 115.173771 246.085595 114.68156 
Q 248.369176 114.18935 252.831534 114.18935 
Q 257.315956 114.18935 259.599537 114.68156 
Q 261.883117 115.173771 261.883117 116.135945 
Q 261.883117 116.795934 260.796486 117.24087 
Q 259.709855 117.685806 257.641394 117.876758 
L 260.846129 118.334671 
L 257.365599 118.711013 
L 253.521021 118.062148 
z
M 252.831534 114.8549 
Q 250.884423 114.8549 249.985333 115.158013 
Q 249.091758 115.461126 249.091758 116.135945 
Q 249.091758 116.807984 249.985333 117.111097 
Q 250.884423 117.413283 252.831534 117.413283 
Q 254.795193 117.413283 255.688768 117.111097 
Q 256.587858 116.807984 256.587858 116.135945 
Q 256.587858 115.461126 255.688768 115.158013 
Q 254.795193 114.8549 252.831534 114.8549 
z
" style="fill: #b38ec3"/>
   </g>
   <g id="text_90">
    <g id="patch_82">
     <path d="M 242.213437 127.2578 
L 285.559687 127.2578 
L 285.559687 57.5753 
L 242.213437 57.5753 
L 242.213437 127.2578 
z
" style="fill: none"/>
    </g>
    <path d="M 242.351335 106.639743 
L 247.834134 106.639743 
L 252.831534 108.903037 
L 257.845482 106.639743 
L 263.328281 106.639743 
L 255.385393 110.053255 
L 255.385393 112.273604 
L 250.299739 112.273604 
L 250.299739 110.053255 
L 242.351335 106.639743 
z
" style="fill: #b28cc2"/>
   </g>
   <g id="text_91">
    <g id="patch_83">
     <path d="M 242.213437 119.613449 
L 285.559687 119.613449 
L 285.559687 49.930949 
L 242.213437 49.930949 
L 242.213437 119.613449 
z
" style="fill: none"/>
    </g>
    <path d="M 250.090135 98.653887 
L 250.090135 100.756891 
L 252.175143 100.756891 
Q 254.673843 100.756891 255.683252 100.52224 
Q 256.69266 100.286113 256.69266 99.704651 
Q 256.69266 99.123189 255.683252 98.888538 
Q 254.673843 98.653887 252.175143 98.653887 
L 250.090135 98.653887 
z
M 245.00448 97.462923 
L 251.987602 97.462923 
Q 257.315956 97.462923 259.64918 97.991257 
Q 261.982403 98.51959 261.982403 99.704651 
Q 261.982403 100.889712 259.64918 101.418045 
Q 257.315956 101.946379 251.987602 101.946379 
L 250.090135 101.946379 
L 250.090135 104.626417 
L 245.00448 104.626417 
L 245.00448 97.462923 
z
" style="fill: #85429c"/>
   </g>
   <g id="text_92">
    <g id="patch_84">
     <path d="M 242.213437 110.374098 
L 285.559687 110.374098 
L 285.559687 40.691598 
L 242.213437 40.691598 
L 242.213437 110.374098 
z
" style="fill: none"/>
    </g>
    <path d="M 261.381171 89.1889 
L 250.437636 89.1889 
L 250.437636 90.803629 
L 260.399341 90.803629 
L 260.399341 92.113663 
L 250.437636 92.113663 
L 250.437636 95.386428 
L 245.351981 95.386428 
L 245.351981 87.878866 
L 261.381171 87.878866 
L 261.381171 89.1889 
z
" style="fill: #803a98"/>
   </g>
   <g id="text_93">
    <g id="patch_85">
     <path d="M 242.213437 100.749687 
L 285.559687 100.749687 
L 285.559687 31.067187 
L 242.213437 31.067187 
L 242.213437 100.749687 
z
" style="fill: none"/>
    </g>
    <path d="M 242.81467 77.565041 
L 247.00675 77.565041 
L 248.744256 83.580961 
L 250.851328 79.692478 
L 254.833804 79.692478 
L 257.260797 83.580961 
L 258.639771 77.565041 
L 262.864946 77.565041 
L 260.073904 85.760741 
L 255.589481 85.760741 
L 252.831534 81.460278 
L 250.24458 85.760741 
L 245.815317 85.760741 
L 242.81467 77.565041 
z
" style="fill: #9a65ae"/>
   </g>
   <g id="text_94">
    <g id="patch_86">
     <path d="M 242.213437 90.382573 
L 285.559687 90.382573 
L 285.559687 20.700073 
L 242.213437 20.700073 
L 242.213437 90.382573 
z
" style="fill: none"/>
    </g>
    <path d="M 261.138471 75.392256 
L 245.109282 75.392256 
L 245.109282 66.457299 
L 261.138471 66.457299 
L 261.138471 68.016407 
L 250.194937 68.016407 
L 250.194937 69.93814 
L 260.106999 69.93814 
L 260.106999 71.497248 
L 250.194937 71.497248 
L 250.194937 73.833148 
L 261.138471 73.833148 
L 261.138471 75.392256 
z
" style="fill: #7b3294"/>
   </g>
   <g id="text_95">
    <g id="patch_87">
     <path d="M 242.213437 79.187196 
L 285.559687 79.187196 
L 285.559687 9.504696 
L 242.213437 9.504696 
L 242.213437 79.187196 
z
" style="fill: none"/>
    </g>
    <path d="M 249.659895 55.620722 
L 249.659895 62.332377 
L 251.038869 62.332377 
Q 254.039515 62.332377 255.313687 61.567051 
Q 256.587858 60.799574 256.587858 58.965801 
Q 256.587858 57.144926 255.313687 56.383899 
Q 254.039515 55.620722 251.038869 55.620722 
L 249.659895 55.620722 
z
M 244.57424 53.759001 
L 250.023944 53.759001 
Q 256.328611 53.759001 259.103106 54.980084 
Q 261.883117 56.199017 261.883117 58.965801 
Q 261.883117 61.741184 259.103106 62.968716 
Q 256.328611 64.194098 250.023944 64.194098 
L 244.57424 64.194098 
L 244.57424 53.759001 
z
" style="fill: #7b3294"/>
   </g>
   <g id="text_96">
    <g id="patch_88">
     <path d="M 283.163438 159.284242 
L 326.509688 159.284242 
L 326.509688 89.601742 
L 283.163438 89.601742 
L 283.163438 159.284242 
z
" style="fill: none"/>
    </g>
    <path d="M 285.52424 141.049588 
L 290.609895 141.049588 
L 290.609895 142.290113 
L 296.969721 142.290113 
L 296.969721 141.049588 
L 302.055376 141.049588 
L 302.055376 144.304457 
L 296.969721 144.304457 
L 296.969721 142.85606 
L 290.609895 142.85606 
L 290.609895 144.304457 
L 285.52424 144.304457 
L 285.52424 141.049588 
z
" style="fill: #a4da9e"/>
   </g>
   <g id="text_97">
    <g id="patch_89">
     <path d="M 283.163438 154.265754 
L 326.509688 154.265754 
L 326.509688 84.583254 
L 283.163438 84.583254 
L 283.163438 154.265754 
z
" style="fill: none"/>
    </g>
    <path d="M 285.21535 138.119754 
L 290.681602 138.119754 
L 297.852264 138.970437 
L 297.852264 138.119754 
L 302.331171 138.119754 
L 302.331171 139.289834 
L 296.90353 139.289834 
L 289.694256 138.439152 
L 289.694256 139.289834 
L 285.21535 139.289834 
L 285.21535 138.119754 
z
" style="fill: #aecbad"/>
   </g>
   <g id="text_98">
    <g id="patch_90">
     <path d="M 283.163438 151.638029 
L 326.509688 151.638029 
L 326.509688 81.955529 
L 283.163438 81.955529 
L 283.163438 151.638029 
z
" style="fill: none"/>
    </g>
    <path d="M 298.19425 136.559472 
L 298.19425 136.460027 
L 294.71372 136.460027 
L 294.71372 136.373432 
L 302.640061 136.373432 
L 302.640061 136.612211 
Q 301.178349 136.637686 299.407746 136.650871 
Q 297.64266 136.663944 295.623843 136.663944 
Q 290.626443 136.663944 287.901591 136.593551 
Q 285.182255 136.523158 285.182255 136.393656 
Q 285.182255 136.262032 287.92917 136.192533 
Q 290.681602 136.123033 295.866542 136.123033 
Q 297.416509 136.123033 298.916832 136.131972 
Q 300.417155 136.140911 301.729938 136.157671 
L 301.729938 136.271753 
Q 300.659855 136.243819 299.269849 136.229741 
Q 297.88536 136.21555 296.230591 136.21555 
Q 293.334747 136.21555 291.900614 136.259798 
Q 290.471998 136.303933 290.471998 136.393656 
Q 290.471998 136.480586 291.850971 136.526063 
Q 293.229945 136.571427 295.866542 136.571427 
Q 296.660831 136.571427 297.245516 136.568522 
Q 297.830201 136.565505 298.19425 136.559472 
z
" style="fill: #afc8b0"/>
   </g>
   <g id="text_99">
    <g id="patch_91">
     <path d="M 283.163438 150.420009 
L 326.509688 150.420009 
L 326.509688 80.737509 
L 283.163438 80.737509 
L 283.163438 150.420009 
z
" style="fill: none"/>
    </g>
    <path d="M 293.781534 135.437696 
L 298.315599 135.394782 
L 303.434349 135.394782 
L 297.317223 135.446164 
L 290.267909 135.446164 
L 284.145267 135.394782 
L 289.264017 135.394782 
L 293.781534 135.437696 
z
" style="fill: #b7b8bd"/>
   </g>
   <g id="text_100">
    <g id="patch_92">
     <path d="M 283.163438 150.304618 
L 326.509688 150.304618 
L 326.509688 80.622118 
L 283.163438 80.622118 
L 283.163438 150.304618 
z
" style="fill: none"/>
    </g>
    <path d="M 296.335393 135.330868 
L 291.249739 135.330868 
L 291.249739 135.330868 
L 284.713404 135.330868 
L 284.713404 135.330868 
L 302.866212 135.330868 
L 302.866212 135.330868 
L 296.335393 135.330868 
L 296.335393 135.330868 
z
" style="fill: #b3c0b7"/>
   </g>
   <g id="text_101">
    <g id="patch_93">
     <path d="M 283.163438 149.282547 
L 326.509688 149.282547 
L 326.509688 79.600047 
L 283.163438 79.600047 
L 283.163438 149.282547 
z
" style="fill: none"/>
    </g>
    <path d="M 302.088471 134.307235 
L 286.059282 134.307235 
L 286.059282 133.464438 
L 302.088471 133.464438 
L 302.088471 133.611502 
L 291.144937 133.611502 
L 291.144937 133.792771 
L 301.056999 133.792771 
L 301.056999 133.939835 
L 291.144937 133.939835 
L 291.144937 134.16017 
L 302.088471 134.16017 
L 302.088471 134.307235 
z
" style="fill: #8a4aa0"/>
   </g>
   <g id="text_102">
    <g id="patch_94">
     <path d="M 283.163438 146.736306 
L 326.509688 146.736306 
L 326.509688 77.053806 
L 283.163438 77.053806 
L 283.163438 146.736306 
z
" style="fill: none"/>
    </g>
    <path d="M 293.781534 128.712951 
L 291.387636 130.236607 
L 296.197496 130.236607 
L 293.781534 128.712951 
z
M 290.681602 128.039761 
L 296.90353 128.039761 
L 303.848041 131.762556 
L 298.762387 131.762556 
L 297.179325 130.841026 
L 290.367196 130.841026 
L 288.817229 131.762556 
L 283.731575 131.762556 
L 290.681602 128.039761 
z
" style="fill: #a779b8"/>
   </g>
   <g id="text_103">
    <g id="patch_95">
     <path d="M 283.163438 141.192103 
L 326.509688 141.192103 
L 326.509688 71.509603 
L 283.163438 71.509603 
L 283.163438 141.192103 
z
" style="fill: none"/>
    </g>
    <path d="M 291.040135 122.401142 
L 291.040135 123.742248 
L 293.125143 123.742248 
Q 295.623843 123.742248 296.633252 123.592609 
Q 297.64266 123.442028 297.64266 123.071224 
Q 297.64266 122.70042 296.633252 122.550781 
Q 295.623843 122.401142 293.125143 122.401142 
L 291.040135 122.401142 
z
M 285.95448 121.641653 
L 292.937602 121.641653 
Q 298.265956 121.641653 300.59918 121.978576 
Q 302.932403 122.315499 302.932403 123.071224 
Q 302.932403 123.826949 300.59918 124.163873 
Q 298.265956 124.500796 292.937602 124.500796 
L 291.040135 124.500796 
L 291.040135 126.209883 
L 285.95448 126.209883 
L 285.95448 121.641653 
z
" style="fill: #8e51a3"/>
   </g>
   <g id="text_104">
    <g id="patch_96">
     <path d="M 283.163438 134.750158 
L 326.509688 134.750158 
L 326.509688 65.067658 
L 283.163438 65.067658 
L 283.163438 134.750158 
z
" style="fill: none"/>
    </g>
    <path d="M 291.955773 117.648482 
Q 288.111195 117.385213 286.748769 117.096211 
Q 285.386343 116.807209 285.386343 116.318281 
Q 285.386343 115.690791 287.625796 115.332507 
Q 289.870765 114.973234 293.781534 114.973234 
Q 295.557652 114.973234 297.33377 115.046475 
Q 299.109888 115.118725 300.847395 115.260257 
L 300.847395 116.151016 
Q 299.209174 115.944162 297.521311 115.836281 
Q 295.833447 115.727411 294.178679 115.727411 
Q 292.33637 115.727411 291.349025 115.861025 
Q 290.367196 115.993649 290.367196 116.241082 
Q 290.367196 116.43309 291.084262 116.558786 
Q 291.801328 116.683493 294.073877 116.834922 
L 296.263687 116.983382 
Q 299.369135 117.187267 300.830847 117.524766 
Q 302.298075 117.862265 302.298075 118.374946 
Q 302.298075 119.074687 299.992431 119.419114 
Q 297.692303 119.763541 293.042404 119.763541 
Q 291.128389 119.763541 289.203342 119.682383 
Q 287.283811 119.600235 285.491145 119.438909 
L 285.491145 118.495694 
Q 287.52651 118.755993 289.429494 118.882679 
Q 291.332477 119.009365 293.196849 119.009365 
Q 295.072254 119.009365 296.103726 118.856946 
Q 297.140714 118.703537 297.140714 118.427402 
Q 297.140714 118.220548 296.451227 118.06417 
Q 295.76174 117.907792 294.454473 117.818716 
L 291.955773 117.648482 
z
" style="fill: #a374b6"/>
   </g>
   <g id="text_105">
    <g id="patch_97">
     <path d="M 283.163438 127.990685 
L 326.509688 127.990685 
L 326.509688 58.308185 
L 283.163438 58.308185 
L 283.163438 127.990685 
z
" style="fill: none"/>
    </g>
    <path d="M 284.647213 106.486239 
L 290.714697 106.486239 
L 293.781534 109.345349 
L 296.831824 106.486239 
L 302.932403 106.486239 
L 302.932403 113.004849 
L 298.558299 113.004849 
L 298.558299 107.783515 
L 295.833447 110.633225 
L 291.78478 110.633225 
L 289.026833 107.783515 
L 289.026833 113.004849 
L 284.647213 113.004849 
L 284.647213 106.486239 
z
" style="fill: #b189c1"/>
   </g>
   <g id="text_106">
    <g id="patch_98">
     <path d="M 283.163438 119.308193 
L 326.509688 119.308193 
L 326.509688 49.625693 
L 283.163438 49.625693 
L 283.163438 119.308193 
z
" style="fill: none"/>
    </g>
    <path d="M 290.609895 96.060658 
L 290.609895 102.523194 
L 291.988869 102.523194 
Q 294.989515 102.523194 296.263687 101.786274 
Q 297.537858 101.047285 297.537858 99.281576 
Q 297.537858 97.528287 296.263687 96.795507 
Q 294.989515 96.060658 291.988869 96.060658 
L 290.609895 96.060658 
z
M 285.52424 94.268039 
L 290.973944 94.268039 
Q 297.278611 94.268039 300.053106 95.443798 
Q 302.833117 96.617487 302.833117 99.281576 
Q 302.833117 101.953944 300.053106 103.135913 
Q 297.278611 104.315813 290.973944 104.315813 
L 285.52424 104.315813 
L 285.52424 94.268039 
z
" style="fill: #7b3294"/>
   </g>
   <g id="line2d_17">
    <path d="M 53.843438 135.330868 
L 307.733437 135.330868 
" clip-path="url(#peefb9f685a)" style="fill: none; stroke: #000000; stroke-linecap: square"/>
   </g>
  </g>
 </g>
 <defs>
  <clipPath id="peefb9f685a">
   <rect x="53.843438" y="43.084152" width="253.89" height="138.6"/>
  </clipPath>
 </defs>
</svg>
