<?xml version="1.0" encoding="utf-8" standalone="no"?>
<!DOCTYPE svg PUBLIC "-//W3C//DTD SVG 1.1//EN"
  "http://www.w3.org/Graphics/SVG/1.1/DTD/svg11.dtd">
<svg xmlns:xlink="http://www.w3.org/1999/xlink" width="354.717439pt" height="230.750964pt" viewBox="0 0 354.717439 230.750964" xmlns="http://www.w3.org/2000/svg" version="1.1">
 <metadata>
  <rdf:RDF xmlns:dc="http://purl.org/dc/elements/1.1/" xmlns:cc="http://creativecommons.org/ns#" xmlns:rdf="http://www.w3.org/1999/02/22-rdf-syntax-ns#">
   <cc:Work>
    <dc:type rdf:resource="http://purl.org/dc/dcmitype/StillImage"/>
    <dc:date>2025-07-18T11:12:15.424822</dc:date>
    <dc:format>image/svg+xml</dc:format>
    <dc:creator>
     <cc:Agent>
      <dc:title>Matplotlib v3.9.4, https://matplotlib.org/</dc:title>
     </cc:Agent>
    </dc:creator>
   </cc:Work>
  </rdf:RDF>
 </metadata>
 <defs>
  <style type="text/css">*{stroke-linejoin: round; stroke-linecap: butt}</style>
 </defs>
 <g id="figure_1">
  <g id="patch_1">
   <path d="M 0 230.750964 
L 354.717439 230.750964 
L 354.717439 0 
L 0 0 
z
" style="fill: #ffffff"/>
  </g>
  <g id="axes_1">
   <g id="patch_2">
    <path d="M 55.236563 183.121589 
L 328.656563 183.121589 
L 328.656563 44.521589 
L 55.236563 44.521589 
z
" style="fill: #ffffff"/>
   </g>
   <g id="matplotlib.axis_1">
    <g id="xtick_1">
     <g id="line2d_1">
      <defs>
       <path id="mf3e0eb801d" d="M 0 0 
L 0 5 
" style="stroke: #000000"/>
      </defs>
      <g>
       <use xlink:href="#mf3e0eb801d" x="69.519697" y="183.121589" style="stroke: #000000"/>
      </g>
     </g>
     <g id="text_1">
      <text style="font: 12px 'DejaVu Sans', 'Bitstream Vera Sans', 'Computer Modern Sans Serif', 'Lucida Grande', 'Verdana', 'Geneva', 'Lucid', 'Arial', 'Helvetica', 'Avant Garde', sans-serif" transform="translate(72.830947 223.504089) rotate(-90)">N405</text>
     </g>
    </g>
    <g id="xtick_2">
     <g id="line2d_2">
      <g>
       <use xlink:href="#mf3e0eb801d" x="110.328652" y="183.121589" style="stroke: #000000"/>
      </g>
     </g>
     <g id="text_2">
      <text style="font: 12px 'DejaVu Sans', 'Bitstream Vera Sans', 'Computer Modern Sans Serif', 'Lucida Grande', 'Verdana', 'Geneva', 'Lucid', 'Arial', 'Helvetica', 'Avant Garde', sans-serif" transform="translate(113.639902 222.395964) rotate(-90)">K440</text>
     </g>
    </g>
    <g id="xtick_3">
     <g id="line2d_3">
      <g>
       <use xlink:href="#mf3e0eb801d" x="151.137607" y="183.121589" style="stroke: #000000"/>
      </g>
     </g>
     <g id="text_3">
      <text style="font: 12px 'DejaVu Sans', 'Bitstream Vera Sans', 'Computer Modern Sans Serif', 'Lucida Grande', 'Verdana', 'Geneva', 'Lucid', 'Arial', 'Helvetica', 'Avant Garde', sans-serif" transform="translate(154.448857 221.212839) rotate(-90)">L456</text>
     </g>
    </g>
    <g id="xtick_4">
     <g id="line2d_4">
      <g>
       <use xlink:href="#mf3e0eb801d" x="191.946563" y="183.121589" style="stroke: #000000"/>
      </g>
     </g>
     <g id="text_4">
      <text style="font: 12px 'DejaVu Sans', 'Bitstream Vera Sans', 'Computer Modern Sans Serif', 'Lucida Grande', 'Verdana', 'Geneva', 'Lucid', 'Arial', 'Helvetica', 'Avant Garde', sans-serif" transform="translate(195.257813 222.735339) rotate(-90)">A475</text>
     </g>
    </g>
    <g id="xtick_5">
     <g id="line2d_5">
      <g>
       <use xlink:href="#mf3e0eb801d" x="232.755518" y="183.121589" style="stroke: #000000"/>
      </g>
     </g>
     <g id="text_5">
      <text style="font: 12px 'DejaVu Sans', 'Bitstream Vera Sans', 'Computer Modern Sans Serif', 'Lucida Grande', 'Verdana', 'Geneva', 'Lucid', 'Arial', 'Helvetica', 'Avant Garde', sans-serif" transform="translate(236.066768 222.109089) rotate(-90)">E493</text>
     </g>
    </g>
    <g id="xtick_6">
     <g id="line2d_6">
      <g>
       <use xlink:href="#mf3e0eb801d" x="273.564473" y="183.121589" style="stroke: #000000"/>
      </g>
     </g>
     <g id="text_6">
      <text style="font: 12px 'DejaVu Sans', 'Bitstream Vera Sans', 'Computer Modern Sans Serif', 'Lucida Grande', 'Verdana', 'Geneva', 'Lucid', 'Arial', 'Helvetica', 'Avant Garde', sans-serif" transform="translate(276.875723 222.735339) rotate(-90)">V503</text>
     </g>
    </g>
    <g id="xtick_7">
     <g id="line2d_7">
      <g>
       <use xlink:href="#mf3e0eb801d" x="314.373428" y="183.121589" style="stroke: #000000"/>
      </g>
     </g>
     <g id="text_7">
      <text style="font: 12px 'DejaVu Sans', 'Bitstream Vera Sans', 'Computer Modern Sans Serif', 'Lucida Grande', 'Verdana', 'Geneva', 'Lucid', 'Arial', 'Helvetica', 'Avant Garde', sans-serif" transform="translate(317.684678 223.550964) rotate(-90)">H505</text>
     </g>
    </g>
   </g>
   <g id="matplotlib.axis_2">
    <g id="ytick_1">
     <g id="line2d_8">
      <defs>
       <path id="mffdd0b5314" d="M 0 0 
L -5 0 
" style="stroke: #000000"/>
      </defs>
      <g>
       <use xlink:href="#mffdd0b5314" x="55.236563" y="142.110787" style="stroke: #000000"/>
      </g>
     </g>
     <g id="text_8">
      <text style="font: 12px 'DejaVu Sans', 'Bitstream Vera Sans', 'Computer Modern Sans Serif', 'Lucida Grande', 'Verdana', 'Geneva', 'Lucid', 'Arial', 'Helvetica', 'Avant Garde', sans-serif; text-anchor: end" x="46.736563" y="146.669849" transform="rotate(-0 46.736563 146.669849)">0.0</text>
     </g>
    </g>
    <g id="ytick_2">
     <g id="line2d_9">
      <g>
       <use xlink:href="#mffdd0b5314" x="55.236563" y="91.098265" style="stroke: #000000"/>
      </g>
     </g>
     <g id="text_9">
      <text style="font: 12px 'DejaVu Sans', 'Bitstream Vera Sans', 'Computer Modern Sans Serif', 'Lucida Grande', 'Verdana', 'Geneva', 'Lucid', 'Arial', 'Helvetica', 'Avant Garde', sans-serif; text-anchor: end" x="46.736563" y="95.657328" transform="rotate(-0 46.736563 95.657328)">1.5</text>
     </g>
    </g>
    <g id="text_10">
     <text style="font: 17px 'DejaVu Sans', 'Bitstream Vera Sans', 'Computer Modern Sans Serif', 'Lucida Grande', 'Verdana', 'Geneva', 'Lucid', 'Arial', 'Helvetica', 'Avant Garde', sans-serif; text-anchor: middle" x="20.117344" y="113.821589" transform="rotate(-90 20.117344 113.821589)">escape</text>
    </g>
   </g>
   <g id="line2d_10">
    <path d="M 89.924174 183.121589 
L 89.924174 44.521589 
" clip-path="url(#p87bbb8f5ee)" style="fill: none; stroke-dasharray: 2,5; stroke-dashoffset: 0; stroke: #000000"/>
   </g>
   <g id="line2d_11">
    <path d="M 130.73313 183.121589 
L 130.73313 44.521589 
" clip-path="url(#p87bbb8f5ee)" style="fill: none; stroke-dasharray: 2,5; stroke-dashoffset: 0; stroke: #000000"/>
   </g>
   <g id="line2d_12">
    <path d="M 171.542085 183.121589 
L 171.542085 44.521589 
" clip-path="url(#p87bbb8f5ee)" style="fill: none; stroke-dasharray: 2,5; stroke-dashoffset: 0; stroke: #000000"/>
   </g>
   <g id="line2d_13">
    <path d="M 212.35104 183.121589 
L 212.35104 44.521589 
" clip-path="url(#p87bbb8f5ee)" style="fill: none; stroke-dasharray: 2,5; stroke-dashoffset: 0; stroke: #000000"/>
   </g>
   <g id="line2d_14">
    <path d="M 253.159995 183.121589 
L 253.159995 44.521589 
" clip-path="url(#p87bbb8f5ee)" style="fill: none; stroke-dasharray: 2,5; stroke-dashoffset: 0; stroke: #000000"/>
   </g>
   <g id="line2d_15">
    <path d="M 293.968951 183.121589 
L 293.968951 44.521589 
" clip-path="url(#p87bbb8f5ee)" style="fill: none; stroke-dasharray: 2,5; stroke-dashoffset: 0; stroke: #000000"/>
   </g>
   <g id="patch_3">
    <path d="M 55.236563 183.121589 
L 55.236563 44.521589 
" style="fill: none; stroke: #000000; stroke-width: 0.8; stroke-linejoin: miter; stroke-linecap: square"/>
   </g>
   <g id="patch_4">
    <path d="M 55.236563 183.121589 
L 328.656563 183.121589 
" style="fill: none; stroke: #000000; stroke-width: 0.8; stroke-linejoin: miter; stroke-linecap: square"/>
   </g>
   <g id="text_11">
    <g id="patch_5">
     <path d="M 59.317458 194.120783 
L 102.663708 194.120783 
L 102.663708 124.438283 
L 59.317458 124.438283 
L 59.317458 194.120783 
z
" style="fill: none"/>
    </g>
    <path d="M 61.329322 164.964819 
L 66.39746 164.964819 
L 66.39746 170.561296 
L 74.329481 164.964819 
L 80.06824 164.964819 
L 71.976809 170.543798 
L 80.359576 179.120786 
L 74.725257 179.120786 
L 68.64569 172.748559 
L 66.39746 174.326305 
L 66.39746 179.120786 
L 61.329322 179.120786 
L 61.329322 164.964819 
z
" style="fill: #afc8b0"/>
   </g>
   <g id="text_12">
    <g id="patch_6">
     <path d="M 59.317458 177.371672 
L 102.663708 177.371672 
L 102.663708 107.689172 
L 59.317458 107.689172 
L 59.317458 177.371672 
z
" style="fill: none"/>
    </g>
    <path d="M 78.177308 162.390784 
L 62.203328 162.390784 
L 62.203328 158.540706 
L 78.177308 158.540706 
L 78.177308 159.212526 
L 67.271466 159.212526 
L 67.271466 160.040602 
L 77.149388 160.040602 
L 77.149388 160.712423 
L 67.271466 160.712423 
L 67.271466 161.718963 
L 78.177308 161.718963 
L 78.177308 162.390784 
z
" style="fill: #b3c1b6"/>
   </g>
   <g id="text_13">
    <g id="patch_7">
     <path d="M 59.317458 171.712683 
L 102.663708 171.712683 
L 102.663708 102.030183 
L 59.317458 102.030183 
L 59.317458 171.712683 
z
" style="fill: none"/>
    </g>
    <path d="M 72.444045 156.732205 
L 67.375907 156.732205 
L 67.375907 153.729841 
L 60.862086 153.729841 
L 60.862086 153.103351 
L 78.95237 153.103351 
L 78.95237 153.729841 
L 72.444045 153.729841 
L 72.444045 156.732205 
z
" style="fill: #afc8b0"/>
   </g>
   <g id="text_14">
    <g id="patch_8">
     <path d="M 59.317458 166.291753 
L 102.663708 166.291753 
L 102.663708 96.609253 
L 59.317458 96.609253 
L 59.317458 166.291753 
z
" style="fill: none"/>
    </g>
    <path d="M 69.898983 150.377456 
L 67.51333 150.847376 
L 72.306623 150.847376 
L 69.898983 150.377456 
z
M 66.809727 150.169834 
L 73.010226 150.169834 
L 79.930818 151.318003 
L 74.86268 151.318003 
L 73.285071 151.033788 
L 66.496404 151.033788 
L 64.951776 151.318003 
L 59.883638 151.318003 
L 66.809727 150.169834 
z
" style="fill: #aecaae"/>
   </g>
   <g id="text_15">
    <g id="patch_9">
     <path d="M 59.317458 163.722762 
L 102.663708 163.722762 
L 102.663708 94.040262 
L 59.317458 94.040262 
L 59.317458 163.722762 
z
" style="fill: none"/>
    </g>
    <path d="M 68.07951 148.387478 
Q 64.248174 148.342749 62.89044 148.293648 
Q 61.532707 148.244547 61.532707 148.161478 
Q 61.532707 148.054867 63.764447 147.993995 
Q 66.001683 147.932955 69.898983 147.932955 
Q 71.668983 147.932955 73.438984 147.945398 
Q 75.208984 147.957674 76.940506 147.98172 
L 76.940506 148.13306 
Q 75.307928 148.097915 73.625878 148.079586 
Q 71.943828 148.061089 70.294759 148.061089 
Q 68.458796 148.061089 67.474852 148.08379 
Q 66.496404 148.106323 66.496404 148.148362 
Q 66.496404 148.180984 67.211001 148.20234 
Q 67.925597 148.223527 70.190318 148.249255 
L 72.372586 148.274478 
Q 75.467338 148.309118 76.924016 148.366459 
Q 78.38619 148.4238 78.38619 148.510904 
Q 78.38619 148.62979 76.088487 148.688308 
Q 73.796282 148.746826 69.162399 148.746826 
Q 67.254976 148.746826 65.336559 148.733037 
Q 63.423639 148.719081 61.637148 148.691671 
L 61.637148 148.531419 
Q 63.665503 148.575644 65.561932 148.597168 
Q 67.458361 148.618692 69.316312 148.618692 
Q 71.185256 148.618692 72.213176 148.592796 
Q 73.246592 148.566732 73.246592 148.519817 
Q 73.246592 148.484672 72.55948 148.458104 
Q 71.872368 148.431535 70.569604 148.416401 
L 68.07951 148.387478 
z
" style="fill: #a8d6a3"/>
   </g>
   <g id="text_16">
    <g id="patch_10">
     <path d="M 59.317458 161.889712 
L 102.663708 161.889712 
L 102.663708 92.207212 
L 59.317458 92.207212 
L 59.317458 161.889712 
z
" style="fill: none"/>
    </g>
    <path d="M 66.738267 146.331009 
L 66.738267 146.787908 
L 68.112491 146.787908 
Q 71.102803 146.787908 72.372586 146.735808 
Q 73.642369 146.683561 73.642369 146.558727 
Q 73.642369 146.43477 72.372586 146.382963 
Q 71.102803 146.331009 68.112491 146.331009 
L 66.738267 146.331009 
z
M 61.670129 146.204272 
L 67.101063 146.204272 
Q 73.384015 146.204272 76.148953 146.287397 
Q 78.919389 146.370377 78.919389 146.558727 
Q 78.919389 146.747662 76.148953 146.831227 
Q 73.384015 146.914645 67.101063 146.914645 
L 61.670129 146.914645 
L 61.670129 146.204272 
z
" style="fill: #b0c7b1"/>
   </g>
   <g id="text_17">
    <g id="patch_11">
     <path d="M 59.317458 160.294381 
L 102.663708 160.294381 
L 102.663708 90.611881 
L 59.317458 90.611881 
L 59.317458 160.294381 
z
" style="fill: none"/>
    </g>
    <path d="M 69.898983 145.220281 
L 74.417431 144.717416 
L 79.51855 144.717416 
L 73.422493 145.319514 
L 66.39746 145.319514 
L 60.295905 144.717416 
L 65.397025 144.717416 
L 69.898983 145.220281 
z
" style="fill: #bbb1c4"/>
   </g>
   <g id="text_18">
    <g id="patch_12">
     <path d="M 59.317458 158.942209 
L 102.663708 158.942209 
L 102.663708 89.259709 
L 59.317458 89.259709 
L 59.317458 158.942209 
z
" style="fill: none"/>
    </g>
    <path d="M 74.296499 143.861238 
L 74.296499 143.759504 
L 70.827958 143.759504 
L 70.827958 143.670915 
L 78.726997 143.670915 
L 78.726997 143.915191 
Q 77.27032 143.941253 75.505816 143.954742 
Q 73.74681 143.968116 71.734946 143.968116 
Q 66.754758 143.968116 64.039292 143.896102 
Q 61.329322 143.824088 61.329322 143.691605 
Q 61.329322 143.55695 64.066776 143.48585 
Q 66.809727 143.41475 71.976809 143.41475 
Q 73.521437 143.41475 75.016593 143.423895 
Q 76.511748 143.43304 77.82001 143.450186 
L 77.82001 143.566894 
Q 76.753612 143.538317 75.368394 143.523915 
Q 73.988673 143.509397 72.339604 143.509397 
Q 69.453734 143.509397 68.024541 143.554663 
Q 66.600845 143.599815 66.600845 143.691605 
Q 66.600845 143.780536 67.975069 143.82706 
Q 69.349293 143.873469 71.976809 143.873469 
Q 72.768362 143.873469 73.351033 143.870497 
Q 73.933704 143.86741 74.296499 143.861238 
z
" style="fill: #afc7b0"/>
   </g>
   <g id="text_19">
    <g id="patch_13">
     <path d="M 59.317458 157.696143 
L 102.663708 157.696143 
L 102.663708 88.013643 
L 59.317458 88.013643 
L 59.317458 157.696143 
z
" style="fill: none"/>
    </g>
    <path d="M 61.670129 142.546253 
L 66.738267 142.546253 
L 66.738267 142.613261 
L 73.076188 142.613261 
L 73.076188 142.546253 
L 78.144327 142.546253 
L 78.144327 142.722067 
L 73.076188 142.722067 
L 73.076188 142.643831 
L 66.738267 142.643831 
L 66.738267 142.722067 
L 61.670129 142.722067 
L 61.670129 142.546253 
z
" style="fill: #b9b5c0"/>
   </g>
   <g id="text_20">
    <g id="patch_14">
     <path d="M 59.317458 157.301306 
L 102.663708 157.301306 
L 102.663708 87.618806 
L 59.317458 87.618806 
L 59.317458 157.301306 
z
" style="fill: none"/>
    </g>
    <path d="M 63.181776 142.327377 
L 63.181776 142.230853 
L 68.249914 142.230853 
L 68.249914 142.310534 
L 79.089793 142.310534 
L 79.089793 142.327377 
L 63.181776 142.327377 
z
" style="fill: #aecaae"/>
   </g>
   <g id="text_21">
    <g id="patch_15">
     <path d="M 59.317458 157.084537 
L 102.663708 157.084537 
L 102.663708 87.402037 
L 59.317458 87.402037 
L 59.317458 157.084537 
z
" style="fill: none"/>
    </g>
    <path d="M 61.362303 142.110787 
L 66.809727 142.110787 
L 73.955692 142.110787 
L 73.955692 142.110787 
L 78.419171 142.110787 
L 78.419171 142.110787 
L 73.010226 142.110787 
L 65.825783 142.110787 
L 65.825783 142.110787 
L 61.362303 142.110787 
L 61.362303 142.110787 
z
" style="fill: #b3c0b7"/>
   </g>
   <g id="text_22">
    <g id="patch_16">
     <path d="M 59.317458 156.817517 
L 102.663708 156.817517 
L 102.663708 87.135017 
L 59.317458 87.135017 
L 59.317458 156.817517 
z
" style="fill: none"/>
    </g>
    <path d="M 62.274788 141.661596 
L 62.274788 141.623175 
L 77.545165 141.623175 
L 77.545165 141.661596 
L 72.444045 141.661596 
L 72.444045 141.804937 
L 77.545165 141.804937 
L 77.545165 141.843359 
L 62.274788 141.843359 
L 62.274788 141.804937 
L 67.375907 141.804937 
L 67.375907 141.661596 
L 62.274788 141.661596 
z
" style="fill: #bab2c2"/>
   </g>
   <g id="text_23">
    <g id="patch_17">
     <path d="M 59.317458 155.805707 
L 102.663708 155.805707 
L 102.663708 86.123207 
L 59.317458 86.123207 
L 59.317458 155.805707 
z
" style="fill: none"/>
    </g>
    <path d="M 60.796123 140.183987 
L 66.842709 140.183987 
L 69.898983 140.467665 
L 72.938766 140.183987 
L 79.018333 140.183987 
L 79.018333 140.830758 
L 74.659295 140.830758 
L 74.659295 140.312701 
L 71.943828 140.595447 
L 67.909106 140.595447 
L 65.160658 140.312701 
L 65.160658 140.830758 
L 60.796123 140.830758 
L 60.796123 140.183987 
z
" style="fill: #aecbad"/>
   </g>
   <g id="text_24">
    <g id="patch_18">
     <path d="M 59.317458 153.517386 
L 102.663708 153.517386 
L 102.663708 83.834886 
L 59.317458 83.834886 
L 59.317458 153.517386 
z
" style="fill: none"/>
    </g>
    <path d="M 70.586095 138.20539 
Q 70.344231 138.20988 70.179324 138.211377 
Q 70.019914 138.212874 69.866001 138.212874 
Q 65.451994 138.212874 63.176279 137.948962 
Q 60.900564 137.684552 60.900564 137.168702 
Q 60.900564 136.650856 63.176279 136.385947 
Q 65.451994 136.121037 69.898983 136.121037 
Q 74.367959 136.121037 76.643674 136.385947 
Q 78.919389 136.650856 78.919389 137.168702 
Q 78.919389 137.52391 77.8365 137.763376 
Q 76.753612 138.002842 74.692276 138.105613 
L 77.885972 138.352063 
L 74.417431 138.554612 
L 70.586095 138.20539 
z
M 69.898983 136.479239 
Q 67.958578 136.479239 67.062584 136.642375 
Q 66.172087 136.805511 66.172087 137.168702 
Q 66.172087 137.530395 67.062584 137.693532 
Q 67.958578 137.856169 69.898983 137.856169 
Q 71.855878 137.856169 72.746375 137.693532 
Q 73.642369 137.530395 73.642369 137.168702 
Q 73.642369 136.805511 72.746375 136.642375 
Q 71.855878 136.479239 69.898983 136.479239 
z
" style="fill: #b5bdb9"/>
   </g>
   <g id="text_25">
    <g id="patch_19">
     <path d="M 59.317458 149.381835 
L 102.663708 149.381835 
L 102.663708 79.699335 
L 59.317458 79.699335 
L 59.317458 149.381835 
z
" style="fill: none"/>
    </g>
    <path d="M 78.419171 132.140463 
L 67.51333 132.140463 
L 67.51333 132.729955 
L 77.440724 132.729955 
L 77.440724 133.208211 
L 67.51333 133.208211 
L 67.51333 134.403003 
L 62.445192 134.403003 
L 62.445192 131.662207 
L 78.419171 131.662207 
L 78.419171 132.140463 
z
" style="fill: #beacc8"/>
   </g>
   <g id="text_26">
    <g id="patch_20">
     <path d="M 59.317458 144.685555 
L 102.663708 144.685555 
L 102.663708 75.003055 
L 59.317458 75.003055 
L 59.317458 144.685555 
z
" style="fill: none"/>
    </g>
    <path d="M 59.45488 121.589708 
L 64.918795 121.589708 
L 69.898983 124.846564 
L 74.895661 121.589708 
L 80.359576 121.589708 
L 72.444045 126.501714 
L 72.444045 129.696773 
L 67.375907 129.696773 
L 67.375907 126.501714 
L 59.45488 121.589708 
z
" style="fill: #c0a7cc"/>
   </g>
   <g id="text_27">
    <g id="patch_21">
     <path d="M 100.126413 157.084537 
L 143.472663 157.084537 
L 143.472663 87.402037 
L 100.126413 87.402037 
L 100.126413 157.084537 
z
" style="fill: none"/>
    </g>
    <path d="M 102.138277 142.110787 
L 107.206415 142.110787 
L 107.206415 142.110787 
L 115.138436 142.110787 
L 120.877195 142.110787 
L 112.785765 142.110787 
L 121.168531 142.110787 
L 115.534212 142.110787 
L 109.454646 142.110787 
L 107.206415 142.110787 
L 107.206415 142.110787 
L 102.138277 142.110787 
L 102.138277 142.110787 
z
" style="fill: #b3c0b7"/>
   </g>
   <g id="text_28">
    <g id="patch_22">
     <path d="M 100.126413 156.627444 
L 143.472663 156.627444 
L 143.472663 86.944944 
L 100.126413 86.944944 
L 100.126413 156.627444 
z
" style="fill: none"/>
    </g>
    <path d="M 103.083743 141.341848 
L 103.083743 141.276078 
L 118.35412 141.276078 
L 118.35412 141.341848 
L 113.253001 141.341848 
L 113.253001 141.587225 
L 118.35412 141.587225 
L 118.35412 141.652995 
L 103.083743 141.652995 
L 103.083743 141.587225 
L 108.184863 141.587225 
L 108.184863 141.341848 
L 103.083743 141.341848 
z
" style="fill: #c1a3ce"/>
   </g>
   <g id="text_29">
    <g id="patch_23">
     <path d="M 100.126413 155.754164 
L 143.472663 155.754164 
L 143.472663 86.071664 
L 100.126413 86.071664 
L 100.126413 155.754164 
z
" style="fill: none"/>
    </g>
    <path d="M 113.989585 140.591341 
Q 114.742659 140.593643 115.303343 140.602439 
Q 115.864026 140.611153 116.666573 140.636061 
L 121.305953 140.779674 
L 115.743095 140.779674 
L 112.648342 140.678972 
Q 112.51092 140.674533 112.291044 140.667135 
Q 110.933311 140.621922 109.09185 140.621922 
L 107.48126 140.621922 
L 107.48126 140.779674 
L 102.413122 140.779674 
L 102.413122 140.380648 
L 109.72949 140.380648 
Q 114.676697 140.380648 116.83148 140.40794 
Q 118.986263 140.43515 118.986263 140.496804 
Q 118.986263 140.537907 117.699989 140.56224 
Q 116.413716 140.586491 113.989585 140.591341 
z
M 107.48126 140.446988 
L 107.48126 140.555664 
L 109.866913 140.555664 
Q 111.944739 140.555664 112.84623 140.543086 
Q 113.747721 140.530427 113.747721 140.501161 
Q 113.747721 140.472143 112.851727 140.459565 
Q 111.96123 140.446988 109.866913 140.446988 
L 107.48126 140.446988 
z
" style="fill: #b7b9bc"/>
   </g>
   <g id="text_30">
    <g id="patch_24">
     <path d="M 100.126413 154.736655 
L 143.472663 154.736655 
L 143.472663 85.054155 
L 100.126413 85.054155 
L 100.126413 154.736655 
z
" style="fill: none"/>
    </g>
    <path d="M 103.990731 139.761979 
L 103.990731 139.262855 
L 109.058869 139.262855 
L 109.058869 139.674885 
L 119.898748 139.674885 
L 119.898748 139.761979 
L 103.990731 139.761979 
z
" style="fill: #bfa0cc"/>
   </g>
   <g id="text_31">
    <g id="patch_25">
     <path d="M 100.126413 152.640148 
L 143.472663 152.640148 
L 143.472663 82.957648 
L 100.126413 82.957648 
L 100.126413 152.640148 
z
" style="fill: none"/>
    </g>
    <path d="M 101.605078 136.154707 
L 107.651664 136.154707 
L 110.707938 136.816519 
L 113.747721 136.154707 
L 119.827288 136.154707 
L 119.827288 137.6636 
L 115.46825 137.6636 
L 115.46825 136.454994 
L 112.752783 137.114629 
L 108.718062 137.114629 
L 105.969614 136.454994 
L 105.969614 137.6636 
L 101.605078 137.6636 
L 101.605078 136.154707 
z
" style="fill: #b794c6"/>
   </g>
   <g id="text_32">
    <g id="patch_26">
     <path d="M 100.126413 149.434276 
L 143.472663 149.434276 
L 143.472663 79.751776 
L 100.126413 79.751776 
L 100.126413 149.434276 
z
" style="fill: none"/>
    </g>
    <path d="M 110.707938 131.954969 
L 108.322285 133.206806 
L 113.115578 133.206806 
L 110.707938 131.954969 
z
M 107.618682 131.401876 
L 113.819181 131.401876 
L 120.739773 134.460526 
L 115.671635 134.460526 
L 114.094026 133.703397 
L 107.305359 133.703397 
L 105.760732 134.460526 
L 100.692594 134.460526 
L 107.618682 131.401876 
z
" style="fill: #c0a2cd"/>
   </g>
   <g id="text_33">
    <g id="patch_27">
     <path d="M 100.126413 144.596793 
L 143.472663 144.596793 
L 143.472663 74.914293 
L 100.126413 74.914293 
L 100.126413 144.596793 
z
" style="fill: none"/>
    </g>
    <path d="M 107.975981 126.255395 
L 107.975981 127.438555 
L 110.053807 127.438555 
Q 112.543901 127.438555 113.549833 127.306539 
Q 114.555765 127.173693 114.555765 126.84656 
Q 114.555765 126.519427 113.549833 126.387411 
Q 112.543901 126.255395 110.053807 126.255395 
L 107.975981 126.255395 
z
M 102.907843 125.585353 
L 109.866913 125.585353 
Q 115.176914 125.585353 117.502101 125.882596 
Q 119.827288 126.179839 119.827288 126.84656 
Q 119.827288 127.513281 117.502101 127.810524 
Q 115.176914 128.107767 109.866913 128.107767 
L 107.975981 128.107767 
L 107.975981 129.61557 
L 102.907843 129.61557 
L 102.907843 125.585353 
z
" style="fill: #bc9cca"/>
   </g>
   <g id="text_34">
    <g id="patch_28">
     <path d="M 100.126413 138.715661 
L 143.472663 138.715661 
L 143.472663 69.033161 
L 100.126413 69.033161 
L 100.126413 138.715661 
z
" style="fill: none"/>
    </g>
    <path d="M 102.171259 119.04565 
L 107.618682 119.04565 
L 114.764647 122.45365 
L 114.764647 119.04565 
L 119.228127 119.04565 
L 119.228127 123.73322 
L 113.819181 123.73322 
L 106.634738 120.32522 
L 106.634738 123.73322 
L 102.171259 123.73322 
L 102.171259 119.04565 
z
" style="fill: #b997c8"/>
   </g>
   <g id="text_35">
    <g id="patch_29">
     <path d="M 100.126413 132.149329 
L 143.472663 132.149329 
L 143.472663 62.466829 
L 100.126413 62.466829 
L 100.126413 132.149329 
z
" style="fill: none"/>
    </g>
    <path d="M 102.479085 112.336839 
L 107.547223 112.336839 
L 107.547223 114.17761 
L 113.885144 114.17761 
L 113.885144 112.336839 
L 118.953282 112.336839 
L 118.953282 117.166624 
L 113.885144 117.166624 
L 113.885144 115.0174 
L 107.547223 115.0174 
L 107.547223 117.166624 
L 102.479085 117.166624 
L 102.479085 112.336839 
z
" style="fill: #bd9ecb"/>
   </g>
   <g id="text_36">
    <g id="patch_30">
     <path d="M 100.126413 125.409283 
L 143.472663 125.409283 
L 143.472663 55.726783 
L 100.126413 55.726783 
L 100.126413 125.409283 
z
" style="fill: none"/>
    </g>
    <path d="M 108.888465 108.020493 
Q 105.057129 107.721702 103.699396 107.393706 
Q 102.341662 107.06571 102.341662 106.510813 
Q 102.341662 105.798657 104.573402 105.392031 
Q 106.810639 104.984283 110.707938 104.984283 
Q 112.477938 104.984283 114.247939 105.067405 
Q 116.017939 105.149404 117.749462 105.310032 
L 117.749462 106.320979 
Q 116.116883 106.086215 114.434833 105.963778 
Q 112.752783 105.840218 111.103714 105.840218 
Q 109.267751 105.840218 108.283807 105.99186 
Q 107.305359 106.142379 107.305359 106.423197 
Q 107.305359 106.641113 108.019956 106.783768 
Q 108.734552 106.925301 110.999273 107.097162 
L 113.181541 107.265653 
Q 116.276293 107.497048 117.732971 107.880084 
Q 119.195145 108.263121 119.195145 108.844977 
Q 119.195145 109.639132 116.897443 110.030031 
Q 114.605237 110.420931 109.971354 110.420931 
Q 108.063931 110.420931 106.145514 110.328822 
Q 104.232594 110.23559 102.446103 110.052497 
L 102.446103 108.982016 
Q 104.474458 109.277437 106.370887 109.421216 
Q 108.267316 109.564996 110.125267 109.564996 
Q 111.994212 109.564996 113.022131 109.392011 
Q 114.055547 109.217904 114.055547 108.90451 
Q 114.055547 108.669746 113.368435 108.492269 
Q 112.681324 108.314791 111.378559 108.213697 
L 108.888465 108.020493 
z
" style="fill: #bc9cca"/>
   </g>
   <g id="text_37">
    <g id="patch_31">
     <path d="M 100.126413 118.010427 
L 143.472663 118.010427 
L 143.472663 48.327927 
L 100.126413 48.327927 
L 100.126413 118.010427 
z
" style="fill: none"/>
    </g>
    <path d="M 111.39505 102.224332 
Q 111.153186 102.235116 110.98828 102.23871 
Q 110.82887 102.242305 110.674956 102.242305 
Q 106.260949 102.242305 103.985234 101.608484 
Q 101.709519 100.973465 101.709519 99.734579 
Q 101.709519 98.490901 103.985234 97.854684 
Q 106.260949 97.218467 110.707938 97.218467 
Q 115.176914 97.218467 117.452629 97.854684 
Q 119.728344 98.490901 119.728344 99.734579 
Q 119.728344 100.587661 118.645456 101.162773 
Q 117.562567 101.737884 115.501231 101.984703 
L 118.694928 102.576588 
L 115.226386 103.063036 
L 111.39505 102.224332 
z
M 110.707938 98.078738 
Q 108.767534 98.078738 107.87154 98.470533 
Q 106.981042 98.862327 106.981042 99.734579 
Q 106.981042 100.603237 107.87154 100.995032 
Q 108.767534 101.385628 110.707938 101.385628 
Q 112.664833 101.385628 113.55533 100.995032 
Q 114.451324 100.603237 114.451324 99.734579 
Q 114.451324 98.862327 113.55533 98.470533 
Q 112.664833 98.078738 110.707938 98.078738 
z
" style="fill: #c0a2cd"/>
   </g>
   <g id="text_38">
    <g id="patch_32">
     <path d="M 100.126413 110.184018 
L 143.472663 110.184018 
L 143.472663 40.501518 
L 100.126413 40.501518 
L 100.126413 110.184018 
z
" style="fill: none"/>
    </g>
    <path d="M 115.105455 93.852501 
L 115.105455 92.564215 
L 111.636913 92.564215 
L 111.636913 91.442393 
L 119.535953 91.442393 
L 119.535953 94.535727 
Q 118.079275 94.86576 116.314772 95.036566 
Q 114.555765 95.205925 112.543901 95.205925 
Q 107.563713 95.205925 104.848247 94.293993 
Q 102.138277 93.38206 102.138277 91.704393 
Q 102.138277 89.999223 104.875731 89.09887 
Q 107.618682 88.198517 112.785765 88.198517 
Q 114.330392 88.198517 115.825548 88.314318 
Q 117.320704 88.430119 118.628965 88.647246 
L 118.628965 90.125156 
Q 117.562567 89.763278 116.177349 89.580892 
Q 114.797628 89.397057 113.14856 89.397057 
Q 110.262689 89.397057 108.833496 89.970272 
Q 107.4098 90.54204 107.4098 91.704393 
Q 107.4098 92.830557 108.784024 93.419695 
Q 110.158248 94.007385 112.785765 94.007385 
Q 113.577318 94.007385 114.159989 93.96975 
Q 114.742659 93.930667 115.105455 93.852501 
z
" style="fill: #bb9ac9"/>
   </g>
   <g id="text_39">
    <g id="patch_33">
     <path d="M 100.126413 101.088145 
L 143.472663 101.088145 
L 143.472663 31.405645 
L 100.126413 31.405645 
L 100.126413 101.088145 
z
" style="fill: none"/>
    </g>
    <path d="M 100.725575 78.631873 
L 104.903216 78.631873 
L 106.634738 84.114132 
L 108.734552 80.570589 
L 112.703311 80.570589 
L 115.121945 84.114132 
L 116.496169 78.631873 
L 120.706792 78.631873 
L 117.925362 86.100547 
L 113.456386 86.100547 
L 110.707938 82.18157 
L 108.129894 86.100547 
L 103.715886 86.100547 
L 100.725575 78.631873 
z
" style="fill: #b794c6"/>
   </g>
   <g id="text_40">
    <g id="patch_34">
     <path d="M 100.126413 91.339585 
L 143.472663 91.339585 
L 143.472663 21.657085 
L 100.126413 21.657085 
L 100.126413 91.339585 
z
" style="fill: none"/>
    </g>
    <path d="M 107.547223 66.473587 
L 107.547223 74.200281 
L 108.921447 74.200281 
Q 111.911758 74.200281 113.181541 73.31921 
Q 114.451324 72.435664 114.451324 70.324559 
Q 114.451324 68.228304 113.181541 67.352183 
Q 111.911758 66.473587 108.921447 66.473587 
L 107.547223 66.473587 
z
M 102.479085 64.330307 
L 107.910018 64.330307 
Q 114.19297 64.330307 116.957909 65.736061 
Q 119.728344 67.13934 119.728344 70.324559 
Q 119.728344 73.519679 116.957909 74.932857 
Q 114.19297 76.34356 107.910018 76.34356 
L 102.479085 76.34356 
L 102.479085 64.330307 
z
" style="fill: #a06eb3"/>
   </g>
   <g id="text_41">
    <g id="patch_35">
     <path d="M 100.126413 76.8825 
L 143.472663 76.8825 
L 143.472663 7.2 
L 100.126413 7.2 
L 100.126413 76.8825 
z
" style="fill: none"/>
    </g>
    <path d="M 118.986263 61.885884 
L 103.012284 61.885884 
L 103.012284 49.553436 
L 118.986263 49.553436 
L 118.986263 51.70539 
L 108.080422 51.70539 
L 108.080422 54.357857 
L 117.958344 54.357857 
L 117.958344 56.509811 
L 108.080422 56.509811 
L 108.080422 59.73393 
L 118.986263 59.73393 
L 118.986263 61.885884 
z
" style="fill: #955daa"/>
   </g>
   <g id="text_42">
    <g id="patch_36">
     <path d="M 140.935368 190.956511 
L 184.281618 190.956511 
L 184.281618 121.274011 
L 140.935368 121.274011 
L 140.935368 190.956511 
z
" style="fill: none"/>
    </g>
    <path d="M 160.037082 167.144295 
L 149.13124 167.144295 
L 149.13124 169.441944 
L 159.058634 169.441944 
L 159.058634 171.306033 
L 149.13124 171.306033 
L 149.13124 175.962953 
L 144.063102 175.962953 
L 144.063102 165.280206 
L 160.037082 165.280206 
L 160.037082 167.144295 
z
" style="fill: #7b3294"/>
   </g>
   <g id="text_43">
    <g id="patch_37">
     <path d="M 140.935368 177.944917 
L 184.281618 177.944917 
L 184.281618 108.262417 
L 140.935368 108.262417 
L 140.935368 177.944917 
z
" style="fill: none"/>
    </g>
    <path d="M 141.53453 153.2723 
L 145.712171 153.2723 
L 147.443693 160.37842 
L 149.543507 155.78527 
L 153.512266 155.78527 
L 155.930901 160.37842 
L 157.305124 153.2723 
L 161.515747 153.2723 
L 158.734317 162.953217 
L 154.265341 162.953217 
L 151.516893 157.873428 
L 148.938849 162.953217 
L 144.524841 162.953217 
L 141.53453 153.2723 
z
" style="fill: #7b3294"/>
   </g>
   <g id="text_44">
    <g id="patch_38">
     <path d="M 140.935368 166.011388 
L 184.281618 166.011388 
L 184.281618 96.328888 
L 140.935368 96.328888 
L 140.935368 166.011388 
z
" style="fill: none"/>
    </g>
    <path d="M 141.072791 148.63371 
L 146.536705 148.63371 
L 151.516893 149.597654 
L 156.513571 148.63371 
L 161.977486 148.63371 
L 154.061956 150.087535 
L 154.061956 151.033189 
L 148.993818 151.033189 
L 148.993818 150.087535 
L 141.072791 148.63371 
z
" style="fill: #7b3294"/>
   </g>
   <g id="text_45">
    <g id="patch_39">
     <path d="M 140.935368 161.913382 
L 184.281618 161.913382 
L 184.281618 92.230882 
L 140.935368 92.230882 
L 140.935368 161.913382 
z
" style="fill: none"/>
    </g>
    <path d="M 143.892698 145.564159 
L 143.892698 145.274064 
L 159.163075 145.274064 
L 159.163075 145.564159 
L 154.061956 145.564159 
L 154.061956 146.646454 
L 159.163075 146.646454 
L 159.163075 146.93655 
L 143.892698 146.93655 
L 143.892698 146.646454 
L 148.993818 146.646454 
L 148.993818 145.564159 
L 143.892698 145.564159 
z
" style="fill: #9962ac"/>
   </g>
   <g id="text_46">
    <g id="patch_40">
     <path d="M 140.935368 158.608451 
L 184.281618 158.608451 
L 184.281618 88.925951 
L 140.935368 88.925951 
L 140.935368 158.608451 
z
" style="fill: none"/>
    </g>
    <path d="M 142.414033 143.154526 
L 148.460619 143.154526 
L 151.516893 143.364744 
L 154.556677 143.154526 
L 160.636243 143.154526 
L 160.636243 143.633812 
L 156.277205 143.633812 
L 156.277205 143.249909 
L 153.561738 143.459436 
L 149.527017 143.459436 
L 146.778569 143.249909 
L 146.778569 143.633812 
L 142.414033 143.633812 
L 142.414033 143.154526 
z
" style="fill: #a97dba"/>
   </g>
   <g id="text_47">
    <g id="patch_41">
     <path d="M 140.935368 157.532087 
L 184.281618 157.532087 
L 184.281618 87.849587 
L 140.935368 87.849587 
L 140.935368 157.532087 
z
" style="fill: none"/>
    </g>
    <path d="M 143.28804 142.358681 
L 148.356178 142.358681 
L 148.356178 142.434635 
L 154.694099 142.434635 
L 154.694099 142.358681 
L 159.762237 142.358681 
L 159.762237 142.557967 
L 154.694099 142.557967 
L 154.694099 142.469286 
L 148.356178 142.469286 
L 148.356178 142.557967 
L 143.28804 142.557967 
L 143.28804 142.358681 
z
" style="fill: #c0a7cc"/>
   </g>
   <g id="text_48">
    <g id="patch_42">
     <path d="M 140.935368 157.084537 
L 184.281618 157.084537 
L 184.281618 87.402037 
L 140.935368 87.402037 
L 140.935368 157.084537 
z
" style="fill: none"/>
    </g>
    <path d="M 144.799686 142.110787 
L 144.799686 142.110787 
L 149.867824 142.110787 
L 149.867824 142.110787 
L 160.707703 142.110787 
L 160.707703 142.110787 
L 144.799686 142.110787 
z
" style="fill: #b3c0b7"/>
   </g>
   <g id="text_49">
    <g id="patch_43">
     <path d="M 140.935368 157.055447 
L 184.281618 157.055447 
L 184.281618 87.372947 
L 140.935368 87.372947 
L 140.935368 157.055447 
z
" style="fill: none"/>
    </g>
    <path d="M 155.91441 142.077062 
L 155.91441 142.072664 
L 152.445869 142.072664 
L 152.445869 142.068834 
L 160.344908 142.068834 
L 160.344908 142.079395 
Q 158.888231 142.080521 157.123727 142.081104 
Q 155.36472 142.081683 153.352856 142.081683 
Q 148.372669 142.081683 145.657202 142.078569 
Q 142.947232 142.075456 142.947232 142.069729 
Q 142.947232 142.063907 145.684687 142.060833 
Q 148.427638 142.05776 153.59472 142.05776 
Q 155.139347 142.05776 156.634503 142.058155 
Q 158.129659 142.05855 159.43792 142.059292 
L 159.43792 142.064337 
Q 158.371522 142.063102 156.986305 142.062479 
Q 155.606584 142.061851 153.957515 142.061851 
Q 151.071645 142.061851 149.642452 142.063808 
Q 148.218756 142.06576 148.218756 142.069729 
Q 148.218756 142.073573 149.59298 142.075584 
Q 150.967204 142.077591 153.59472 142.077591 
Q 154.386273 142.077591 154.968944 142.077462 
Q 155.551615 142.077329 155.91441 142.077062 
z
" style="fill: #7b3294"/>
   </g>
   <g id="text_50">
    <g id="patch_44">
     <path d="M 140.935368 156.265786 
L 184.281618 156.265786 
L 184.281618 86.583286 
L 140.935368 86.583286 
L 140.935368 156.265786 
z
" style="fill: none"/>
    </g>
    <path d="M 149.697421 141.012669 
Q 145.866084 140.978105 144.508351 140.940163 
Q 143.150618 140.902221 143.150618 140.838032 
Q 143.150618 140.755651 145.382357 140.708614 
Q 147.619594 140.661446 151.516893 140.661446 
Q 153.286894 140.661446 155.056894 140.671062 
Q 156.826895 140.680547 158.558417 140.699128 
L 158.558417 140.816072 
Q 156.925839 140.788915 155.243789 140.774752 
Q 153.561738 140.760459 151.91267 140.760459 
Q 150.076706 140.760459 149.092762 140.778001 
Q 148.114315 140.795412 148.114315 140.827897 
Q 148.114315 140.853105 148.828911 140.869607 
Q 149.543507 140.885979 151.808229 140.90586 
L 153.990496 140.92535 
Q 157.085249 140.952118 158.541926 140.996427 
Q 160.0041 141.040735 160.0041 141.108043 
Q 160.0041 141.19991 157.706398 141.245128 
Q 155.414192 141.290347 150.780309 141.290347 
Q 148.872886 141.290347 146.954469 141.279692 
Q 145.04155 141.268907 143.255059 141.247727 
L 143.255059 141.123896 
Q 145.283413 141.15807 147.179842 141.174702 
Q 149.076271 141.191334 150.934222 141.191334 
Q 152.803167 141.191334 153.831086 141.171323 
Q 154.864503 141.151183 154.864503 141.11493 
Q 154.864503 141.087773 154.177391 141.067243 
Q 153.490279 141.046713 152.187514 141.035018 
L 149.697421 141.012669 
z
" style="fill: #7b3294"/>
   </g>
   <g id="text_51">
    <g id="patch_45">
     <path d="M 140.935368 154.751639 
L 184.281618 154.751639 
L 184.281618 85.069139 
L 140.935368 85.069139 
L 140.935368 154.751639 
z
" style="fill: none"/>
    </g>
    <path d="M 151.516893 139.659342 
L 156.035342 139.065288 
L 161.136461 139.065288 
L 155.040403 139.77657 
L 148.01537 139.77657 
L 141.913816 139.065288 
L 147.014935 139.065288 
L 151.516893 139.659342 
z
" style="fill: #ac81bc"/>
   </g>
   <g id="text_52">
    <g id="patch_46">
     <path d="M 140.935368 152.701214 
L 184.281618 152.701214 
L 184.281618 83.018714 
L 140.935368 83.018714 
L 140.935368 152.701214 
z
" style="fill: none"/>
    </g>
    <path d="M 154.061956 137.725453 
L 148.993818 137.725453 
L 148.993818 136.827878 
L 142.479996 136.827878 
L 142.479996 136.640585 
L 160.570281 136.640585 
L 160.570281 136.827878 
L 154.061956 136.827878 
L 154.061956 137.725453 
z
" style="fill: #7b3294"/>
   </g>
   <g id="text_53">
    <g id="patch_47">
     <path d="M 140.935368 150.235106 
L 184.281618 150.235106 
L 184.281618 80.552606 
L 140.935368 80.552606 
L 140.935368 150.235106 
z
" style="fill: none"/>
    </g>
    <path d="M 151.516893 134.349198 
L 149.13124 134.804934 
L 153.924534 134.804934 
L 151.516893 134.349198 
z
M 148.427638 134.147842 
L 154.628136 134.147842 
L 161.548728 135.261356 
L 156.48059 135.261356 
L 154.902981 134.98572 
L 148.114315 134.98572 
L 146.569687 135.261356 
L 141.501549 135.261356 
L 148.427638 134.147842 
z
" style="fill: #7b3294"/>
   </g>
   <g id="text_54">
    <g id="patch_48">
     <path d="M 140.935368 147.647424 
L 184.281618 147.647424 
L 184.281618 77.964924 
L 140.935368 77.964924 
L 140.935368 147.647424 
z
" style="fill: none"/>
    </g>
    <path d="M 152.204005 132.507631 
Q 151.962142 132.509835 151.797235 132.51057 
Q 151.637825 132.511305 151.483912 132.511305 
Q 147.069904 132.511305 144.794189 132.381752 
Q 142.518474 132.251954 142.518474 131.998726 
Q 142.518474 131.744519 144.794189 131.614476 
Q 147.069904 131.484433 151.516893 131.484433 
Q 155.985869 131.484433 158.261584 131.614476 
Q 160.537299 131.744519 160.537299 131.998726 
Q 160.537299 132.173096 159.454411 132.290649 
Q 158.371522 132.408201 156.310186 132.458651 
L 159.503883 132.579632 
L 156.035342 132.679062 
L 152.204005 132.507631 
z
M 151.516893 131.660273 
Q 149.576489 131.660273 148.680495 131.740355 
Q 147.789998 131.820438 147.789998 131.998726 
Q 147.789998 132.17628 148.680495 132.256362 
Q 149.576489 132.3362 151.516893 132.3362 
Q 153.473788 132.3362 154.364285 132.256362 
Q 155.260279 132.17628 155.260279 131.998726 
Q 155.260279 131.820438 154.364285 131.740355 
Q 153.473788 131.660273 151.516893 131.660273 
z
" style="fill: #b28bc1"/>
   </g>
   <g id="text_55">
    <g id="patch_49">
     <path d="M 140.935368 144.96271 
L 184.281618 144.96271 
L 184.281618 75.28021 
L 140.935368 75.28021 
L 140.935368 144.96271 
z
" style="fill: none"/>
    </g>
    <path d="M 142.980214 128.785564 
L 148.427638 128.785564 
L 155.573602 129.658849 
L 155.573602 128.785564 
L 160.037082 128.785564 
L 160.037082 129.986733 
L 154.628136 129.986733 
L 147.443693 129.113448 
L 147.443693 129.986733 
L 142.980214 129.986733 
L 142.980214 128.785564 
z
" style="fill: #c0a2cd"/>
   </g>
   <g id="text_56">
    <g id="patch_50">
     <path d="M 140.935368 141.969036 
L 184.281618 141.969036 
L 184.281618 72.286536 
L 140.935368 72.286536 
L 140.935368 141.969036 
z
" style="fill: none"/>
    </g>
    <path d="M 154.79854 124.387795 
Q 155.551615 124.419538 156.112298 124.540843 
Q 156.672981 124.661015 157.475528 125.004523 
L 162.114908 126.985083 
L 156.55205 126.985083 
L 153.457297 125.59631 
Q 153.319875 125.535091 153.099999 125.433059 
Q 151.742266 124.809528 149.900806 124.809528 
L 148.290215 124.809528 
L 148.290215 126.985083 
L 143.222077 126.985083 
L 143.222077 121.482144 
L 150.538446 121.482144 
Q 155.485652 121.482144 157.640435 121.858529 
Q 159.795218 122.233781 159.795218 123.08405 
Q 159.795218 123.650896 158.508945 123.986468 
Q 157.222671 124.320907 154.79854 124.387795 
z
M 148.290215 122.397033 
L 148.290215 123.895773 
L 150.675868 123.895773 
Q 152.753695 123.895773 153.655186 123.722318 
Q 154.556677 123.54773 154.556677 123.144135 
Q 154.556677 122.743942 153.660682 122.570487 
Q 152.770185 122.397033 150.675868 122.397033 
L 148.290215 122.397033 
z
" style="fill: #7b3294"/>
   </g>
   <g id="text_57">
    <g id="patch_51">
     <path d="M 140.935368 134.385718 
L 184.281618 134.385718 
L 184.281618 64.703218 
L 140.935368 64.703218 
L 140.935368 134.385718 
z
" style="fill: none"/>
    </g>
    <path d="M 142.947232 110.507819 
L 148.01537 110.507819 
L 148.01537 114.021507 
L 155.947391 110.507819 
L 161.686151 110.507819 
L 153.59472 114.010521 
L 161.977486 119.395489 
L 156.343168 119.395489 
L 150.263601 115.394756 
L 148.01537 116.385327 
L 148.01537 119.395489 
L 142.947232 119.395489 
L 142.947232 110.507819 
z
" style="fill: #7b3294"/>
   </g>
   <g id="text_58">
    <g id="patch_52">
     <path d="M 181.744324 157.6688 
L 225.090574 157.6688 
L 225.090574 87.9863 
L 181.744324 87.9863 
L 181.744324 157.6688 
z
" style="fill: none"/>
    </g>
    <path d="M 200.846037 142.479803 
L 189.940195 142.479803 
L 189.940195 142.535758 
L 199.86759 142.535758 
L 199.86759 142.581155 
L 189.940195 142.581155 
L 189.940195 142.694568 
L 184.872057 142.694568 
L 184.872057 142.434405 
L 200.846037 142.434405 
L 200.846037 142.479803 
z
" style="fill: #7b3294"/>
   </g>
   <g id="text_59">
    <g id="patch_53">
     <path d="M 181.744324 157.084537 
L 225.090574 157.084537 
L 225.090574 87.402037 
L 181.744324 87.402037 
L 181.744324 157.084537 
z
" style="fill: none"/>
    </g>
    <path d="M 192.325848 142.110787 
L 189.940195 142.110787 
L 194.733489 142.110787 
L 192.325848 142.110787 
z
M 189.236593 142.110787 
L 195.437091 142.110787 
L 202.357683 142.110787 
L 197.289545 142.110787 
L 195.711936 142.110787 
L 188.92327 142.110787 
L 187.378642 142.110787 
L 182.310504 142.110787 
L 189.236593 142.110787 
z
" style="fill: #b3c0b7"/>
   </g>
   <g id="text_60">
    <g id="patch_54">
     <path d="M 181.744324 157.021473 
L 225.090574 157.021473 
L 225.090574 87.338973 
L 181.744324 87.338973 
L 181.744324 157.021473 
z
" style="fill: none"/>
    </g>
    <path d="M 181.881746 141.995624 
L 187.345661 141.995624 
L 192.325848 142.016515 
L 197.322527 141.995624 
L 202.786441 141.995624 
L 194.870911 142.027132 
L 194.870911 142.047627 
L 189.802773 142.047627 
L 189.802773 142.027132 
L 181.881746 141.995624 
z
" style="fill: #7b3294"/>
   </g>
   <g id="text_61">
    <g id="patch_55">
     <path d="M 181.744324 156.804014 
L 225.090574 156.804014 
L 225.090574 87.121514 
L 181.744324 87.121514 
L 181.744324 156.804014 
z
" style="fill: none"/>
    </g>
    <path d="M 182.343485 141.694996 
L 186.521126 141.694996 
L 188.252648 141.794104 
L 190.352463 141.730044 
L 194.321222 141.730044 
L 196.739856 141.794104 
L 198.11408 141.694996 
L 202.324702 141.694996 
L 199.543273 141.830014 
L 195.074296 141.830014 
L 192.325848 141.759167 
L 189.747804 141.830014 
L 185.333797 141.830014 
L 182.343485 141.694996 
z
" style="fill: #7b3294"/>
   </g>
   <g id="text_62">
    <g id="patch_56">
     <path d="M 181.744324 155.656689 
L 225.090574 155.656689 
L 225.090574 85.974189 
L 181.744324 85.974189 
L 181.744324 155.656689 
z
" style="fill: none"/>
    </g>
    <path d="M 190.506376 140.314832 
Q 186.675039 140.26929 185.317306 140.219296 
Q 183.959573 140.169302 183.959573 140.084723 
Q 183.959573 139.976174 186.191312 139.914195 
Q 188.428549 139.852045 192.325848 139.852045 
Q 194.095849 139.852045 195.865849 139.864715 
Q 197.63585 139.877213 199.367372 139.901697 
L 199.367372 140.055788 
Q 197.734794 140.020004 196.052744 140.001342 
Q 194.370694 139.982509 192.721625 139.982509 
Q 190.885662 139.982509 189.901717 140.005623 
Q 188.92327 140.028565 188.92327 140.071368 
Q 188.92327 140.104583 189.637866 140.126327 
Q 190.352463 140.1479 192.617184 140.174096 
L 194.799451 140.199778 
Q 197.894204 140.235047 199.350881 140.293431 
Q 200.813056 140.351814 200.813056 140.440502 
Q 200.813056 140.56155 198.515353 140.621132 
Q 196.223148 140.680714 191.589264 140.680714 
Q 189.681841 140.680714 187.763425 140.666674 
Q 185.850505 140.652464 184.064014 140.624556 
L 184.064014 140.46139 
Q 186.092368 140.506419 187.988797 140.528335 
Q 189.885227 140.55025 191.743177 140.55025 
Q 193.612122 140.55025 194.640041 140.523883 
Q 195.673458 140.497345 195.673458 140.449577 
Q 195.673458 140.413793 194.986346 140.386742 
Q 194.299234 140.35969 192.99647 140.344281 
L 190.506376 140.314832 
z
" style="fill: #c2a5cf"/>
   </g>
   <g id="text_63">
    <g id="patch_57">
     <path d="M 181.744324 153.633111 
L 225.090574 153.633111 
L 225.090574 83.950611 
L 181.744324 83.950611 
L 181.744324 153.633111 
z
" style="fill: none"/>
    </g>
    <path d="M 194.870911 138.65758 
L 189.802773 138.65758 
L 189.802773 137.862742 
L 183.288951 137.862742 
L 183.288951 137.696887 
L 201.379236 137.696887 
L 201.379236 137.862742 
L 194.870911 137.862742 
L 194.870911 138.65758 
z
" style="fill: #85439d"/>
   </g>
   <g id="text_64">
    <g id="patch_58">
     <path d="M 181.744324 151.192625 
L 225.090574 151.192625 
L 225.090574 81.510125 
L 181.744324 81.510125 
L 181.744324 151.192625 
z
" style="fill: none"/>
    </g>
    <path d="M 184.096995 135.022609 
L 189.165133 135.022609 
L 189.165133 135.477697 
L 195.503054 135.477697 
L 195.503054 135.022609 
L 200.571192 135.022609 
L 200.571192 136.216661 
L 195.503054 136.216661 
L 195.503054 135.685315 
L 189.165133 135.685315 
L 189.165133 136.216661 
L 184.096995 136.216661 
L 184.096995 135.022609 
z
" style="fill: #7b3294"/>
   </g>
   <g id="text_65">
    <g id="patch_59">
     <path d="M 181.744324 148.374767 
L 225.090574 148.374767 
L 225.090574 78.692267 
L 181.744324 78.692267 
L 181.744324 148.374767 
z
" style="fill: none"/>
    </g>
    <path d="M 196.723365 133.093922 
L 196.723365 132.802542 
L 193.254824 132.802542 
L 193.254824 132.548812 
L 201.153863 132.548812 
L 201.153863 133.248451 
Q 199.697186 133.323097 197.932682 133.361729 
Q 196.173675 133.400034 194.161812 133.400034 
Q 189.181624 133.400034 186.466157 133.193777 
Q 183.756188 132.987519 183.756188 132.608071 
Q 183.756188 132.222401 186.493642 132.018763 
Q 189.236593 131.815125 194.403675 131.815125 
Q 195.948303 131.815125 197.443458 131.841316 
Q 198.938614 131.867507 200.246875 131.916616 
L 200.246875 132.250885 
Q 199.180478 132.169036 197.79526 132.127785 
Q 196.415539 132.086206 194.76647 132.086206 
Q 191.8806 132.086206 190.451407 132.215854 
Q 189.027711 132.345174 189.027711 132.608071 
Q 189.027711 132.862782 190.401935 132.996031 
Q 191.776159 133.128953 194.403675 133.128953 
Q 195.195228 133.128953 195.777899 133.120441 
Q 196.36057 133.111601 196.723365 133.093922 
z
" style="fill: #9964ad"/>
   </g>
   <g id="text_66">
    <g id="patch_60">
     <path d="M 181.744324 145.145905 
L 225.090574 145.145905 
L 225.090574 75.463405 
L 181.744324 75.463405 
L 181.744324 145.145905 
z
" style="fill: none"/>
    </g>
    <path d="M 192.325848 129.896338 
L 196.844297 128.514186 
L 201.945416 128.514186 
L 195.849359 130.169087 
L 188.824326 130.169087 
L 182.722771 128.514186 
L 187.823891 128.514186 
L 192.325848 129.896338 
z
" style="fill: #a170b3"/>
   </g>
   <g id="text_67">
    <g id="patch_61">
     <path d="M 181.744324 141.83069 
L 225.090574 141.83069 
L 225.090574 72.14819 
L 181.744324 72.14819 
L 181.744324 141.83069 
z
" style="fill: none"/>
    </g>
    <path d="M 185.608642 126.853077 
L 185.608642 124.769633 
L 190.67678 124.769633 
L 190.67678 126.489526 
L 201.516658 126.489526 
L 201.516658 126.853077 
L 185.608642 126.853077 
z
" style="fill: #7b3294"/>
   </g>
   <g id="text_68">
    <g id="patch_62">
     <path d="M 181.744324 138.045969 
L 225.090574 138.045969 
L 225.090574 68.363469 
L 181.744324 68.363469 
L 181.744324 138.045969 
z
" style="fill: none"/>
    </g>
    <path d="M 193.01296 122.694244 
Q 192.771097 122.699261 192.60619 122.700934 
Q 192.44678 122.702606 192.292867 122.702606 
Q 187.87886 122.702606 185.603145 122.407697 
Q 183.32743 122.11223 183.32743 121.53579 
Q 183.32743 120.957121 185.603145 120.661096 
Q 187.87886 120.365072 192.325848 120.365072 
Q 196.794825 120.365072 199.07054 120.661096 
Q 201.346255 120.957121 201.346255 121.53579 
Q 201.346255 121.932719 200.263366 122.200312 
Q 199.180478 122.467905 197.119142 122.582747 
L 200.312838 122.858145 
L 196.844297 123.084484 
L 193.01296 122.694244 
z
M 192.325848 120.765346 
Q 190.385444 120.765346 189.48945 120.947643 
Q 188.598953 121.129941 188.598953 121.53579 
Q 188.598953 121.939967 189.48945 122.122264 
Q 190.385444 122.304004 192.325848 122.304004 
Q 194.282743 122.304004 195.17324 122.122264 
Q 196.069234 121.939967 196.069234 121.53579 
Q 196.069234 121.129941 195.17324 120.947643 
Q 194.282743 120.765346 192.325848 120.765346 
z
" style="fill: #7b3294"/>
   </g>
   <g id="text_69">
    <g id="patch_63">
     <path d="M 181.744324 133.613185 
L 225.090574 133.613185 
L 225.090574 63.930685 
L 181.744324 63.930685 
L 181.744324 133.613185 
z
" style="fill: none"/>
    </g>
    <path d="M 183.222989 115.814402 
L 189.269574 115.814402 
L 192.325848 117.051189 
L 195.365632 115.814402 
L 201.445199 115.814402 
L 201.445199 118.634206 
L 197.08616 118.634206 
L 197.08616 116.375574 
L 194.370694 117.608295 
L 190.335972 117.608295 
L 187.587524 116.375574 
L 187.587524 118.634206 
L 183.222989 118.634206 
L 183.222989 115.814402 
z
" style="fill: #7b3294"/>
   </g>
   <g id="text_70">
    <g id="patch_64">
     <path d="M 181.744324 129.058923 
L 225.090574 129.058923 
L 225.090574 59.376423 
L 181.744324 59.376423 
L 181.744324 129.058923 
z
" style="fill: none"/>
    </g>
    <path d="M 184.701654 111.676355 
L 184.701654 111.16832 
L 199.972031 111.16832 
L 199.972031 111.676355 
L 194.870911 111.676355 
L 194.870911 113.57174 
L 199.972031 113.57174 
L 199.972031 114.079775 
L 184.701654 114.079775 
L 184.701654 113.57174 
L 189.802773 113.57174 
L 189.802773 111.676355 
L 184.701654 111.676355 
z
" style="fill: #7b3294"/>
   </g>
   <g id="text_71">
    <g id="patch_65">
     <path d="M 181.744324 124.372029 
L 225.090574 124.372029 
L 225.090574 54.689529 
L 181.744324 54.689529 
L 181.744324 124.372029 
z
" style="fill: none"/>
    </g>
    <path d="M 195.607495 107.600928 
Q 196.36057 107.622809 196.921253 107.706424 
Q 197.481937 107.789259 198.284483 108.02604 
L 202.923864 109.391245 
L 197.361005 109.391245 
L 194.266253 108.433961 
Q 194.12883 108.391762 193.908954 108.321431 
Q 192.551221 107.89163 190.709761 107.89163 
L 189.09917 107.89163 
L 189.09917 109.391245 
L 184.031032 109.391245 
L 184.031032 105.598054 
L 191.347401 105.598054 
Q 196.294607 105.598054 198.44939 105.857498 
Q 200.604174 106.11616 200.604174 106.702252 
Q 200.604174 107.092981 199.3179 107.324292 
Q 198.031626 107.554822 195.607495 107.600928 
z
M 189.09917 106.22869 
L 189.09917 107.261775 
L 191.484823 107.261775 
Q 193.56265 107.261775 194.464141 107.142213 
Q 195.365632 107.021868 195.365632 106.74367 
Q 195.365632 106.467815 194.469638 106.348252 
Q 193.579141 106.22869 191.484823 106.22869 
L 189.09917 106.22869 
z
" style="fill: #85439d"/>
   </g>
   <g id="text_72">
    <g id="patch_66">
     <path d="M 181.744324 118.753305 
L 225.090574 118.753305 
L 225.090574 49.070805 
L 181.744324 49.070805 
L 181.744324 118.753305 
z
" style="fill: none"/>
    </g>
    <path d="M 200.604174 103.77162 
L 184.630194 103.77162 
L 184.630194 99.491735 
L 200.604174 99.491735 
L 200.604174 100.238555 
L 189.698332 100.238555 
L 189.698332 101.159074 
L 199.576254 101.159074 
L 199.576254 101.905893 
L 189.698332 101.905893 
L 189.698332 103.0248 
L 200.604174 103.0248 
L 200.604174 103.77162 
z
" style="fill: #7b3294"/>
   </g>
   <g id="text_73">
    <g id="patch_67">
     <path d="M 181.744324 112.596298 
L 225.090574 112.596298 
L 225.090574 42.913798 
L 181.744324 42.913798 
L 181.744324 112.596298 
z
" style="fill: none"/>
    </g>
    <path d="M 189.165133 93.419081 
L 189.165133 96.70235 
L 190.539357 96.70235 
Q 193.529669 96.70235 194.799451 96.32796 
Q 196.069234 95.952519 196.069234 95.055457 
Q 196.069234 94.164705 194.799451 93.792419 
Q 193.529669 93.419081 190.539357 93.419081 
L 189.165133 93.419081 
z
M 184.096995 92.508348 
L 189.527928 92.508348 
Q 195.81088 92.508348 198.575819 93.105688 
Q 201.346255 93.701977 201.346255 95.055457 
Q 201.346255 96.413144 198.575819 97.01364 
Q 195.81088 97.613083 189.527928 97.613083 
L 184.096995 97.613083 
L 184.096995 92.508348 
z
" style="fill: #7b3294"/>
   </g>
   <g id="text_74">
    <g id="patch_68">
     <path d="M 181.744324 105.471413 
L 225.090574 105.471413 
L 225.090574 35.788913 
L 181.744324 35.788913 
L 181.744324 105.471413 
z
" style="fill: none"/>
    </g>
    <path d="M 183.756188 82.689021 
L 188.824326 82.689021 
L 188.824326 85.770408 
L 196.756346 82.689021 
L 202.495106 82.689021 
L 194.403675 85.760774 
L 202.786441 90.483212 
L 197.152123 90.483212 
L 191.072556 86.974702 
L 188.824326 87.843399 
L 188.824326 90.483212 
L 183.756188 90.483212 
L 183.756188 82.689021 
z
" style="fill: #7b3294"/>
   </g>
   <g id="text_75">
    <g id="patch_69">
     <path d="M 222.553279 195.27149 
L 265.899529 195.27149 
L 265.899529 125.58899 
L 222.553279 125.58899 
L 222.553279 195.27149 
z
" style="fill: none"/>
    </g>
    <path d="M 225.510609 175.747449 
L 225.510609 174.787764 
L 240.780986 174.787764 
L 240.780986 175.747449 
L 235.679866 175.747449 
L 235.679866 179.327857 
L 240.780986 179.327857 
L 240.780986 180.287543 
L 225.510609 180.287543 
L 225.510609 179.327857 
L 230.611728 179.327857 
L 230.611728 175.747449 
L 225.510609 175.747449 
z
" style="fill: #8f53a5"/>
   </g>
   <g id="text_76">
    <g id="patch_70">
     <path d="M 222.553279 187.837265 
L 265.899529 187.837265 
L 265.899529 118.154765 
L 222.553279 118.154765 
L 222.553279 187.837265 
z
" style="fill: none"/>
    </g>
    <path d="M 224.90595 168.696011 
L 229.974088 168.696011 
L 229.974088 170.281428 
L 236.312009 170.281428 
L 236.312009 168.696011 
L 241.380147 168.696011 
L 241.380147 172.855802 
L 236.312009 172.855802 
L 236.312009 171.004721 
L 229.974088 171.004721 
L 229.974088 172.855802 
L 224.90595 172.855802 
L 224.90595 168.696011 
z
" style="fill: #b3c1b6"/>
   </g>
   <g id="text_77">
    <g id="patch_71">
     <path d="M 222.553279 181.844994 
L 265.899529 181.844994 
L 265.899529 112.162494 
L 222.553279 112.162494 
L 222.553279 181.844994 
z
" style="fill: none"/>
    </g>
    <path d="M 224.031944 163.238829 
L 230.078529 163.238829 
L 233.134804 164.829084 
L 236.174587 163.238829 
L 242.254154 163.238829 
L 242.254154 166.864522 
L 237.895115 166.864522 
L 237.895115 163.960382 
L 235.179649 165.545409 
L 231.144927 165.545409 
L 228.396479 163.960382 
L 228.396479 166.864522 
L 224.031944 166.864522 
L 224.031944 163.238829 
z
" style="fill: #b6bbbb"/>
   </g>
   <g id="text_78">
    <g id="patch_72">
     <path d="M 222.553279 176.427465 
L 265.899529 176.427465 
L 265.899529 106.744965 
L 222.553279 106.744965 
L 222.553279 176.427465 
z
" style="fill: none"/>
    </g>
    <path d="M 224.598124 158.365886 
L 230.045548 158.365886 
L 237.191513 160.606673 
L 237.191513 158.365886 
L 241.654992 158.365886 
L 241.654992 161.448 
L 236.246047 161.448 
L 229.061604 159.207213 
L 229.061604 161.448 
L 224.598124 161.448 
L 224.598124 158.365886 
z
" style="fill: #0b8d3e"/>
   </g>
   <g id="text_79">
    <g id="patch_73">
     <path d="M 222.553279 171.594878 
L 265.899529 171.594878 
L 265.899529 101.912378 
L 222.553279 101.912378 
L 222.553279 171.594878 
z
" style="fill: none"/>
    </g>
    <path d="M 233.134804 156.165382 
L 237.653252 153.881583 
L 242.754371 153.881583 
L 236.658314 156.616058 
L 229.633281 156.616058 
L 223.531726 153.881583 
L 228.632846 153.881583 
L 233.134804 156.165382 
z
" style="fill: #c1a3ce"/>
   </g>
   <g id="text_80">
    <g id="patch_74">
     <path d="M 222.553279 167.136384 
L 265.899529 167.136384 
L 265.899529 97.453884 
L 222.553279 97.453884 
L 222.553279 167.136384 
z
" style="fill: none"/>
    </g>
    <path d="M 233.821916 151.884864 
Q 233.580052 151.888552 233.415145 151.889781 
Q 233.255735 151.89101 233.101822 151.89101 
Q 228.687815 151.89101 226.4121 151.674284 
Q 224.136385 151.457148 224.136385 151.033529 
Q 224.136385 150.608271 226.4121 150.390726 
Q 228.687815 150.173181 233.134804 150.173181 
Q 237.60378 150.173181 239.879495 150.390726 
Q 242.15521 150.608271 242.15521 151.033529 
Q 242.15521 151.325228 241.072321 151.521879 
Q 239.989433 151.71853 237.928097 151.802926 
L 241.121793 152.005313 
L 237.653252 152.171647 
L 233.821916 151.884864 
z
M 233.134804 150.467338 
Q 231.194399 150.467338 230.298405 150.601307 
Q 229.407908 150.735275 229.407908 151.033529 
Q 229.407908 151.330554 230.298405 151.464523 
Q 231.194399 151.598082 233.134804 151.598082 
Q 235.091698 151.598082 235.982196 151.464523 
Q 236.87819 151.330554 236.87819 151.033529 
Q 236.87819 150.735275 235.982196 150.601307 
Q 235.091698 150.467338 233.134804 150.467338 
z
" style="fill: #b6babc"/>
   </g>
   <g id="text_81">
    <g id="patch_75">
     <path d="M 222.553279 163.480487 
L 265.899529 163.480487 
L 265.899529 93.797987 
L 222.553279 93.797987 
L 222.553279 163.480487 
z
" style="fill: none"/>
    </g>
    <path d="M 235.679866 148.505023 
L 230.611728 148.505023 
L 230.611728 147.740255 
L 224.097907 147.740255 
L 224.097907 147.580674 
L 242.188191 147.580674 
L 242.188191 147.740255 
L 235.679866 147.740255 
L 235.679866 148.505023 
z
" style="fill: #c1a3ce"/>
   </g>
   <g id="text_82">
    <g id="patch_76">
     <path d="M 222.553279 161.404617 
L 265.899529 161.404617 
L 265.899529 91.722117 
L 222.553279 91.722117 
L 222.553279 161.404617 
z
" style="fill: none"/>
    </g>
    <path d="M 233.134804 145.745566 
L 230.749151 146.087959 
L 235.542444 146.087959 
L 233.134804 145.745566 
z
M 230.045548 145.594288 
L 236.246047 145.594288 
L 243.166639 146.430867 
L 238.098501 146.430867 
L 236.520891 146.223783 
L 229.732225 146.223783 
L 228.187597 146.430867 
L 223.119459 146.430867 
L 230.045548 145.594288 
z
" style="fill: #b5bdb9"/>
   </g>
   <g id="text_83">
    <g id="patch_77">
     <path d="M 222.553279 159.532798 
L 265.899529 159.532798 
L 265.899529 89.850298 
L 222.553279 89.850298 
L 222.553279 159.532798 
z
" style="fill: none"/>
    </g>
    <path d="M 229.974088 143.907008 
L 229.974088 144.416307 
L 231.348312 144.416307 
Q 234.338624 144.416307 235.608407 144.358232 
Q 236.87819 144.299993 236.87819 144.160842 
Q 236.87819 144.022668 235.608407 143.96492 
Q 234.338624 143.907008 231.348312 143.907008 
L 229.974088 143.907008 
z
M 224.90595 143.765735 
L 230.336884 143.765735 
Q 236.619836 143.765735 239.384774 143.858394 
Q 242.15521 143.95089 242.15521 144.160842 
Q 242.15521 144.371445 239.384774 144.464594 
Q 236.619836 144.557579 230.336884 144.557579 
L 224.90595 144.557579 
L 224.90595 143.765735 
z
" style="fill: #279b4f"/>
   </g>
   <g id="text_84">
    <g id="patch_78">
     <path d="M 222.553279 157.754501 
L 265.899529 157.754501 
L 265.899529 88.072001 
L 222.553279 88.072001 
L 222.553279 157.754501 
z
" style="fill: none"/>
    </g>
    <path d="M 231.315331 142.648614 
Q 227.483995 142.632265 226.126261 142.614319 
Q 224.768528 142.596373 224.768528 142.566012 
Q 224.768528 142.527047 227.000268 142.504799 
Q 229.237504 142.482489 233.134804 142.482489 
Q 234.904804 142.482489 236.674805 142.487037 
Q 238.444805 142.491524 240.176327 142.500312 
L 240.176327 142.555626 
Q 238.543749 142.542781 236.861699 142.536082 
Q 235.179649 142.529321 233.53058 142.529321 
Q 231.694617 142.529321 230.710672 142.537618 
Q 229.732225 142.545854 229.732225 142.561218 
Q 229.732225 142.573142 230.446821 142.580947 
Q 231.161418 142.588691 233.426139 142.598094 
L 235.608407 142.607313 
Q 238.703159 142.619974 240.159837 142.640931 
Q 241.622011 142.661889 241.622011 142.693725 
Q 241.622011 142.737177 239.324308 142.758564 
Q 237.032103 142.779952 232.398219 142.779952 
Q 230.490797 142.779952 228.57238 142.774913 
Q 226.65946 142.769811 224.872969 142.759794 
L 224.872969 142.701223 
Q 226.901324 142.717387 228.797753 142.725253 
Q 230.694182 142.73312 232.552133 142.73312 
Q 234.421077 142.73312 235.448997 142.723655 
Q 236.482413 142.714129 236.482413 142.696982 
Q 236.482413 142.684137 235.795301 142.674427 
Q 235.108189 142.664716 233.805425 142.659185 
L 231.315331 142.648614 
z
" style="fill: #b2c2b5"/>
   </g>
   <g id="text_85">
    <g id="patch_79">
     <path d="M 222.553279 157.084537 
L 265.899529 157.084537 
L 265.899529 87.402037 
L 222.553279 87.402037 
L 222.553279 157.084537 
z
" style="fill: none"/>
    </g>
    <path d="M 241.413129 142.110787 
L 225.439149 142.110787 
L 225.439149 142.110787 
L 241.413129 142.110787 
L 241.413129 142.110787 
L 230.507287 142.110787 
L 230.507287 142.110787 
L 240.385209 142.110787 
L 240.385209 142.110787 
L 230.507287 142.110787 
L 230.507287 142.110787 
L 241.413129 142.110787 
L 241.413129 142.110787 
z
" style="fill: #b3c0b7"/>
   </g>
   <g id="text_86">
    <g id="patch_80">
     <path d="M 222.553279 155.859624 
L 265.899529 155.859624 
L 265.899529 86.177124 
L 222.553279 86.177124 
L 222.553279 155.859624 
z
" style="fill: none"/>
    </g>
    <path d="M 236.41645 140.407271 
Q 237.169525 140.413098 237.730209 140.435363 
Q 238.290892 140.457421 239.093439 140.520471 
L 243.732819 140.884001 
L 238.16996 140.884001 
L 235.075208 140.629093 
Q 234.937785 140.617857 234.71791 140.599129 
Q 233.360176 140.48468 231.518716 140.48468 
L 229.908126 140.48468 
L 229.908126 140.884001 
L 224.839988 140.884001 
L 224.839988 139.873941 
L 232.156356 139.873941 
Q 237.103562 139.873941 239.258346 139.943027 
Q 241.413129 140.011904 241.413129 140.16797 
Q 241.413129 140.272014 240.126855 140.333608 
Q 238.840581 140.394994 236.41645 140.407271 
z
M 229.908126 140.041869 
L 229.908126 140.316961 
L 232.293778 140.316961 
Q 234.371605 140.316961 235.273096 140.285124 
Q 236.174587 140.253078 236.174587 140.178999 
Q 236.174587 140.105543 235.278593 140.073706 
Q 234.388096 140.041869 232.293778 140.041869 
L 229.908126 140.041869 
z
" style="fill: #abd0a8"/>
   </g>
   <g id="text_87">
    <g id="patch_81">
     <path d="M 222.553279 152.894966 
L 265.899529 152.894966 
L 265.899529 83.212466 
L 222.553279 83.212466 
L 222.553279 152.894966 
z
" style="fill: none"/>
    </g>
    <path d="M 224.565143 128.48831 
L 229.633281 128.48831 
L 229.633281 132.210651 
L 237.565302 128.48831 
L 243.304061 128.48831 
L 235.21263 132.199013 
L 243.595396 137.903758 
L 237.961078 137.903758 
L 231.881511 133.665449 
L 229.633281 134.714842 
L 229.633281 137.903758 
L 224.565143 137.903758 
L 224.565143 128.48831 
z
" style="fill: #7b3294"/>
   </g>
   <g id="text_88">
    <g id="patch_82">
     <path d="M 263.362234 164.083285 
L 306.708484 164.083285 
L 306.708484 94.400785 
L 263.362234 94.400785 
L 263.362234 164.083285 
z
" style="fill: none"/>
    </g>
    <path d="M 276.488822 149.107576 
L 271.420684 149.107576 
L 271.420684 148.233806 
L 264.906862 148.233806 
L 264.906862 148.051481 
L 282.997146 148.051481 
L 282.997146 148.233806 
L 276.488822 148.233806 
L 276.488822 149.107576 
z
" style="fill: #b3c1b6"/>
   </g>
   <g id="text_89">
    <g id="patch_83">
     <path d="M 263.362234 161.711542 
L 306.708484 161.711542 
L 306.708484 92.029042 
L 263.362234 92.029042 
L 263.362234 161.711542 
z
" style="fill: none"/>
    </g>
    <path d="M 266.319564 145.909753 
L 266.319564 145.735114 
L 281.589941 145.735114 
L 281.589941 145.909753 
L 276.488822 145.909753 
L 276.488822 146.561298 
L 281.589941 146.561298 
L 281.589941 146.735937 
L 266.319564 146.735937 
L 266.319564 146.561298 
L 271.420684 146.561298 
L 271.420684 145.909753 
L 266.319564 145.909753 
z
" style="fill: #b7b9bd"/>
   </g>
   <g id="text_90">
    <g id="patch_84">
     <path d="M 263.362234 159.463931 
L 306.708484 159.463931 
L 306.708484 89.781431 
L 263.362234 89.781431 
L 263.362234 159.463931 
z
" style="fill: none"/>
    </g>
    <path d="M 263.961396 143.526797 
L 268.139037 143.526797 
L 269.870559 144.232644 
L 271.970373 143.776409 
L 275.939132 143.776409 
L 278.357766 144.232644 
L 279.73199 143.526797 
L 283.942612 143.526797 
L 281.161183 144.488398 
L 276.692207 144.488398 
L 273.943759 143.983825 
L 271.365715 144.488398 
L 266.951707 144.488398 
L 263.961396 143.526797 
z
" style="fill: #b2c2b5"/>
   </g>
   <g id="text_91">
    <g id="patch_85">
     <path d="M 263.362234 157.304401 
L 306.708484 157.304401 
L 306.708484 87.621901 
L 263.362234 87.621901 
L 263.362234 157.304401 
z
" style="fill: none"/>
    </g>
    <path d="M 274.630871 142.316976 
Q 274.389007 142.317157 274.2241 142.317218 
Q 274.06469 142.317278 273.910777 142.317278 
Q 269.49677 142.317278 267.221055 142.306609 
Q 264.94534 142.295919 264.94534 142.275064 
Q 264.94534 142.254129 267.221055 142.243419 
Q 269.49677 142.232709 273.943759 142.232709 
Q 278.412735 142.232709 280.68845 142.243419 
Q 282.964165 142.254129 282.964165 142.275064 
Q 282.964165 142.289425 281.881276 142.299106 
Q 280.798388 142.308787 278.737052 142.312942 
L 281.930749 142.322906 
L 278.462207 142.331094 
L 274.630871 142.316976 
z
M 273.943759 142.24719 
Q 272.003355 142.24719 271.10736 142.253786 
Q 270.216863 142.260381 270.216863 142.275064 
Q 270.216863 142.289687 271.10736 142.296282 
Q 272.003355 142.302857 273.943759 142.302857 
Q 275.900654 142.302857 276.791151 142.296282 
Q 277.687145 142.289687 277.687145 142.275064 
Q 277.687145 142.260381 276.791151 142.253786 
Q 275.900654 142.24719 273.943759 142.24719 
z
" style="fill: #b2c3b4"/>
   </g>
   <g id="text_92">
    <g id="patch_86">
     <path d="M 263.362234 157.084537 
L 306.708484 157.084537 
L 306.708484 87.402037 
L 263.362234 87.402037 
L 263.362234 157.084537 
z
" style="fill: none"/>
    </g>
    <path d="M 273.943759 142.110787 
L 278.462207 142.110787 
L 283.563327 142.110787 
L 277.467269 142.110787 
L 270.442236 142.110787 
L 264.340682 142.110787 
L 269.441801 142.110787 
L 273.943759 142.110787 
z
" style="fill: #b3c0b7"/>
   </g>
   <g id="text_93">
    <g id="patch_87">
     <path d="M 263.362234 156.428189 
L 306.708484 156.428189 
L 306.708484 86.745689 
L 263.362234 86.745689 
L 263.362234 156.428189 
z
" style="fill: none"/>
    </g>
    <path d="M 265.714906 140.912213 
L 270.783044 140.912213 
L 270.783044 141.118489 
L 277.120965 141.118489 
L 277.120965 140.912213 
L 282.189103 140.912213 
L 282.189103 141.453436 
L 277.120965 141.453436 
L 277.120965 141.212595 
L 270.783044 141.212595 
L 270.783044 141.453436 
L 265.714906 141.453436 
L 265.714906 140.912213 
z
" style="fill: #b3c0b6"/>
   </g>
   <g id="text_94">
    <g id="patch_88">
     <path d="M 263.362234 154.835157 
L 306.708484 154.835157 
L 306.708484 85.152657 
L 263.362234 85.152657 
L 263.362234 154.835157 
z
" style="fill: none"/>
    </g>
    <path d="M 264.840899 139.007257 
L 270.887485 139.007257 
L 273.943759 139.3812 
L 276.983542 139.007257 
L 283.063109 139.007257 
L 283.063109 139.859826 
L 278.704071 139.859826 
L 278.704071 139.176927 
L 275.988604 139.549641 
L 271.953882 139.549641 
L 269.205434 139.176927 
L 269.205434 139.859826 
L 264.840899 139.859826 
L 264.840899 139.007257 
z
" style="fill: #b6bbbb"/>
   </g>
   <g id="text_95">
    <g id="patch_89">
     <path d="M 263.362234 152.846845 
L 306.708484 152.846845 
L 306.708484 83.164345 
L 263.362234 83.164345 
L 263.362234 152.846845 
z
" style="fill: none"/>
    </g>
    <path d="M 271.211801 137.109947 
L 271.211801 137.378065 
L 273.289628 137.378065 
Q 275.779722 137.378065 276.785654 137.348148 
Q 277.791586 137.318044 277.791586 137.243912 
Q 277.791586 137.16978 276.785654 137.139863 
Q 275.779722 137.109947 273.289628 137.109947 
L 271.211801 137.109947 
z
M 266.143663 136.958108 
L 273.102734 136.958108 
Q 278.412735 136.958108 280.737922 137.025466 
Q 283.063109 137.092825 283.063109 137.243912 
Q 283.063109 137.394999 280.737922 137.462357 
Q 278.412735 137.529716 273.102734 137.529716 
L 271.211801 137.529716 
L 271.211801 137.871402 
L 266.143663 137.871402 
L 266.143663 136.958108 
z
" style="fill: #ba98c8"/>
   </g>
   <g id="text_96">
    <g id="patch_90">
     <path d="M 263.362234 150.477361 
L 306.708484 150.477361 
L 306.708484 80.794861 
L 263.362234 80.794861 
L 263.362234 150.477361 
z
" style="fill: none"/>
    </g>
    <path d="M 267.226552 135.501431 
L 267.226552 134.325551 
L 272.29469 134.325551 
L 272.29469 135.296245 
L 283.134569 135.296245 
L 283.134569 135.501431 
L 267.226552 135.501431 
z
" style="fill: #b0c6b2"/>
   </g>
   <g id="text_97">
    <g id="patch_91">
     <path d="M 263.362234 147.663257 
L 306.708484 147.663257 
L 306.708484 77.980757 
L 263.362234 77.980757 
L 263.362234 147.663257 
z
" style="fill: none"/>
    </g>
    <path d="M 273.943759 131.096011 
L 271.558106 131.89216 
L 276.351399 131.89216 
L 273.943759 131.096011 
z
M 270.854503 130.744252 
L 277.055002 130.744252 
L 283.975594 132.689507 
L 278.907456 132.689507 
L 277.329847 132.207985 
L 270.54118 132.207985 
L 268.996552 132.689507 
L 263.928414 132.689507 
L 270.854503 130.744252 
z
" style="fill: #bdadc7"/>
   </g>
   <g id="text_98">
    <g id="patch_92">
     <path d="M 263.362234 143.855139 
L 306.708484 143.855139 
L 306.708484 74.172639 
L 263.362234 74.172639 
L 263.362234 143.855139 
z
" style="fill: none"/>
    </g>
    <path d="M 282.222084 128.868894 
L 266.248104 128.868894 
L 266.248104 122.13026 
L 282.222084 122.13026 
L 282.222084 123.30612 
L 271.316243 123.30612 
L 271.316243 124.755467 
L 281.194164 124.755467 
L 281.194164 125.931327 
L 271.316243 125.931327 
L 271.316243 127.693035 
L 282.222084 127.693035 
L 282.222084 128.868894 
z
" style="fill: #b997c8"/>
   </g>
   <g id="text_99">
    <g id="patch_93">
     <path d="M 263.362234 135.043304 
L 306.708484 135.043304 
L 306.708484 65.360804 
L 263.362234 65.360804 
L 263.362234 135.043304 
z
" style="fill: none"/>
    </g>
    <path d="M 278.341275 118.567659 
L 278.341275 117.142619 
L 274.872734 117.142619 
L 274.872734 115.901714 
L 282.771774 115.901714 
L 282.771774 119.32341 
Q 281.315096 119.688476 279.550593 119.877414 
Q 277.791586 120.06475 275.779722 120.06475 
Q 270.799534 120.06475 268.084068 119.056015 
Q 265.374098 118.047279 265.374098 116.191526 
Q 265.374098 114.30535 268.111552 113.309424 
Q 270.854503 112.313498 276.021585 112.313498 
Q 277.566213 112.313498 279.061369 112.441591 
Q 280.556525 112.569684 281.864786 112.80986 
L 281.864786 114.444652 
Q 280.798388 114.04436 279.41317 113.842613 
Q 278.033449 113.639264 276.384381 113.639264 
Q 273.49851 113.639264 272.069317 114.273327 
Q 270.645621 114.905788 270.645621 116.191526 
Q 270.645621 117.437234 272.019845 118.088909 
Q 273.394069 118.738984 276.021585 118.738984 
Q 276.813138 118.738984 277.395809 118.697353 
Q 277.97848 118.654122 278.341275 118.567659 
z
" style="fill: #a678b8"/>
   </g>
   <g id="text_100">
    <g id="patch_94">
     <path d="M 304.171189 196.142444 
L 347.517439 196.142444 
L 347.517439 126.459944 
L 304.171189 126.459944 
L 304.171189 196.142444 
z
" style="fill: none"/>
    </g>
    <path d="M 318.034361 176.583024 
Q 318.787436 176.63885 319.348119 176.852183 
Q 319.908802 177.063522 320.711349 177.667635 
L 325.350729 181.15075 
L 319.787871 181.15075 
L 316.693118 178.708382 
Q 316.555696 178.600719 316.33582 178.421279 
Q 314.978087 177.324706 313.136627 177.324706 
L 311.526036 177.324706 
L 311.526036 181.15075 
L 306.457898 181.15075 
L 306.457898 171.472993 
L 313.774267 171.472993 
Q 318.721473 171.472993 320.876256 172.134924 
Q 323.031039 172.794862 323.031039 174.290189 
Q 323.031039 175.287074 321.744766 175.87723 
Q 320.458492 176.465392 318.034361 176.583024 
z
M 311.526036 173.081965 
L 311.526036 175.717728 
L 313.911689 175.717728 
Q 315.989516 175.717728 316.891006 175.412681 
Q 317.792497 175.105641 317.792497 174.395859 
Q 317.792497 173.692058 316.896503 173.387012 
Q 316.006006 173.081965 313.911689 173.081965 
L 311.526036 173.081965 
z
" style="fill: #7b3294"/>
   </g>
   <g id="text_101">
    <g id="patch_95">
     <path d="M 304.171189 184.212315 
L 347.517439 184.212315 
L 347.517439 114.529815 
L 304.171189 114.529815 
L 304.171189 184.212315 
z
" style="fill: none"/>
    </g>
    <path d="M 304.308612 166.100078 
L 309.772526 166.100078 
L 314.752714 167.358571 
L 319.749392 166.100078 
L 325.213307 166.100078 
L 317.297777 167.998143 
L 317.297777 169.232757 
L 312.229639 169.232757 
L 312.229639 167.998143 
L 304.308612 166.100078 
z
" style="fill: #a9d4a5"/>
   </g>
   <g id="text_102">
    <g id="patch_96">
     <path d="M 304.171189 179.325316 
L 347.517439 179.325316 
L 347.517439 109.642816 
L 304.171189 109.642816 
L 304.171189 179.325316 
z
" style="fill: none"/>
    </g>
    <path d="M 323.272903 162.400327 
L 312.367061 162.400327 
L 312.367061 162.907572 
L 322.294455 162.907572 
L 322.294455 163.3191 
L 312.367061 163.3191 
L 312.367061 164.347193 
L 307.298923 164.347193 
L 307.298923 161.988799 
L 323.272903 161.988799 
L 323.272903 162.400327 
z
" style="fill: #adccac"/>
   </g>
   <g id="text_103">
    <g id="patch_97">
     <path d="M 304.171189 175.271521 
L 347.517439 175.271521 
L 347.517439 105.589021 
L 304.171189 105.589021 
L 304.171189 175.271521 
z
" style="fill: none"/>
    </g>
    <path d="M 317.297777 160.294172 
L 312.229639 160.294172 
L 312.229639 158.688079 
L 305.715817 158.688079 
L 305.715817 158.352943 
L 323.806102 158.352943 
L 323.806102 158.688079 
L 317.297777 158.688079 
L 317.297777 160.294172 
z
" style="fill: #7b3294"/>
   </g>
   <g id="text_104">
    <g id="patch_98">
     <path d="M 304.171189 171.666636 
L 347.517439 171.666636 
L 347.517439 101.984136 
L 304.171189 101.984136 
L 304.171189 171.666636 
z
" style="fill: none"/>
    </g>
    <path d="M 319.150231 156.406556 
L 319.150231 156.134877 
L 315.681689 156.134877 
L 315.681689 155.898304 
L 323.580729 155.898304 
L 323.580729 156.550637 
Q 322.124051 156.620235 320.359548 156.656255 
Q 318.600541 156.69197 316.588677 156.69197 
Q 311.60849 156.69197 308.893023 156.499659 
Q 306.183053 156.307347 306.183053 155.953555 
Q 306.183053 155.593963 308.920507 155.404094 
Q 311.663458 155.214224 316.830541 155.214224 
Q 318.375168 155.214224 319.870324 155.238645 
Q 321.36548 155.263065 322.673741 155.308854 
L 322.673741 155.620521 
Q 321.607343 155.544206 320.222125 155.505744 
Q 318.842405 155.466977 317.193336 155.466977 
Q 314.307465 155.466977 312.878272 155.587858 
Q 311.454576 155.708434 311.454576 155.953555 
Q 311.454576 156.191045 312.8288 156.315284 
Q 314.203024 156.439218 316.830541 156.439218 
Q 317.622094 156.439218 318.204765 156.431281 
Q 318.787436 156.423039 319.150231 156.406556 
z
" style="fill: #7b3294"/>
   </g>
   <g id="text_105">
    <g id="patch_99">
     <path d="M 304.171189 168.556233 
L 347.517439 168.556233 
L 347.517439 98.873733 
L 304.171189 98.873733 
L 304.171189 168.556233 
z
" style="fill: none"/>
    </g>
    <path d="M 314.752714 152.561752 
L 312.367061 153.071734 
L 317.160354 153.071734 
L 314.752714 152.561752 
z
M 311.663458 152.336429 
L 317.863957 152.336429 
L 324.784549 153.582483 
L 319.716411 153.582483 
L 318.138802 153.274038 
L 311.350135 153.274038 
L 309.805508 153.582483 
L 304.73737 153.582483 
L 311.663458 152.336429 
z
" style="fill: #7b3294"/>
   </g>
   <g id="text_106">
    <g id="patch_100">
     <path d="M 304.171189 165.768228 
L 347.517439 165.768228 
L 347.517439 96.085728 
L 304.171189 96.085728 
L 304.171189 165.768228 
z
" style="fill: none"/>
    </g>
    <path d="M 312.933241 150.31335 
Q 309.101905 150.253824 307.744172 150.18848 
Q 306.386438 150.123137 306.386438 150.012589 
Q 306.386438 149.870712 308.618178 149.789703 
Q 310.855415 149.708471 314.752714 149.708471 
Q 316.522714 149.708471 318.292715 149.725031 
Q 320.062715 149.741367 321.794238 149.773367 
L 321.794238 149.97477 
Q 320.16166 149.928 318.479609 149.903608 
Q 316.797559 149.878992 315.14849 149.878992 
Q 313.312527 149.878992 312.328583 149.909202 
Q 311.350135 149.939189 311.350135 149.995134 
Q 311.350135 150.038547 312.064732 150.066968 
Q 312.779328 150.095164 315.044049 150.129402 
L 317.226317 150.162969 
Q 320.32107 150.209068 321.777747 150.285377 
Q 323.239921 150.361687 323.239921 150.477605 
Q 323.239921 150.635818 320.942219 150.713693 
Q 318.650013 150.791569 314.01613 150.791569 
Q 312.108707 150.791569 310.19029 150.773219 
Q 308.277371 150.754645 306.490879 150.718169 
L 306.490879 150.504906 
Q 308.519234 150.56376 310.415663 150.592404 
Q 312.312092 150.621048 314.170043 150.621048 
Q 316.038988 150.621048 317.066907 150.586586 
Q 318.100324 150.5519 318.100324 150.489465 
Q 318.100324 150.442695 317.413212 150.407338 
Q 316.7261 150.37198 315.423335 150.35184 
L 312.933241 150.31335 
z
" style="fill: #7b3294"/>
   </g>
   <g id="text_107">
    <g id="patch_101">
     <path d="M 304.171189 163.328809 
L 347.517439 163.328809 
L 347.517439 93.646309 
L 304.171189 93.646309 
L 304.171189 163.328809 
z
" style="fill: none"/>
    </g>
    <path d="M 315.439826 148.21956 
Q 315.197963 148.221358 315.033056 148.221958 
Q 314.873646 148.222558 314.719733 148.222558 
Q 310.305725 148.222558 308.03001 148.116836 
Q 305.754295 148.010914 305.754295 147.804267 
Q 305.754295 147.596821 308.03001 147.4907 
Q 310.305725 147.384578 314.752714 147.384578 
Q 319.22169 147.384578 321.497405 147.4907 
Q 323.77312 147.596821 323.77312 147.804267 
Q 323.77312 147.946562 322.690232 148.042491 
Q 321.607343 148.13842 319.546007 148.179589 
L 322.739704 148.278316 
L 319.271162 148.359456 
L 315.439826 148.21956 
z
M 314.752714 147.528072 
Q 312.81231 147.528072 311.916316 147.593424 
Q 311.025819 147.658775 311.025819 147.804267 
Q 311.025819 147.94916 311.916316 148.014512 
Q 312.81231 148.079663 314.752714 148.079663 
Q 316.709609 148.079663 317.600106 148.014512 
Q 318.4961 147.94916 318.4961 147.804267 
Q 318.4961 147.658775 317.600106 147.593424 
Q 316.709609 147.528072 314.752714 147.528072 
z
" style="fill: #7b3294"/>
   </g>
   <g id="text_108">
    <g id="patch_102">
     <path d="M 304.171189 161.150235 
L 347.517439 161.150235 
L 347.517439 91.467735 
L 304.171189 91.467735 
L 304.171189 161.150235 
z
" style="fill: none"/>
    </g>
    <path d="M 305.649854 145.219928 
L 311.69644 145.219928 
L 314.752714 145.638704 
L 317.792497 145.219928 
L 323.872064 145.219928 
L 323.872064 146.174714 
L 319.513026 146.174714 
L 319.513026 145.409941 
L 316.797559 145.82734 
L 312.762838 145.82734 
L 310.01439 145.409941 
L 310.01439 146.174714 
L 305.649854 146.174714 
L 305.649854 145.219928 
z
" style="fill: #7b3294"/>
   </g>
   <g id="text_109">
    <g id="patch_103">
     <path d="M 304.171189 159.006008 
L 347.517439 159.006008 
L 347.517439 89.323508 
L 304.171189 89.323508 
L 304.171189 159.006008 
z
" style="fill: none"/>
    </g>
    <path d="M 306.216035 143.175074 
L 311.663458 143.175074 
L 318.809423 143.797119 
L 318.809423 143.175074 
L 323.272903 143.175074 
L 323.272903 144.030672 
L 317.863957 144.030672 
L 310.679514 143.408627 
L 310.679514 144.030672 
L 306.216035 144.030672 
L 306.216035 143.175074 
z
" style="fill: #7b3294"/>
   </g>
   <g id="text_110">
    <g id="patch_104">
     <path d="M 304.171189 157.084537 
L 347.517439 157.084537 
L 347.517439 87.402037 
L 304.171189 87.402037 
L 304.171189 157.084537 
z
" style="fill: none"/>
    </g>
    <path d="M 306.523861 142.110787 
L 311.591999 142.110787 
L 311.591999 142.110787 
L 317.92992 142.110787 
L 317.92992 142.110787 
L 322.998058 142.110787 
L 322.998058 142.110787 
L 317.92992 142.110787 
L 317.92992 142.110787 
L 311.591999 142.110787 
L 311.591999 142.110787 
L 306.523861 142.110787 
L 306.523861 142.110787 
z
" style="fill: #b3c0b7"/>
   </g>
   <g id="text_111">
    <g id="patch_105">
     <path d="M 304.171189 156.853328 
L 347.517439 156.853328 
L 347.517439 87.170828 
L 304.171189 87.170828 
L 304.171189 156.853328 
z
" style="fill: none"/>
    </g>
    <path d="M 308.035507 141.879224 
L 308.035507 141.68857 
L 313.103645 141.68857 
L 313.103645 141.845956 
L 323.943524 141.845956 
L 323.943524 141.879224 
L 308.035507 141.879224 
z
" style="fill: #7b3294"/>
   </g>
   <g id="text_112">
    <g id="patch_106">
     <path d="M 304.171189 155.242672 
L 347.517439 155.242672 
L 347.517439 85.560172 
L 304.171189 85.560172 
L 304.171189 155.242672 
z
" style="fill: none"/>
    </g>
    <path d="M 311.591999 139.309005 
L 311.591999 140.058782 
L 312.966223 140.058782 
Q 315.956534 140.058782 317.226317 139.973286 
Q 318.4961 139.887549 318.4961 139.682693 
Q 318.4961 139.479278 317.226317 139.394262 
Q 315.956534 139.309005 312.966223 139.309005 
L 311.591999 139.309005 
z
M 306.523861 139.101027 
L 311.954794 139.101027 
Q 318.237746 139.101027 321.002685 139.237438 
Q 323.77312 139.373608 323.77312 139.682693 
Q 323.77312 139.992739 321.002685 140.12987 
Q 318.237746 140.26676 311.954794 140.26676 
L 306.523861 140.26676 
L 306.523861 139.101027 
z
" style="fill: #7b3294"/>
   </g>
   <g id="text_113">
    <g id="patch_107">
     <path d="M 304.171189 152.523704 
L 347.517439 152.523704 
L 347.517439 82.841204 
L 304.171189 82.841204 
L 304.171189 152.523704 
z
" style="fill: none"/>
    </g>
    <path d="M 323.031039 137.547639 
L 307.05706 137.547639 
L 307.05706 136.298617 
L 323.031039 136.298617 
L 323.031039 136.516565 
L 312.125198 136.516565 
L 312.125198 136.785205 
L 322.00312 136.785205 
L 322.00312 137.003154 
L 312.125198 137.003154 
L 312.125198 137.32969 
L 323.031039 137.32969 
L 323.031039 137.547639 
z
" style="fill: #b793c5"/>
   </g>
   <g id="text_114">
    <g id="patch_108">
     <path d="M 304.171189 148.685208 
L 347.517439 148.685208 
L 347.517439 79.002708 
L 304.171189 79.002708 
L 304.171189 148.685208 
z
" style="fill: none"/>
    </g>
    <path d="M 304.770351 109.685508 
L 308.947992 109.685508 
L 310.679514 127.288728 
L 312.779328 115.910616 
L 316.748087 115.910616 
L 319.166721 127.288728 
L 320.540945 109.685508 
L 324.751568 109.685508 
L 321.970138 133.666993 
L 317.501162 133.666993 
L 314.752714 121.083383 
L 312.17467 133.666993 
L 307.760662 133.666993 
L 304.770351 109.685508 
z
" style="fill: #833f9a"/>
   </g>
   <g id="line2d_16">
    <path d="M 55.236563 142.110787 
L 328.656563 142.110787 
" clip-path="url(#p87bbb8f5ee)" style="fill: none; stroke: #000000; stroke-linecap: square"/>
   </g>
  </g>
 </g>
 <defs>
  <clipPath id="p87bbb8f5ee">
   <rect x="55.236563" y="44.521589" width="273.42" height="138.6"/>
  </clipPath>
 </defs>
</svg>
